<?xml version="1.0" encoding="UTF-8"?><svg id="a" xmlns="http://www.w3.org/2000/svg" width="1920" height="1080" viewBox="0 0 1920 1080"><path d="M425.97,747.86c-14.86-2.77-30.64-.48-43.98,6.69s-23.35,19.1-27.27,33.75c-3.77,14.06-2.02,29.93,6.35,42.06,9.76,14.14,26.68,21.28,42.15,27.28,9.09,3.53,18.36,6.58,27.76,9.15,8.58,2.34,17.59,4.83,26.57,4.17,4.12-.31,8.19-1.36,11.79-3.42,3.28-1.89,6.05-4.54,8.35-7.53,5.14-6.68,8.56-15.23,10.16-23.47s.89-16.46-3.05-23.81c-3.37-6.29-8.7-11.42-14.81-15.05-14.53-8.64-32.14-7.56-47.43-1.54-7.98,3.15-15.71,7.47-22.41,12.83-6.4,5.12-11.82,11.84-13.33,20.08-.72,3.91-.56,8.04.88,11.77s3.78,6.61,6.65,9.11,6.37,4.64,9.84,6.48c4.06,2.15,8.23,4.09,12.49,5.81,8.06,3.26,16.57,6,25.19,7.3,6.82,1.02,13.91,1.15,20.66-.45,6.19-1.48,12.01-4.61,15.82-9.82,4.47-6.11,5.25-13.83,3.52-21.05-1.89-7.92-6.27-15.15-11.3-21.46s-11.42-12.66-17.92-18.05c-13.31-11.04-29.11-19.24-46.4-21.49-8.85-1.15-17.93-.74-26.56,1.59-7.41,2-16.11,5.42-18.75,13.36s1.11,15.91,6.25,21.71c2.89,3.26,6.26,6.04,9.64,8.77s6.8,5.36,10.29,7.92c14.13,10.37,29.27,19.37,45.11,26.86,15.83,7.49,32.36,13.49,49.32,17.86,4.21,1.08,8.44,2.07,12.7,2.95s8.82,1.82,13.31,1.84c7.13.05,13.75-2.7,17.61-8.87,3.23-5.16,4.14-11.59,3.29-17.56-.97-6.8-4.46-12.67-9.44-17.33-5.64-5.28-12.71-8.77-19.95-11.29-8.16-2.84-16.72-4.63-25.25-5.89-18.09-2.67-36.58-2.43-54.6.67-9.06,1.56-18,3.85-26.69,6.85-3.96,1.37-8.09,2.72-11.77,4.74-2.8,1.54-5.7,3.7-6.89,6.78-1.29,3.32.22,6.57,2.7,8.85,3.06,2.81,6.87,4.99,10.37,7.22,7.56,4.82,15.4,9.2,23.47,13.13,16.11,7.84,33.1,13.88,50.56,17.91,8.17,1.89,16.58,3.67,24.97,4.13,7.3.4,15.22-.43,21.23-4.99s8.43-11.67,8.28-18.85c-.17-8.01-3.66-15.33-8.48-21.59-5.24-6.82-11.78-12.63-18.17-18.35-6.5-5.82-13.26-11.38-20.49-16.28-13.51-9.14-28.91-15.85-45.41-16.36-14.85-.46-30.4,4.02-40.87,14.99-2.72,2.85-4.98,6.25-5.13,10.3s1.78,8.15,4.13,11.49c4.83,6.84,11.5,12.53,18.24,17.4s14.4,9.24,22,13.15,15.99,8.06,24.18,11.62,17.32,6.72,26.58,7.21c8.15.43,16.2-1.38,23.58-4.79,7.43-3.43,14.12-8.35,20.08-13.94,3-2.81,5.87-5.8,8.48-8.98s5.07-6.77,6.35-10.77c2.28-7.13-.42-14-6.07-18.62-5.94-4.85-13.47-7.21-20.67-9.45-18.53-5.75-37.82-9.61-57.19-11-9.53-.69-19.29-.55-28.57,1.94-6.78,1.82-14.02,5.63-15.86,12.98s3.02,14.81,8.08,19.94c5.97,6.04,13.47,10.64,20.61,15.16,14.98,9.49,30.82,17.58,47.21,24.33s33.45,12.2,50.75,16.35c16.67,4,33.62,6.81,50.68,8.54.8.08.79-1.17,0-1.25-16.95-1.71-33.78-4.52-50.34-8.49-16.46-3.95-32.64-9.05-48.35-15.37-15.67-6.31-30.86-13.86-45.28-22.67-3.63-2.22-7.22-4.52-10.75-6.9s-6.88-4.61-10.05-7.27c-5.58-4.69-11.85-11.42-11.73-19.21s7.5-12.66,14.47-14.69c8.79-2.56,18.15-2.81,27.23-2.26,18.54,1.11,37.06,4.69,54.86,9.91,11.87,3.48,34.34,9.57,30.1,26.52-1.03,4.12-3.45,7.8-6.1,11.07-2.51,3.1-5.28,6-8.16,8.75-5.7,5.43-12.08,10.23-19.16,13.7s-15.05,5.5-23.07,5.26c-9.11-.27-17.92-3.17-26.23-6.72-7.79-3.33-15.41-7.12-22.97-10.94-7.27-3.67-14.43-7.59-21.17-12.17s-13.05-9.84-18.36-16.03c-2.77-3.23-5.37-7.02-6.11-11.29-.77-4.52,1.33-8.41,4.33-11.63,10.09-10.81,25.24-15.25,39.71-14.93,15.9.36,30.79,6.61,43.93,15.26,7.02,4.62,13.59,9.91,19.89,15.46s12.48,11.02,17.84,17.32c5.16,6.06,9.37,13.22,10.09,21.28.65,7.16-1.38,14.72-7.1,19.42s-13.78,5.57-21.04,5.18c-8.14-.44-16.29-2.17-24.21-3.98-16.65-3.81-32.89-9.44-48.32-16.75-7.71-3.65-15.23-7.72-22.5-12.18-3.6-2.21-7.15-4.52-10.63-6.93-2.98-2.07-6.53-4.98-5.44-9.08.89-3.35,4.3-5.6,7.2-7.1,3.76-1.94,7.9-3.29,11.9-4.64,8.29-2.8,16.79-4.95,25.41-6.45,17.34-3.01,35.17-3.34,52.6-.93,8.24,1.14,16.49,2.8,24.43,5.33,7.18,2.28,14.27,5.42,20.1,10.28,5.23,4.36,9.2,9.98,10.53,16.73,1.16,5.89.46,12.39-2.6,17.63-1.47,2.5-3.5,4.66-6,6.16-3.59,2.14-7.82,2.73-11.94,2.57-4.36-.17-8.66-1.09-12.91-1.99s-8.21-1.83-12.28-2.89c-16.15-4.2-31.92-9.88-47.05-16.93s-29.58-15.46-43.17-25.12c-6.8-4.83-13.65-9.87-19.74-15.59-5.88-5.52-11.14-13.05-9.71-21.55s10.23-12.42,17.8-14.56c8.28-2.34,17.01-2.84,25.55-1.88,16.93,1.91,32.57,9.73,45.7,20.36,6.29,5.09,12.15,10.81,17.4,16.97s9.68,13.01,12.02,20.66c2.21,7.23,2.07,15.09-2.23,21.53-3.59,5.39-9.44,8.57-15.63,10.04-14.6,3.48-30.32-1-43.89-6.33-4.32-1.7-8.54-3.63-12.66-5.77-3.43-1.79-6.83-3.73-9.82-6.21s-5.53-5.45-6.92-9.06c-1.48-3.85-1.58-8.1-.68-12.1,1.84-8.19,7.59-14.65,14.15-19.58s14.41-9.26,22.37-12.17c14.95-5.47,31.89-5.99,45.69,2.77,5.92,3.75,10.96,9,14,15.35,3.69,7.72,3.62,16.43,1.5,24.59s-5.48,15.95-10.96,21.98c-2.67,2.94-5.92,5.33-9.66,6.73-3.96,1.48-8.21,1.89-12.4,1.71-8.8-.38-17.53-2.97-25.94-5.41-8.91-2.58-17.68-5.61-26.29-9.06-14.79-5.93-30.84-13.18-39.61-27.23-7.62-12.22-8.77-27.75-4.58-41.36s14.64-25.36,27.78-31.93c12.68-6.33,27.46-8.3,41.37-5.71.79.15,1.12-1.06.33-1.21h0Z" fill="#9a1b82"/><ellipse cx="1252.37" cy="966.81" rx="25.62" ry="26.01" fill="#a7228d"/><ellipse cx="1244.35" cy="966.81" rx="5.19" ry="5.27" fill="#cfacd1" stroke="#a7228d" stroke-miterlimit="10"/><ellipse cx="1260.38" cy="966.81" rx="5.19" ry="5.27" fill="#cfacd1" stroke="#a7228d" stroke-miterlimit="10"/><path d="M1311.7,423.08c5.5,9.39,16.89,13.41,27.35,12.2,5.44-.63,10.64-2.6,15-5.94,2.92-2.24,5.58-4.93,8.91-6.57s7.72-2.12,10.63.61c2.71,2.54,4.25,6.67,5.4,10.11,1.25,3.73,1.99,7.64,2.17,11.57.08,1.87.17,3.89-.43,5.69s-2.07,2.98-3.76,3.75c-3.45,1.58-7.54,2.27-11.28,2.65-7.69.78-15.66-.26-22.81-3.23-3.32-1.37-6.58-3.32-8.76-6.24s-3.04-6.5-3.18-10.07.36-7.11.97-10.6,1.42-7.26,2.46-10.81c2.06-7.07,5.19-14.03,10.2-19.51,4.61-5.03,10.79-8.89,17.6-9.96,6.42-1,12.78.89,18.02,4.62s9.3,9,12.65,14.46c3.73,6.08,7.11,12.73,9.18,19.57,2.18,7.21,2,14.61-1.65,21.3-3.38,6.21-8.87,10.95-15.13,14.11-6.91,3.49-14.7,5.23-22.36,6.04-3.74.4-7.75.49-11.24-1.14-2.59-1.21-4.6-3.29-5.86-5.84-2.6-5.26-2.23-11.76-1.18-17.36,1.33-7.03,3.67-13.98,6.32-20.61s6.13-13.65,10.02-20.04,8.49-12.2,13.08-18.11c3.87-4.99,8.32-11.47,6.7-18.14-1.46-6.01-7.26-9.08-12.84-10.41-7.1-1.7-14.75-1.7-21.95-.7s-14.65,2.91-20.74,6.76c-5.01,3.16-8.83,8.6-6.56,14.68s8.71,9.33,15.01,10.08c3.88.46,7.82.23,11.71,0,4.28-.24,8.56-.57,12.84-.82,8.18-.47,16.47-.65,24.56.79,13.34,2.37,26.87,9.48,31.46,23.04,2.05,6.07,2.18,12.98-.74,18.79-2.97,5.91-8.58,9.79-14.49,12.39-3.08,1.36-6.29,2.4-9.52,3.3s-7.13,1.95-10.2.17c-3.29-1.92-3.9-6.44-3.43-9.88s2.18-6.89,4.49-9.6c4.85-5.69,12.14-8.37,19.2-10.12,8.08-1.99,16.38-3.18,24.69-3.63,8.15-.45,16.38-.23,24.48.82,5.96.77,11.98,2.26,17.32,5.09,5.03,2.67,9.29,6.69,11.15,12.19.26.76,1.46.43,1.21-.33-4.01-11.85-17.38-16.46-28.66-18.06-16.56-2.35-33.86-1.31-50.09,2.62-7.08,1.71-14.43,4.33-19.51,9.8-4.42,4.76-7.39,12.19-4.62,18.52,3.1,7.07,11.55,4.54,17.21,2.77,6.3-1.98,12.67-4.7,17.44-9.41,9.62-9.5,8.28-24.76.38-34.9-9.05-11.62-24.72-15.46-38.75-15.89-8.9-.27-17.78.61-26.66,1.11-7.63.43-16.82,1.03-22.58-5.01-2.43-2.55-3.94-6.11-3.08-9.65.81-3.35,3.41-5.87,6.22-7.68,3.14-2.01,6.69-3.34,10.23-4.43,4.05-1.25,8.22-2.11,12.44-2.55s8.13-.46,12.19-.11c3.54.3,7.12.83,10.46,2.1,3.06,1.16,5.98,3.05,7.57,6,1.8,3.33,1.41,7.14.04,10.54-1.49,3.71-3.95,7-6.43,10.1-2.34,2.93-4.69,5.83-6.87,8.89-4.54,6.36-8.52,13.13-11.9,20.18-3.3,6.91-6.04,14.09-8.13,21.45-1.74,6.12-3.21,12.48-2.5,18.88.62,5.63,3.17,11.11,8.61,13.48,3.34,1.45,7.07,1.54,10.64,1.22,3.81-.34,7.63-.98,11.35-1.86,13.63-3.21,27.73-11.7,30.85-26.4,1.64-7.74-.77-15.44-3.92-22.46-2.82-6.28-6.08-12.46-10.26-17.95-3.81-5.01-8.5-9.58-14.34-12.14s-12.7-2.78-18.85-.53c-14.19,5.19-21.48,19.28-24.78,33.17-1.64,6.91-3.37,14.66-1.9,21.74.69,3.33,2.29,6.4,4.77,8.74s5.55,3.9,8.7,5.09c7.4,2.8,15.53,3.69,23.37,2.69,3.61-.46,7.45-1.17,10.75-2.75s4.53-4.19,4.67-7.61c.31-7.72-1.79-16.08-5.83-22.68-1.73-2.83-4.22-4.83-7.63-5.03s-6.86,1.34-9.67,3.36-5.42,4.64-8.48,6.5c-2.49,1.51-5.21,2.61-8.03,3.3-5.67,1.39-11.77,1.17-17.29-.74s-9.89-5.31-12.73-10.16c-.41-.69-1.49-.07-1.08.63h0Z" fill="#9a1b82"/><path d="M448.73,416.53c-9.38,4.89-18.76,9.79-28.14,14.68-5.31,2.77-16.48,8.32-11.09,15.99,2.28,3.25,6.23,5.67,9.62,7.62,3.76,2.16,7.79,3.86,11.9,5.24,8.92,2.99,18.3,4.67,27.58,6.11,10.09,1.57,20.26,2.6,30.45,3.08s20.39.62,30.5-.22c3.93-.32,8.03-1.01,11.39-3.2,2.98-1.94,5.01-4.92,5.97-8.32,2.01-7.13-.26-14.9-4.15-20.98-8.28-12.92-24.13-19.62-39.17-18.7-8.56.53-16.88,3.21-24.42,7.25-3.84,2.06-7.49,4.47-10.92,7.15s-6.99,5.37-8.93,9.12c-1.63,3.16-1.3,6.74,1.24,9.31s6.35,3.73,9.79,4.71c9.6,2.73,19.46,4.56,29.4,5.46,15.24,1.38,34.81.18,42.45-15.5,2.9-5.95,3.65-13.4.08-19.25-3.94-6.46-11.93-9.06-19.18-8.36-8.54.83-16.1,5.93-22.31,11.53-2.82,2.54-5.9,6.03-5.53,10.11.32,3.5,3.11,5.85,6.11,7.23,3.88,1.78,8.24,2.6,12.38,3.55,4.97,1.14,9.97,2.12,15.01,2.93,9.89,1.59,19.88,2.53,29.89,2.81,5.1.14,10.2.12,15.29-.08,4.56-.18,9.22-.32,13.73-1.03,3.31-.52,6.93-1.69,8.77-4.71,2.07-3.4.83-7.5-1.12-10.63-2.12-3.42-5.19-6.35-8.29-8.88s-6.46-4.68-10.04-6.46c-7.14-3.54-15.01-5.54-22.96-5.93-16.44-.81-32.5,5.74-44.86,16.37-6.29,5.41-11.11,11.89-15.84,18.65s-10.01,13.79-18.03,16.7-17.46,1.56-24.89-2.69c-3.65-2.08-7.14-4.91-9.05-8.73-2.01-4.03-1.58-8.72.31-12.7,4.02-8.47,13.17-12.31,21.4-15.53,9.24-3.62,18.67-6.77,28.23-9.43,19.29-5.38,39.13-8.8,59.12-10.16,3.61-.25,8.42-1.13,11.67.98,4.54,2.94-.63,8.16-3,10.61-5.74,5.92-12.53,10.7-19.68,14.77s-14.93,7.61-22.57,11.05c-3.79,1.7-7.57,3.4-11.33,5.16s-7.58,3.44-11.05,5.64c-5.12,3.23-12.08,10.05-7.92,16.52.43.68,1.52.05,1.08-.63-2.2-3.42-.6-7.18,1.82-10.01,2.61-3.05,5.95-5.09,9.48-6.9,7.14-3.66,14.5-6.86,21.81-10.17,14.23-6.45,28.73-13.49,39.66-24.97,2.32-2.44,5.77-5.82,4.48-9.54-.98-2.84-4.19-3.75-6.88-4-1.97-.18-3.95,0-5.92.13-2.34.15-4.68.32-7.01.52-4.65.4-9.29.92-13.91,1.54-18.9,2.54-37.55,6.9-55.61,13.02-4.51,1.53-8.99,3.17-13.43,4.92-3.93,1.55-7.88,3.17-11.49,5.39-6.49,3.99-12.22,10.71-11.81,18.77s7.43,13.49,14.17,16.43,15.35,3.88,22.68,1.22,12.44-8.48,16.87-14.58c4.73-6.51,9.06-13.15,14.94-18.72,11.63-11.03,27.16-18.31,43.34-18.43s31.96,6.25,41.9,18.52c2.55,3.14,5.13,7.99,2.51,11.85-2.12,3.11-6.47,3.78-9.93,4.11-9.62.92-19.34,1.1-28.99.73s-19.6-1.39-29.29-3.04c-4.79-.82-9.55-1.78-14.28-2.91-3.97-.94-8.31-1.7-11.91-3.72-1.5-.84-2.92-1.97-3.69-3.55-.99-2.03-.65-4.3.4-6.23,2.03-3.76,5.91-6.65,9.3-9.13,6.69-4.89,14.89-8.44,23.3-6.65,7.36,1.56,12.99,7.2,13.34,14.88.31,6.9-3.09,13.86-8.3,18.3-6.36,5.42-15.16,7.2-23.29,7.5-9.18.33-18.49-.87-27.48-2.59-4.76-.91-9.47-2.04-14.13-3.38-3.4-.98-7.47-2.17-9.6-5.23-2.72-3.9.16-8.18,3.03-11,3.06-3,6.53-5.64,10.08-8.02,13.61-9.07,30.8-13.88,46.75-8.56,7.02,2.34,13.51,6.45,18.34,12.08s8.08,12.94,7.49,20.39c-.29,3.69-1.68,7.34-4.47,9.85-3.12,2.81-7.44,3.74-11.51,4.13-9.53.93-19.29.76-28.85.39s-20-1.3-29.9-2.74c-9.08-1.32-18.22-2.9-27.03-5.5-8.04-2.37-16.53-5.86-22.64-11.79-8.14-7.91,5.92-14.01,11.52-16.93,8.65-4.51,17.29-9.02,25.94-13.53.71-.37.08-1.45-.63-1.08h0Z" fill="#9a1b82"/><path d="M1523.49,718.94l-4.53,1.96-78.34,20.62-.85.81s-6.18,1.73-7.44.94c0,0-.39-.59-.26-1.65,0,0,.68-.9,3-1.42l83.54-20.71,4.87-.55Z" fill="#a7228d"/><path d="M1439.77,741.06l-5.81,1.47c-.26.06-.5-.12-.55-.41h0c-.05-.29.13-.58.38-.65l5.81-1.47c.26-.06.5.12.55.41h0c.05.29-.13.58-.38.65Z" fill="#dcbfdb"/><ellipse cx="1176.62" cy="827" rx="8.57" ry="9.42" transform="translate(-52.03 1574.52) rotate(-66.42)" fill="#a7228d"/><line x1="1125.14" y1="899.27" x2="1174.39" y2="829.61" fill="none" stroke="#a7228d" stroke-miterlimit="10"/><ellipse cx="1061.48" cy="822.33" rx="9.42" ry="8.57" transform="translate(-38.27 51.94) rotate(-2.75)" fill="#a7228d"/><line x1="1047.4" y1="909.93" x2="1060.64" y2="825.66" fill="none" stroke="#a7228d" stroke-miterlimit="10"/><ellipse cx="1215.27" cy="861.85" rx="8.57" ry="9.42" transform="translate(-254.77 619.66) rotate(-25.99)" fill="#a7228d"/><line x1="1129.22" y1="883.47" x2="1211.88" y2="862.39" fill="none" stroke="#a7228d" stroke-miterlimit="10"/><ellipse cx="610.93" cy="320.82" rx="9.42" ry="8.57" transform="translate(-55.8 498.67) rotate(-42.64)" fill="#a7228d"/><line x1="656.3" y1="397.06" x2="612.42" y2="323.91" fill="none" stroke="#a7228d" stroke-miterlimit="10"/><path d="M666.18,813.56l-2.69,4.13-53.89,60.49-.26,1.15s-4.19,4.86-5.68,4.89c0,0-.65-.27-1.13-1.23,0,0,.07-1.12,1.72-2.84l58.17-63.44,3.76-3.15Z" fill="#a7228d"/><path d="M608.65,878.27l-4.03,4.43c-.18.2-.49.18-.69-.04h0c-.2-.22-.22-.56-.04-.75l4.03-4.43c.18-.2.49-.18.69.04h0c.2.22.22.56.04.75Z" fill="#dcbfdb"/><rect x="774.86" y="98.93" width="356.77" height="356.77" transform="translate(-24.28 104.03) rotate(-6.17)" fill="#a7228d"/><polygon points="845.4 109.54 943.66 188.63 854.99 198.22 845.4 109.54" fill="#cfacd1" stroke="#a7228d" stroke-miterlimit="10"/><polygon points="943.66 188.63 1022.76 90.38 1032.34 179.05 943.66 188.63" fill="#cfacd1" stroke="#a7228d" stroke-miterlimit="10"/><polygon points="864.57 286.89 766.31 207.8 854.99 198.22 864.57 286.89" fill="#cfacd1" stroke="#a7228d" stroke-miterlimit="10"/><polygon points="785.48 385.15 864.57 286.89 874.15 375.57 785.48 385.15" fill="#cfacd1" stroke="#a7228d" stroke-miterlimit="10"/><polygon points="1120.97 169.06 1041.88 267.32 1032.29 178.64 1120.97 169.06" fill="#cfacd1" stroke="#a7228d" stroke-miterlimit="10"/><polygon points="1041.92 267.73 1140.18 346.82 1051.51 356.4 1041.92 267.73" fill="#cfacd1" stroke="#a7228d" stroke-miterlimit="10"/><polygon points="1061.09 445.08 962.83 365.99 1051.5 356.4 1061.09 445.08" fill="#cfacd1" stroke="#a7228d" stroke-miterlimit="10"/><polygon points="962.83 365.99 883.74 464.24 874.15 375.57 962.83 365.99" fill="#cfacd1" stroke="#a7228d" stroke-miterlimit="10"/><polyline points="883.73 782.96 938.75 928.12 739.2 837.06" fill="#a7228d"/><polygon points="937.01 890.76 718.11 876.8 821.25 992.82 937.01 890.76" fill="#cfacd1" stroke="#a7228d" stroke-miterlimit="10"/><ellipse cx="641.37" cy="282.45" rx="9.42" ry="8.57" transform="translate(-58.05 326.47) rotate(-27.37)" fill="#a7228d"/><line x1="665.06" y1="367.95" x2="641.99" y2="285.82" fill="none" stroke="#a7228d" stroke-miterlimit="10"/><rect x="1351.31" y="825.62" width="159.71" height="159.71" transform="translate(201.01 -258.5) rotate(11.1)" fill="#cfacd1" stroke="#a7228d" stroke-miterlimit="10"/><polyline points="1494.48 998.48 1337.28 968.32 1525.04 842.64" fill="#a7228d"/><ellipse cx="1263.21" cy="289.11" rx="44.83" ry="44.16" transform="translate(736.4 1473.07) rotate(-78.9)" fill="#a7228d"/><ellipse cx="1249.65" cy="286.45" rx="9.09" ry="8.95" transform="translate(728.06 1457.61) rotate(-78.9)" fill="#cfacd1" stroke="#a7228d" stroke-miterlimit="10"/><ellipse cx="1276.77" cy="291.77" rx="9.09" ry="8.95" transform="translate(744.75 1488.52) rotate(-78.9)" fill="#cfacd1" stroke="#a7228d" stroke-miterlimit="10"/><ellipse cx="666.18" cy="940.97" rx="33.55" ry="34.06" transform="translate(-486.74 941.66) rotate(-54.74)" fill="#a7228d"/><ellipse cx="660.12" cy="949.54" rx="6.8" ry="6.91" transform="translate(-496.3 940.33) rotate(-54.74)" fill="#cfacd1" stroke="#a7228d" stroke-miterlimit="10"/><ellipse cx="672.24" cy="932.4" rx="6.8" ry="6.91" transform="translate(-477.18 942.99) rotate(-54.74)" fill="#cfacd1" stroke="#a7228d" stroke-miterlimit="10"/><path d="M985.24,879.79s-3.74,3.13-2,6.65c0,0,.82,1.52,3.57.95,0,0,4.28.3.83,4.04l-4.9,4.05-2.37,1.16s-2.36-9.38-1.85-14.71c0,0,.97-5.09,8.9-6.3,0,0,5.95-.97,7.56,4.76l3.3,13.15s-2.52-1.59-4.13-.83c0,0-2.8.32-3.79-2.84,0,0-.72-1.03-.07-3.19,0,0,.65-2.58-.37-5.49,0,0-.99-3.17-4.67-1.4Z" fill="#a8228e"/><path d="M981.29,893.75s11.1,69.79,19.84,71.7c0,0,9.42,2.36,5.71-16.86,0,0-7.38-49.71-10.92-57.86" fill="none" stroke="#a8228e" stroke-miterlimit="10" stroke-width="2"/><circle cx="1002.4" cy="961.62" r="3.88" fill="none" stroke="#a8228e" stroke-miterlimit="10" stroke-width="2"/><path d="M1374.06,213.2s-4.73,1.2-4.68,5.13c0,0,.08,1.72,2.8,2.4,0,0,3.73,2.12-1,4.01l-6.17,1.53-2.64.02s1.94-9.47,4.7-14.06c0,0,3.08-4.17,10.75-1.83,0,0,5.79,1.7,4.75,7.57l-2.72,13.28s-1.58-2.52-3.37-2.54c0,0-2.66-.92-2.19-4.2,0,0-.2-1.24,1.32-2.9,0,0,1.7-2.04,2.04-5.11,0,0,.48-3.28-3.61-3.28Z" fill="#a8228e"/><path d="M1364.46,224.08s-20.21,67.72-13.16,73.22c0,0,7.47,6.2,12.45-12.72,0,0,14.87-48,15.21-56.88" fill="none" stroke="#a8228e" stroke-miterlimit="10" stroke-width="2"/><circle cx="1354.1" cy="294.39" r="3.88" fill="none" stroke="#a8228e" stroke-miterlimit="10" stroke-width="2"/><path d="M1399.83,233.93s-4.88.09-5.74,3.92c0,0-.32,1.69,2.18,2.98,0,0,3.14,2.92-1.89,3.67l-6.35.07-2.58-.59s4.06-8.78,7.8-12.61c0,0,3.96-3.35,10.89.69,0,0,5.24,2.98,2.89,8.46l-5.69,12.3s-.96-2.82-2.69-3.25c0,0-2.38-1.51-1.16-4.59,0,0,.09-1.25,1.95-2.52,0,0,2.12-1.6,3.16-4.5,0,0,1.22-3.09-2.76-4.02Z" fill="#a8228e"/><path d="M1387.98,242.32s-35.21,61.27-29.61,68.25c0,0,5.85,7.75,15.04-9.53,0,0,25.49-43.31,27.86-51.87" fill="none" stroke="#a8228e" stroke-miterlimit="10" stroke-width="2"/><circle cx="1361.77" cy="308.38" r="3.88" fill="none" stroke="#a8228e" stroke-miterlimit="10" stroke-width="2"/><path d="M512.49,327.88s-.59,4.84,3.08,6.22c0,0,1.63.55,3.26-1.74,0,0,3.33-2.7,3.37,2.38l-.81,6.3-.94,2.47s-8.13-5.24-11.4-9.48c0,0-2.77-4.38,2.19-10.68,0,0,3.68-4.78,8.77-1.68l11.39,7.35s-2.92.56-3.59,2.22c0,0-1.82,2.15-4.71.51,0,0-1.23-.26-2.23-2.28,0,0-1.29-2.33-4.02-3.75,0,0-2.89-1.64-4.37,2.17Z" fill="#a8228e"/><path d="M519.15,340.78s55.78,43.39,63.47,38.81c0,0,8.49-4.72-7.34-16.22,0,0-39.34-31.26-47.5-34.8" fill="none" stroke="#a8228e" stroke-miterlimit="10" stroke-width="2"/><circle cx="580.92" cy="375.92" r="3.88" fill="none" stroke="#a8228e" stroke-miterlimit="10" stroke-width="2"/></svg>