<?xml version="1.0" encoding="UTF-8"?><svg id="a" xmlns="http://www.w3.org/2000/svg" width="1920" height="1080" viewBox="0 0 1920 1080"><path d="M352.79,776.2c-17-3.18-35.07-.56-50.34,7.6s-26.82,21.81-31.38,38.58c-4.39,16.13-2.45,34.36,7.09,48.32,11.07,16.21,30.34,24.41,47.98,31.3,10.5,4.1,21.22,7.65,32.1,10.63,9.78,2.68,20.04,5.54,30.28,4.92,4.76-.28,9.47-1.41,13.66-3.71,3.87-2.13,7.15-5.19,9.85-8.66s5-7.6,6.84-11.75c2.11-4.78,3.84-9.75,4.89-14.88,1.89-9.26,1.26-18.86-3.13-27.33-3.78-7.29-9.84-13.27-16.83-17.52-16.56-10.06-36.73-9.03-54.31-2.23-9.31,3.6-18.31,8.6-26.14,14.82-7.4,5.89-13.69,13.62-15.45,23.14-.84,4.53-.64,9.3,1.05,13.62,1.59,4.07,4.36,7.53,7.64,10.38,3.46,2.99,7.41,5.36,11.44,7.49,4.75,2.51,9.62,4.76,14.6,6.76,9.21,3.7,18.93,6.8,28.77,8.24,7.75,1.13,15.8,1.26,23.45-.58,7.14-1.71,13.85-5.35,18.2-11.4,5.1-7.09,5.89-15.99,3.83-24.3-2.24-9.02-7.24-17.25-13-24.44-6.14-7.66-13.28-14.67-20.85-20.9-15.32-12.63-33.5-21.94-53.36-24.43-10.14-1.27-20.56-.74-30.43,1.98-8.39,2.32-18.21,6.25-21.15,15.29s1.54,18.58,7.65,25.28c3.35,3.68,7.23,6.84,11.09,9.96s7.82,6.15,11.84,9.08c16.3,11.9,33.74,22.23,52,30.82,18.11,8.52,37.03,15.35,56.42,20.31,4.84,1.24,9.7,2.36,14.59,3.36s10.1,2.05,15.24,2.04c8.1-.02,15.55-3.25,19.89-10.26,3.71-6,4.7-13.46,3.65-20.35-1.19-7.82-5.33-14.54-11.11-19.84-6.49-5.95-14.56-9.9-22.83-12.75-9.44-3.26-19.35-5.31-29.22-6.75-20.68-3.01-41.81-2.7-62.39.86-10.46,1.81-20.77,4.46-30.79,7.94-4.48,1.56-9.15,3.08-13.31,5.38-3.24,1.79-6.61,4.31-7.92,7.92-1.47,4.06.72,7.84,3.79,10.43,3.68,3.1,7.95,5.63,12.01,8.2,8.69,5.5,17.71,10.5,26.97,14.98,18.51,8.94,38.03,15.81,58.07,20.39,9.34,2.13,18.94,4.16,28.53,4.61,8.27.38,17.21-.64,23.95-5.88s9.62-13.69,9.3-22.04c-.35-9.13-4.43-17.39-9.95-24.51-6.08-7.83-13.65-14.53-21.02-21.11-7.48-6.67-15.25-13.04-23.58-18.64-15.53-10.44-33.22-18.04-52.14-18.52-16.94-.44-34.69,4.75-46.6,17.3-3.18,3.35-5.77,7.37-5.8,12.13s2.33,9.4,5.11,13.22c5.62,7.71,13.17,14.14,20.87,19.68,7.97,5.73,16.55,10.56,25.28,15.04,9.16,4.7,18.45,9.29,27.9,13.38,9.57,4.13,19.64,7.56,30.14,8.11,9.37.49,18.61-1.6,27.1-5.53s16.21-9.6,23.04-16.02c3.44-3.23,6.74-6.66,9.74-10.31s5.74-7.67,7.22-12.2c1.36-4.16,1.41-8.67-.24-12.75-1.41-3.51-3.92-6.44-6.84-8.8-6.81-5.49-15.4-8.18-23.63-10.73-21.37-6.62-43.63-11.07-65.96-12.65-10.93-.77-22.16-.6-32.79,2.32-7.87,2.16-16.28,6.75-18.03,15.45-1.75,8.72,4.05,16.88,9.93,22.68,3.34,3.29,7.08,6.07,10.92,8.75,4.14,2.89,8.35,5.69,12.62,8.39,17.18,10.85,35.35,20.1,54.14,27.83,18.93,7.78,38.48,14,58.38,18.76,19.06,4.56,38.44,7.77,57.93,9.74.8.08.79-1.17,0-1.25-19.53-1.97-38.93-5.21-58.02-9.79-18.98-4.56-37.65-10.45-55.75-17.76-18.07-7.29-35.57-16.02-52.19-26.2-4.12-2.53-8.19-5.14-12.19-7.84s-8-5.37-11.66-8.49c-6.29-5.36-13.3-13.01-13.17-21.84.13-9.38,8.64-14.65,16.72-17.01,10.25-2.99,21.16-3.24,31.74-2.58,21.51,1.34,42.99,5.53,63.63,11.66,13.71,4.07,38.94,11.34,33.56,30.8-1.3,4.71-4.12,8.89-7.19,12.63s-6.11,6.89-9.44,10.04c-6.6,6.24-13.98,11.74-22.19,15.68s-17.43,6.18-26.68,5.81c-10.34-.41-20.33-3.74-29.76-7.79-9.03-3.87-17.88-8.26-26.64-12.7s-16.65-8.79-24.41-14.11c-7.68-5.26-14.91-11.33-20.94-18.45-3.2-3.78-6.24-8.3-6.86-13.32s1.9-9.47,5.33-13.08c11.66-12.28,28.96-17.33,45.53-16.94,18.34.43,35.5,7.66,50.64,17.65,8.1,5.35,15.67,11.46,22.94,17.87s14.35,12.68,20.48,19.95,10.65,15.18,11.46,24.42c.72,8.27-1.66,16.93-8.26,22.35s-15.61,6.36-23.83,5.95c-9.34-.46-18.7-2.43-27.8-4.5-19.23-4.37-37.98-10.85-55.81-19.27-8.97-4.24-17.71-8.97-26.17-14.16-4.16-2.55-8.25-5.21-12.26-8-3.43-2.39-7.43-5.79-6.13-10.48,1.08-3.92,5.07-6.53,8.49-8.27,4.29-2.18,8.99-3.72,13.54-5.26,9.56-3.23,19.37-5.71,29.3-7.43,19.98-3.46,40.53-3.82,60.62-1.02,9.49,1.32,18.99,3.25,28.13,6.18,8.25,2.65,16.4,6.29,23.07,11.92,5.98,5.05,10.49,11.53,11.97,19.3,1.28,6.73.47,14.14-3.02,20.11-1.71,2.92-4.08,5.44-7,7.18-4.04,2.4-8.8,3.09-13.43,2.94-5.01-.16-9.95-1.21-14.84-2.24s-9.47-2.1-14.16-3.32c-18.72-4.85-37-11.43-54.52-19.61-17.38-8.12-34.02-17.81-49.65-28.93-7.86-5.6-15.8-11.43-22.81-18.07s-12.67-15.12-10.88-24.84,11.92-14.17,20.63-16.6c9.55-2.67,19.61-3.24,29.43-2.1,19.55,2.25,37.57,11.32,52.71,23.64,7.22,5.88,13.96,12.47,19.98,19.58s11.08,15.03,13.7,23.87c2.47,8.32,2.18,17.33-2.83,24.68-4.17,6.12-10.9,9.72-17.99,11.39-7.54,1.78-15.51,1.63-23.13.46-9.37-1.43-18.61-4.35-27.41-7.82-4.96-1.96-9.82-4.18-14.55-6.65-3.98-2.08-7.91-4.34-11.36-7.24s-6.36-6.37-7.91-10.58c-1.64-4.47-1.69-9.37-.61-13.98,2.2-9.36,8.83-16.73,16.35-22.36,7.91-5.93,16.84-10.77,26.13-14.1,9.25-3.32,19.13-5.09,28.96-4.31,8.43.67,16.6,3.42,23.69,8.05s12.49,10.55,15.85,17.94c4.06,8.9,3.81,18.91,1.32,28.21s-6.36,18.16-12.67,25.01c-3.09,3.35-6.83,6.04-11.12,7.62-4.55,1.67-9.44,2.13-14.25,1.91-10.14-.46-20.21-3.45-29.9-6.26-10.29-2.99-20.44-6.5-30.38-10.5-17.01-6.84-35.42-15.24-45.41-31.46-8.69-14.12-9.93-32.01-5.03-47.67s16.89-28.99,31.94-36.49c14.58-7.26,31.58-9.53,47.58-6.55.79.15,1.12-1.06.33-1.21h0Z" fill="#9a1b82"/><ellipse cx="1302.82" cy="1027.81" rx="29.45" ry="29.9" fill="#a7228d"/><ellipse cx="1293.6" cy="1027.81" rx="5.97" ry="6.06" fill="#cfacd1" stroke="#a7228d" stroke-miterlimit="10"/><ellipse cx="1312.04" cy="1027.81" rx="5.97" ry="6.06" fill="#cfacd1" stroke="#a7228d" stroke-miterlimit="10"/><path d="M1371.11,402.71c6.36,10.88,19.62,15.44,31.71,13.94,6.25-.77,12.15-3.12,17.13-7,3.36-2.62,6.47-5.74,10.39-7.54s8.67-2.12,11.92.94c1.53,1.45,2.58,3.34,3.52,5.21,1.06,2.1,1.97,4.27,2.71,6.51,1.43,4.3,2.28,8.79,2.48,13.32.1,2.16.2,4.47-.51,6.54s-2.44,3.48-4.44,4.38c-4.04,1.82-8.78,2.62-13.16,3.04-8.89.86-18.15-.37-26.39-3.89-3.72-1.59-7.36-3.81-9.8-7.1s-3.45-7.41-3.63-11.49.39-8.15,1.09-12.16c.74-4.25,1.65-8.47,2.86-12.62,2.37-8.13,5.98-16.15,11.76-22.45,5.31-5.79,12.41-10.22,20.25-11.45,7.37-1.15,14.69,1,20.72,5.27s10.63,10.21,14.47,16.41c4.33,7.01,8.25,14.7,10.67,22.59,1.36,4.42,2.12,9.05,1.67,13.68-.37,3.84-1.61,7.58-3.44,10.96-3.83,7.1-10.05,12.57-17.17,16.23-7.8,4.01-16.56,6-25.23,7.02-4.22.5-8.71.73-12.76-.78-3.29-1.23-5.94-3.64-7.58-6.72-3.15-5.91-2.86-13.31-1.74-19.72,1.39-7.99,4.05-15.89,6.99-23.43,3.16-8.1,7.02-15.92,11.49-23.38,4.44-7.39,9.62-14.11,14.94-20.86,4.46-5.67,9.68-12.85,8.43-20.51-1.18-7.2-7.82-11.07-14.34-12.74-8.13-2.08-16.99-2.1-25.27-1-4.46.59-8.87,1.57-13.15,2.95-3.77,1.21-7.54,2.65-10.92,4.74-5.82,3.61-10.36,9.88-7.7,16.93,2.85,7.53,10.63,10.9,18.15,11.59,4.49.41,9.02.11,13.51-.16,4.91-.29,9.81-.67,14.72-.93,9.25-.5,18.63-.63,27.78,1.06,15.36,2.84,30.79,11.23,35.86,26.92,2.25,6.96,2.27,14.84-1.14,21.44s-10.18,11.32-17.12,14.28c-3.57,1.53-7.3,2.72-11.04,3.74s-8.22,2.05-11.6-.26-4.1-7.43-3.55-11.29,2.51-7.83,5.13-10.93c5.56-6.56,13.94-9.67,22.06-11.69,9.34-2.31,18.94-3.68,28.55-4.21s18.82-.26,28.12.95c6.89.9,13.86,2.62,20.02,5.91,5.77,3.08,10.65,7.71,12.78,14.02.26.76,1.46.43,1.21-.33-4.6-13.63-20.03-18.89-32.99-20.71-19.11-2.68-39.09-1.48-57.81,3.11-8.13,2-16.56,5.08-22.3,11.46-4.92,5.47-8.21,13.98-4.9,21.1,3.76,8.1,13.88,4.75,20.35,2.66,7.2-2.33,14.46-5.56,19.78-11.1,10.73-11.18,8.63-28.82-.71-40.18-10.77-13.09-28.82-17.17-44.99-17.52-10.24-.22-20.44.83-30.65,1.37-8.73.46-19.08.81-25.38-6.37-2.69-3.06-4.13-7.2-2.94-11.21,1.12-3.77,4.2-6.57,7.44-8.58,3.67-2.27,7.81-3.78,11.92-5.02,4.59-1.38,9.32-2.33,14.09-2.8s9.4-.49,14.08-.07c4.08.37,8.21,1,12.03,2.52,3.44,1.36,6.7,3.56,8.47,6.9,2,3.77,1.6,8.08.07,11.94-1.63,4.13-4.32,7.82-7.06,11.29s-5.4,6.68-7.91,10.18c-5.19,7.21-9.76,14.88-13.65,22.88-3.85,7.91-7.04,16.15-9.5,24.6-2.07,7.1-3.86,14.46-3.2,21.91.56,6.35,3.17,12.75,9.16,15.75,3.83,1.92,8.24,2.12,12.44,1.78s8.72-1.07,12.97-2.04c8.34-1.91,16.55-5.14,23.23-10.59,5.95-4.85,10.7-11.47,12.53-18.99,2.15-8.83-.41-17.7-3.96-25.8-3.22-7.35-7.01-14.58-11.84-21.02-4.3-5.74-9.59-11.02-16.18-14.07s-14.52-3.5-21.63-1.05-13.8,7.64-18.44,13.89c-5.24,7.06-8.37,15.47-10.43,23.96-1.01,4.16-1.83,8.4-2.38,12.65s-.74,8.17,0,12.19,2.43,7.43,5.23,10.2,6.46,4.69,10.16,6.1c8.55,3.26,17.94,4.3,27.01,3.13,4.14-.53,8.57-1.35,12.35-3.18,1.63-.79,3.13-1.92,4.03-3.52.98-1.71,1.2-3.74,1.24-5.68.15-8.81-2.16-18.34-6.92-25.81-2.08-3.27-5.12-5.38-9.09-5.41s-7.89,1.93-11.12,4.36-6.11,5.26-9.61,7.3c-2.88,1.68-6.02,2.88-9.27,3.62-6.46,1.48-13.37,1.15-19.62-1.07s-11.22-6.12-14.46-11.64c-.41-.69-1.49-.07-1.08.63h0Z" fill="#9a1b82"/><path d="M379.04,395.31c-10.67,5.57-21.34,11.13-32.01,16.7-6.03,3.15-19.22,9.47-13.13,18.33,1.29,1.88,3.12,3.34,4.92,4.72,2.03,1.56,4.17,2.97,6.39,4.24,4.33,2.47,8.96,4.4,13.69,5.97,10.29,3.42,21.11,5.35,31.81,7,11.58,1.79,23.26,2.96,34.96,3.5s23.22.69,34.72-.27c4.46-.37,9.12-1.14,12.95-3.61,3.51-2.25,5.88-5.76,6.96-9.77,2.24-8.28-.48-17.23-5.06-24.21-9.65-14.72-27.87-22.24-45.11-21.06-9.9.68-19.51,3.87-28.19,8.6-4.45,2.43-8.67,5.27-12.64,8.43-3.68,2.92-7.9,6.17-9.88,10.56-1.73,3.83-.77,7.91,2.41,10.62s7.77,3.99,11.89,5.13c11.12,3.07,22.54,5.09,34.04,6.03,9.77.79,20,.72,29.32-2.67,8.16-2.97,14.91-8.5,18.37-16.58,2.97-6.94,3.32-15.44-1.25-21.79-5.05-7.02-14.29-9.47-22.55-8.31-4.86.68-9.49,2.63-13.68,5.13s-8.35,5.66-11.87,9.14c-3.06,3.03-6.01,7.2-4.81,11.73,1.01,3.82,4.6,6.04,8.04,7.41,4.84,1.93,10.16,2.93,15.24,4.05,5.6,1.24,11.23,2.29,16.9,3.15,11.38,1.74,22.88,2.74,34.4,2.97,5.89.12,11.78.04,17.66-.24,5-.24,10.2-.32,15.12-1.36,3.74-.79,7.58-2.54,9.12-6.29,1.8-4.39-.48-9.22-3.11-12.74-5.43-7.26-13.37-12.89-21.55-16.63s-17.48-5.88-26.65-6.04c-18.84-.34-37.09,7.66-50.95,20.17-3.55,3.2-6.82,6.71-9.77,10.48s-5.45,7.56-8.15,11.36c-5.52,7.77-11.97,15.4-21.48,18.14s-19.84.65-28.04-4.47c-4.2-2.63-8.24-6.26-9.91-11.06s-.66-9.79,1.65-14.06c5.1-9.41,15.76-13.57,25.21-17.23,10.62-4.12,21.46-7.69,32.44-10.72,22.07-6.07,44.75-9.92,67.59-11.42,4.02-.26,9.35-1.18,12.92,1.29,5.18,3.58-1.13,9.73-3.93,12.58-6.64,6.77-14.47,12.21-22.69,16.87s-16.94,8.61-25.6,12.5c-4.39,1.97-8.78,3.94-13.14,5.99s-8.62,3.92-12.58,6.42c-5.81,3.67-13.8,11.48-9.05,18.85.44.67,1.52.05,1.08-.63-2.46-3.8-.84-8.01,1.79-11.25,2.9-3.56,6.71-5.99,10.74-8.07,8.25-4.26,16.76-7.96,25.21-11.78,16.36-7.4,33.04-15.45,45.66-28.57,2.75-2.86,7.04-6.97,5.3-11.36-1.29-3.25-5.18-4.15-8.31-4.35-2.31-.15-4.64.09-6.94.24-2.8.18-5.6.4-8.4.65-5.34.48-10.67,1.09-15.98,1.82-21.72,2.98-43.16,8.07-63.91,15.18-5.16,1.77-10.28,3.66-15.35,5.68-4.47,1.78-8.94,3.68-12.99,6.29-7.42,4.78-13.83,12.94-12.66,22.27s9.6,14.97,17.35,18.07c8.32,3.33,17.99,3.82,26.32.27s14.04-10.78,19.11-17.96c2.67-3.77,5.22-7.63,8.1-11.24s6.02-6.93,9.43-9.99c13.75-12.35,31.86-20.16,50.5-19.66,9.13.25,18.24,2.39,26.48,6.35,4.07,1.95,7.94,4.34,11.47,7.15s7.06,6.09,9.54,9.9,4.16,9.41.17,13c-3.2,2.88-8.04,3.23-12.12,3.57-11.18.92-22.43,1.12-33.64.59s-22.59-1.79-33.74-3.79c-5.48-.98-10.94-2.14-16.35-3.47-4.32-1.06-9.11-1.95-12.84-4.54-1.73-1.2-3.15-2.86-3.6-4.96-.52-2.4.36-4.76,1.67-6.75,2.72-4.13,7.16-7.42,11.16-10.21,7.78-5.44,17.28-9.09,26.81-6.63,4.24,1.09,8.21,3.39,10.87,6.92,2.3,3.05,3.44,6.82,3.5,10.63.14,7.86-3.82,15.72-9.82,20.7-7.46,6.2-17.66,8.18-27.11,8.46-10.68.32-21.5-1.11-31.95-3.16-5.48-1.07-10.91-2.4-16.26-3.97-3.76-1.11-8.29-2.63-10.47-6.16-2.86-4.63.69-9.49,4.02-12.68,3.56-3.41,7.54-6.45,11.65-9.17,15.79-10.42,35.68-15.8,54.07-9.44,8.01,2.77,15.4,7.56,20.86,14.08s9.15,15.06,8.28,23.66c-.43,4.22-2.14,8.35-5.42,11.14-3.72,3.17-8.77,4.14-13.5,4.56-10.98.98-22.17.83-33.17.38s-22.85-1.52-34.17-3.18c-10.48-1.54-21.05-3.37-31.21-6.41-4.75-1.42-9.42-3.16-13.84-5.42s-8.83-4.93-12.24-8.46c-8.69-9.02,7.55-15.97,13.69-19.18,9.94-5.19,19.88-10.37,29.81-15.56.71-.37.08-1.45-.63-1.08h0Z" fill="#9a1b82"/><path d="M1614.49,742.87l-5.21,2.25-90.06,23.7-.98.94s-7.11,1.99-8.55,1.08c0,0-.45-.67-.3-1.9,0,0,.78-1.03,3.45-1.63l96.04-23.81,5.6-.63Z" fill="#a7228d"/><path d="M1518.26,768.29l-6.68,1.69c-.29.07-.58-.14-.63-.48h0c-.05-.34.15-.67.44-.75l6.68-1.69c.29-.07.58.14.63.48h0c.05.34-.15.67-.44.75Z" fill="#dcbfdb"/><ellipse cx="1215.74" cy="867.09" rx="9.85" ry="10.83" transform="translate(-65.3 1634.42) rotate(-66.42)" fill="#a7228d"/><line x1="1156.56" y1="950.16" x2="1213.18" y2="870.09" fill="none" stroke="#a7228d" stroke-miterlimit="10"/><ellipse cx="1083.38" cy="861.72" rx="10.83" ry="9.85" transform="translate(-40.14 53.03) rotate(-2.75)" fill="#a7228d"/><line x1="1067.2" y1="962.42" x2="1082.42" y2="865.54" fill="none" stroke="#a7228d" stroke-miterlimit="10"/><ellipse cx="1260.18" cy="907.15" rx="9.85" ry="10.83" transform="translate(-270.08 643.92) rotate(-25.99)" fill="#a7228d"/><line x1="1161.26" y1="932" x2="1256.28" y2="907.77" fill="none" stroke="#a7228d" stroke-miterlimit="10"/><ellipse cx="565.44" cy="285.2" rx="10.83" ry="9.85" transform="translate(-43.7 458.44) rotate(-42.64)" fill="#a7228d"/><line x1="617.6" y1="372.85" x2="567.16" y2="288.75" fill="none" stroke="#a7228d" stroke-miterlimit="10"/><path d="M628.96,851.64l-3.09,4.75-61.94,69.54-.3,1.32s-4.82,5.59-6.53,5.62c0,0-.75-.31-1.29-1.42,0,0,.08-1.29,1.97-3.27l66.87-72.93,4.32-3.62Z" fill="#a7228d"/><path d="M562.82,926.03l-4.63,5.1c-.2.22-.56.2-.79-.05h0c-.23-.25-.25-.64-.05-.87l4.63-5.1c.2-.22.56-.2.79.05h0c.23.25.25.64.05.87Z" fill="#dcbfdb"/><rect x="753.9" y="30.12" width="410.13" height="410.13" transform="translate(-19.72 104.4) rotate(-6.17)" fill="#a7228d"/><polygon points="834.99 42.32 947.95 133.24 846.01 144.26 834.99 42.32" fill="#cfacd1" stroke="#a7228d" stroke-miterlimit="10"/><polygon points="947.95 133.24 1038.87 20.29 1049.88 122.23 947.95 133.24" fill="#cfacd1" stroke="#a7228d" stroke-miterlimit="10"/><polygon points="857.02 246.2 744.07 155.28 846.01 144.26 857.02 246.2" fill="#cfacd1" stroke="#a7228d" stroke-miterlimit="10"/><polygon points="766.1 359.15 857.02 246.2 868.04 348.14 766.1 359.15" fill="#cfacd1" stroke="#a7228d" stroke-miterlimit="10"/><polygon points="1151.77 110.74 1060.85 223.7 1049.83 121.76 1151.77 110.74" fill="#cfacd1" stroke="#a7228d" stroke-miterlimit="10"/><polygon points="1060.9 224.17 1173.85 315.09 1071.92 326.1 1060.9 224.17" fill="#cfacd1" stroke="#a7228d" stroke-miterlimit="10"/><polygon points="1082.93 428.04 969.98 337.12 1071.92 326.1 1082.93 428.04" fill="#cfacd1" stroke="#a7228d" stroke-miterlimit="10"/><polygon points="969.98 337.12 879.06 450.07 868.04 348.14 969.98 337.12" fill="#cfacd1" stroke="#a7228d" stroke-miterlimit="10"/><polyline points="879.04 816.46 942.3 983.33 712.9 878.65" fill="#a7228d"/><polygon points="940.3 940.39 688.66 924.34 807.23 1057.71 940.3 940.39" fill="#cfacd1" stroke="#a7228d" stroke-miterlimit="10"/><ellipse cx="600.44" cy="241.09" rx="10.83" ry="9.85" transform="translate(-43.62 303.02) rotate(-27.37)" fill="#a7228d"/><line x1="627.67" y1="339.38" x2="601.15" y2="244.97" fill="none" stroke="#a7228d" stroke-miterlimit="10"/><rect x="1416.56" y="865.5" width="183.6" height="183.6" transform="translate(212.43 -272.39) rotate(11.1)" fill="#cfacd1" stroke="#a7228d" stroke-miterlimit="10"/><polyline points="1581.15 1064.21 1400.43 1029.54 1616.28 885.06" fill="#a7228d"/><ellipse cx="1315.29" cy="248.75" rx="51.54" ry="50.76" transform="translate(818.07 1491.57) rotate(-78.9)" fill="#a7228d"/><ellipse cx="1299.7" cy="245.69" rx="10.45" ry="10.29" transform="translate(808.48 1473.81) rotate(-78.9)" fill="#cfacd1" stroke="#a7228d" stroke-miterlimit="10"/><ellipse cx="1330.88" cy="251.8" rx="10.45" ry="10.29" transform="translate(827.66 1509.34) rotate(-78.9)" fill="#cfacd1" stroke="#a7228d" stroke-miterlimit="10"/><ellipse cx="628.96" cy="998.1" rx="38.57" ry="39.16" transform="translate(-549.12 935.42) rotate(-54.74)" fill="#a7228d"/><ellipse cx="621.99" cy="1007.96" rx="7.82" ry="7.94" transform="translate(-560.11 933.89) rotate(-54.74)" fill="#cfacd1" stroke="#a7228d" stroke-miterlimit="10"/><ellipse cx="635.93" cy="988.25" rx="7.82" ry="7.94" transform="translate(-538.13 936.94) rotate(-54.74)" fill="#cfacd1" stroke="#a7228d" stroke-miterlimit="10"/><path d="M995.73,927.77s-4.3,3.6-2.3,7.65c0,0,.94,1.74,4.1,1.09,0,0,4.92.34.96,4.65l-5.63,4.65-2.73,1.34s-2.71-10.78-2.13-16.91c0,0,1.12-5.85,10.23-7.25,0,0,6.84-1.12,8.69,5.48l3.79,15.11s-2.9-1.83-4.75-.96c0,0-3.22.37-4.36-3.27,0,0-.83-1.19-.08-3.67,0,0,.75-2.96-.43-6.31,0,0-1.14-3.64-5.37-1.61Z" fill="#a8228e"/><path d="M991.2,943.83s12.77,80.23,22.81,82.42c0,0,10.83,2.71,6.57-19.38,0,0-8.48-57.14-12.55-66.51" fill="none" stroke="#a8228e" stroke-miterlimit="10" stroke-width="2"/><circle cx="1015.47" cy="1021.84" r="4.46" fill="none" stroke="#a8228e" stroke-miterlimit="10" stroke-width="2"/><path d="M1442.72,161.48s-5.43,1.38-5.38,5.9c0,0,.09,1.98,3.22,2.76,0,0,4.28,2.44-1.15,4.6l-7.09,1.75-3.04.02s2.23-10.89,5.4-16.16c0,0,3.54-4.79,12.36-2.1,0,0,6.65,1.95,5.46,8.7l-3.12,15.26s-1.82-2.9-3.87-2.92c0,0-3.06-1.06-2.51-4.83,0,0-.23-1.43,1.52-3.34,0,0,1.96-2.35,2.34-5.87,0,0,.55-3.78-4.15-3.77Z" fill="#a8228e"/><path d="M1431.68,173.99s-23.23,77.85-15.13,84.17c0,0,8.59,7.13,14.31-14.63,0,0,17.09-55.18,17.48-65.39" fill="none" stroke="#a8228e" stroke-miterlimit="10" stroke-width="2"/><circle cx="1419.77" cy="254.82" r="4.46" fill="none" stroke="#a8228e" stroke-miterlimit="10" stroke-width="2"/><path d="M1472.34,185.32s-5.6.1-6.59,4.5c0,0-.36,1.95,2.5,3.43,0,0,3.61,3.36-2.17,4.22l-7.3.08-2.96-.67s4.67-10.09,8.97-14.49c0,0,4.55-3.85,12.51.79,0,0,6.03,3.43,3.32,9.72l-6.54,14.14s-1.11-3.24-3.1-3.73c0,0-2.74-1.73-1.34-5.28,0,0,.1-1.44,2.24-2.9,0,0,2.44-1.84,3.63-5.18,0,0,1.4-3.55-3.17-4.62Z" fill="#a8228e"/><path d="M1458.72,194.96s-40.48,70.44-34.04,78.46c0,0,6.72,8.91,17.29-10.95,0,0,29.3-49.79,32.02-59.63" fill="none" stroke="#a8228e" stroke-miterlimit="10" stroke-width="2"/><circle cx="1428.59" cy="270.9" r="4.46" fill="none" stroke="#a8228e" stroke-miterlimit="10" stroke-width="2"/><path d="M452.28,293.32s-.68,5.56,3.54,7.16c0,0,1.88.63,3.74-2,0,0,3.82-3.11,3.88,2.74l-.94,7.24-1.08,2.84s-9.34-6.02-13.11-10.89c0,0-3.18-5.04,2.52-12.28,0,0,4.23-5.49,10.09-1.94l13.09,8.44s-3.36.65-4.13,2.55c0,0-2.1,2.47-5.41.59,0,0-1.41-.3-2.56-2.62,0,0-1.48-2.67-4.62-4.31,0,0-3.32-1.88-5.02,2.5Z" fill="#a8228e"/><path d="M459.93,308.15s64.13,49.88,72.96,44.61c0,0,9.76-5.42-8.44-18.64,0,0-45.23-35.94-54.6-40" fill="none" stroke="#a8228e" stroke-miterlimit="10" stroke-width="2"/><circle cx="530.95" cy="348.54" r="4.46" fill="none" stroke="#a8228e" stroke-miterlimit="10" stroke-width="2"/></svg>