<?xml version="1.0" encoding="UTF-8"?><svg id="a" xmlns="http://www.w3.org/2000/svg" width="700" height="600" viewBox="0 0 700 600"><path d="M408.62,286.19l-1.17-7.13-1.34-118.66-.85-1.5s-.26-9.41,1.32-10.9c0,0,.97-.35,2.43.22,0,0,1.03,1.28.95,4.77l-.38,126.08-.96,7.11Z" fill="#92278f"/><path d="M407.06,159.37v-8.78c-.01-.39.34-.67.77-.63h0c.43.04.79.39.79.78v8.78c.01.39-.34.67-.77.63h0c-.43-.04-.79-.39-.79-.78Z" fill="#ddc0dc"/><path d="M407.61,286.33l-1.84-6.99-12.63-118-.99-1.41s-1.15-9.34.28-10.97c0,0,.94-.44,2.44-.01,0,0,1.15,1.18,1.4,4.66l11.62,125.55-.28,7.17Z" fill="#92278f"/><path d="M393.99,160.23l-.85-8.74c-.04-.39.29-.7.72-.7h0c.43,0,.82.31.86.7l.85,8.74c.04.39-.29.7-.72.7h0c-.43,0-.82-.31-.86-.7Z" fill="#ddc0dc"/><path d="M406.61,286.56l-2.5-6.78-23.8-116.26-1.12-1.31s-2.04-9.19-.77-10.95c0,0,.89-.53,2.43-.24,0,0,1.25,1.06,1.83,4.51l23.52,123.87.4,7.17Z" fill="#69c9ca"/><path d="M381.06,162.33l-1.68-8.61c-.07-.38.22-.73.65-.77h0c.43-.04.84.23.92.61l1.68,8.61c.07.38-.22.73-.65.77h0c-.43.04-.84-.23-.92-.61Z" fill="#ddc0dc"/><path d="M405.64,286.88l-3.13-6.51-34.75-113.47-1.24-1.19s-2.9-8.95-1.81-10.83c0,0,.84-.61,2.4-.47,0,0,1.35.94,2.25,4.31l35.2,121.07,1.08,7.1Z" fill="#69c9ca"/><path d="M368.38,165.65l-2.49-8.42c-.11-.37.15-.74.57-.83h0c.43-.08.86.15.97.52l2.49,8.42c.11.37-.15.74-.57.83h0c-.43.08-.86-.15-.97-.52Z" fill="#ddc0dc"/><path d="M404.71,287.3l-3.74-6.19-45.39-109.65-1.35-1.07s-3.74-8.63-2.83-10.61c0,0,.77-.68,2.34-.7,0,0,1.43.81,2.65,4.08l46.56,117.17,1.75,6.96Z" fill="#69c9ca"/><path d="M356.08,170.16l-3.28-8.14c-.14-.36.08-.75.49-.88h0c.42-.12.87.07,1.02.43l3.28,8.14c.14.36-.08.75-.49.88h0c-.42.12-.87-.07-1.02-.43Z" fill="#ddc0dc"/><path d="M403.82,287.8l-4.31-5.8-55.62-104.83-1.45-.94s-4.54-8.24-3.82-10.29c0,0,.71-.76,2.26-.92,0,0,1.5.67,3.03,3.81l57.49,112.21,2.41,6.76Z" fill="#69c9ca"/><path d="M344.27,175.82l-4.04-7.79c-.18-.34,0-.76.41-.92h0c.4-.16.88-.02,1.05.33l4.04,7.79c.18.34,0,.76-.41.92h0c-.4.16-.88.02-1.05-.33Z" fill="#ddc0dc"/><path d="M402.98,288.38l-4.84-5.37-65.34-99.06-1.53-.8s-5.31-7.77-4.79-9.88c0,0,.63-.82,2.17-1.13,0,0,1.56.52,3.38,3.5l67.91,106.23,3.04,6.5Z" fill="#69c9ca"/><path d="M333.04,182.58l-4.76-7.37c-.21-.33-.07-.76.32-.96h0c.38-.2.87-.1,1.08.23l4.76,7.37c.21.33.07.76-.32.96h0c-.38.2-.87.1-1.08-.23Z" fill="#ddc0dc"/><path d="M402.2,289.05l-5.33-4.88-74.47-92.4-1.6-.65s-6.02-7.23-5.7-9.38c0,0,.55-.88,2.05-1.33,0,0,1.6.37,3.7,3.16l77.71,99.29,3.64,6.18Z" fill="#fdc068"/><path d="M322.51,190.37l-5.44-6.89c-.24-.3-.14-.75.22-.98h0c.36-.24.86-.18,1.1.12l5.44,6.89c.24.3.14.75-.22.98h0c-.36.24-.86.18-1.1-.12Z" fill="#ddc0dc"/><path d="M401.49,289.78l-5.77-4.35-82.93-84.89-1.65-.49s-6.68-6.62-6.57-8.79c0,0,.46-.92,1.91-1.52,0,0,1.63.22,3.98,2.8l86.81,91.45,4.22,5.81Z" fill="#616c1d"/><path d="M312.77,199.13l-6.07-6.34c-.27-.28-.21-.73.13-1h0c.34-.27.84-.26,1.1.02l6.07,6.34c.27.28.21.73-.13,1h0c-.34.27-.84.26-1.1-.02Z" fill="#ddc0dc"/><path d="M400.85,290.58l-6.16-3.78-90.63-76.61-1.69-.33s-7.28-5.96-7.38-8.13c0,0,.37-.96,1.76-1.7,0,0,1.64.06,4.23,2.41l95.11,82.77,4.75,5.38Z" fill="#006fba"/><path d="M303.91,208.78l-6.65-5.73c-.29-.25-.28-.71.03-1.01h0c.31-.3.81-.34,1.1-.09l6.65,5.73c.29.25.28.71-.03,1.01h0c-.31.3-.81.34-1.1.09Z" fill="#ddc0dc"/><path d="M400.29,291.43l-6.49-3.18-97.51-67.64-1.71-.17s-7.82-5.24-8.12-7.39c0,0,.28-.99,1.59-1.86,0,0,1.64-.1,4.44,1.99l102.56,73.35,5.24,4.9Z" fill="#006fba"/><path d="M296.01,219.23l-7.16-5.07c-.32-.22-.34-.68-.06-1.01h0c.28-.33.77-.42,1.09-.19l7.16,5.07c.32.22.34.68.06,1.01h0c-.28.33-.77.42-1.09.19Z" fill="#ddc0dc"/><path d="M399.81,292.33l-6.76-2.55-103.5-58.06h-1.72s-8.28-4.48-8.78-6.59c0,0,.18-1.02,1.41-2,0,0,1.63-.25,4.61,1.56l109.07,63.25,5.68,4.38Z" fill="#006fba"/><path d="M289.13,230.39l-7.61-4.37c-.34-.19-.41-.64-.16-.99h0c.25-.35.73-.49,1.06-.29l7.61,4.37c.34.19.41.64.16.99h0c-.25.35-.73.49-1.06.29Z" fill="#ddc0dc"/><path d="M399.42,293.28l-6.97-1.89-108.55-47.95-1.72.16s-8.67-3.66-9.37-5.72c0,0,.09-1.03,1.21-2.12,0,0,1.59-.41,4.74,1.12l114.59,52.59,6.07,3.82Z" fill="#006fba"/><path d="M283.35,242.15l-7.99-3.62c-.35-.16-.47-.6-.25-.98h0c.21-.38.68-.55,1.03-.39l7.99,3.62c.35.16.47.6.25.98h0c-.21.38-.68.55-1.03.39Z" fill="#ddc0dc"/><path d="M399.12,294.26l-7.12-1.22-112.62-37.4-1.69.32s-8.98-2.82-9.87-4.8c0,0-.01-1.03,1-2.23,0,0,1.55-.56,4.82.66l119.08,41.45,6.41,3.23Z" fill="#ef4136"/><path d="M278.71,254.4l-8.3-2.85c-.37-.13-.52-.55-.34-.95h0c.18-.4.62-.62.99-.49l8.3,2.85c.37.13.52.55.34.95h0c-.18.4-.62.62-.99.49Z" fill="#ddc0dc"/><path d="M398.92,295.26l-7.21-.54-115.67-26.52-1.65.48s-9.2-1.95-10.28-3.84c0,0-.11-1.03.79-2.31,0,0,1.49-.7,4.86.2l122.48,29.93,6.69,2.6Z" fill="#ef4136"/><path d="M275.27,267.04l-8.54-2.04c-.38-.09-.57-.5-.43-.91h0c.14-.41.56-.67.94-.58l8.54,2.04c.38.09.57.5.43.91h0c-.14.41-.56.67-.94.58Z" fill="#ddc0dc"/><path d="M398.81,296.28l-7.23.15-117.67-15.39-1.6.63s-9.35-1.07-10.6-2.84c0,0-.21-1.01.56-2.38,0,0,1.42-.84,4.86-.27l124.77,18.14,6.91,1.95Z" fill="#a3ae3a"/><path d="M273.03,279.95l-8.69-1.22c-.38-.05-.62-.44-.52-.87h0c.1-.42.49-.72.88-.67l8.69,1.22c.38.05.62.44.52.87h0c-.1.42-.49.72-.88.67Z" fill="#ddc0dc"/><path d="M398.8,297.3l-7.18.84-118.6-4.12-1.53.78s-9.41-.18-10.83-1.82c0,0-.3-.99.33-2.42,0,0,1.33-.97,4.81-.73l125.93,6.18,7.06,1.29Z" fill="#ec008c"/><path d="M272.04,293.01l-8.77-.39c-.39-.02-.65-.38-.6-.81h0c.06-.43.42-.77.81-.75l8.77.39c.39.02.65.38.6.81h0c-.06.43-.42.77-.81.75Z" fill="#ddc0dc"/><path d="M398.89,298.32l-7.07,1.52-118.45,7.18-1.45.93s-9.38.72-10.95-.78c0,0-.4-.95.1-2.44,0,0,1.23-1.09,4.72-1.18l125.95-5.83,7.15.61Z" fill="#ec008c"/><path d="M272.3,306.11l-8.77.45c-.39.02-.69-.32-.67-.75h0c.02-.43.35-.8.74-.82l8.77-.45c.39-.02.69.32.67.75h0c-.02.43-.35.8-.74.82Z" fill="#ddc0dc"/><path d="M399.07,299.32l-6.89,2.18-117.23,18.42-1.36,1.06s-9.27,1.61-10.98.26c0,0-.48-.91-.13-2.44,0,0,1.12-1.2,4.59-1.62l124.82-17.79,7.18-.07Z" fill="#ec008c"/><path d="M273.8,319.13l-8.68,1.28c-.38.06-.72-.25-.74-.68h0c-.02-.43.27-.83.65-.89l8.68-1.28c.38-.06.72.25.74.68h0c.02.43-.27.83-.65.89Z" fill="#ddc0dc"/><path d="M399.35,300.31l-6.65,2.83-114.95,29.49-1.25,1.19s-9.08,2.48-10.9,1.3c0,0-.57-.86-.36-2.42,0,0,1-1.31,4.41-2.05l122.57-29.58,7.14-.75Z" fill="#ec008c"/><path d="M276.53,331.94l-8.52,2.1c-.38.09-.74-.18-.8-.61h0c-.06-.43.19-.86.57-.95l8.52-2.1c.38-.09.74.18.8.61h0c.06.43-.19.86-.57.95Z" fill="#ddc0dc"/><path d="M399.72,301.26l-6.35,3.45-111.62,40.29-1.13,1.3s-8.8,3.34-10.73,2.34c0,0-.65-.8-.59-2.37,0,0,.87-1.39,4.19-2.46l119.2-41.11,7.03-1.43Z" fill="#ec008c"/><path d="M280.47,344.44l-8.28,2.9c-.37.13-.75-.11-.86-.53h0c-.1-.42.11-.87.47-1l8.28-2.9c.37-.13.75.11.86.53h0c.1.42-.11.87-.47,1Z" fill="#ddc0dc"/><path d="M400.19,302.17l-6,4.04-107.28,50.73-1,1.4s-8.44,4.16-10.46,3.35c0,0-.72-.74-.81-2.3,0,0,.74-1.47,3.94-2.85l114.74-52.26,6.87-2.09Z" fill="#ec008c"/><path d="M285.58,356.5l-7.97,3.67c-.35.16-.76-.04-.9-.45h0c-.14-.41.02-.88.38-1.04l7.97-3.67c.35-.16.76.04.9.45h0c.14.41-.02.88-.38,1.04Z" fill="#ddc0dc"/><path d="M400.73,303.04l-5.58,4.59-101.97,60.71-.87,1.49s-8.01,4.94-10.09,4.33c0,0-.79-.67-1.03-2.22,0,0,.59-1.53,3.65-3.21l109.25-62.95,6.64-2.74Z" fill="#ec008c"/><path d="M291.81,368.03l-7.58,4.42c-.33.19-.76.03-.94-.36h0c-.18-.39-.06-.87.28-1.07l7.58-4.42c.33-.19.76-.03.94.36h0c.18.39.06.87-.28,1.07Z" fill="#ddc0dc"/><path d="M401.35,303.84l-5.12,5.1-95.73,70.14-.72,1.57s-7.5,5.68-9.63,5.27c0,0-.85-.59-1.24-2.11,0,0,.44-1.58,3.33-3.55l102.76-73.05,6.34-3.36Z" fill="#ec008c"/><path d="M299.12,378.9l-7.13,5.12c-.31.23-.75.1-.97-.27h0c-.22-.37-.14-.86.17-1.09l7.13-5.12c.31-.23.75-.1.97.27h0c.22.37.14.86-.17,1.09Z" fill="#ddc0dc"/><path d="M402.05,304.59l-4.61,5.56-88.62,78.93-.57,1.63s-6.92,6.37-9.09,6.16c0,0-.9-.51-1.43-1.98,0,0,.29-1.62,2.98-3.85l95.35-82.5,6-3.94Z" fill="#ec008c"/><path d="M307.42,389.04l-6.61,5.77c-.29.25-.74.18-.99-.18h0c-.25-.35-.22-.85.07-1.1l6.61-5.77c.29-.25.74-.18.99.18h0c.25.35.22.85-.07,1.1Z" fill="#ddc0dc"/><path d="M402.82,305.27l-4.06,5.98-80.71,87-.41,1.67s-6.29,7-8.46,7c0,0-.95-.42-1.61-1.84,0,0,.14-1.64,2.6-4.11l87.06-91.2,5.59-4.5Z" fill="#ec008c"/><path d="M316.65,398.33l-6.03,6.38c-.27.28-.72.24-1-.08h0c-.29-.33-.3-.82-.04-1.1l6.03-6.38c.27-.28.72-.24,1,.08h0c.29.33.3.82.04,1.1Z" fill="#ddc0dc"/><path d="M403.65,305.87l-3.48,6.34-72.06,94.29-.25,1.7s-5.59,7.57-7.76,7.77c0,0-.98-.33-1.78-1.67,0,0-.02-1.64,2.19-4.34l77.99-99.07,5.14-5.01Z" fill="#ec008c"/><path d="M326.73,406.71l-5.4,6.92c-.24.31-.69.31-1.01.01h0c-.32-.3-.38-.79-.14-1.1l5.4-6.92c.24-.31.69-.31,1.01-.01h0c.32.3.38.79.14,1.1Z" fill="#ddc0dc"/><path d="M404.53,306.39l-2.86,6.64-62.76,100.72-.09,1.72s-4.85,8.06-6.98,8.47c0,0-1.01-.23-1.93-1.5,0,0-.18-1.64,1.77-4.53l68.21-106.04,4.64-5.48Z" fill="#ec008c"/><path d="M337.55,414.09l-4.71,7.4c-.21.33-.66.38-1,.11h0c-.34-.27-.45-.75-.25-1.08l4.71-7.4c.21-.33.66-.38,1-.11h0c.34.27.45.75.25,1.08Z" fill="#ddc0dc"/><path d="M405.46,306.82l-2.21,6.88-52.9,106.23.08,1.72s-4.06,8.49-6.14,9.1c0,0-1.02-.13-2.07-1.31,0,0-.33-1.61,1.33-4.68l57.81-112.05,4.1-5.89Z" fill="#ec008c"/><path d="M349.03,420.41l-3.99,7.82c-.18.34-.62.44-.99.21h0c-.37-.23-.52-.7-.35-1.05l3.99-7.82c.18-.34.62-.44.99-.21h0c.37.23.52.7.35,1.05Z" fill="#ddc0dc"/><path d="M406.42,307.16l-1.55,7.06-42.55,110.78.24,1.71s-3.23,8.84-5.25,9.64c0,0-1.03-.04-2.18-1.1,0,0-.48-1.57.88-4.78l46.89-117.04,3.52-6.26Z" fill="#ec008c"/><path d="M361.06,425.6l-3.23,8.16c-.14.36-.58.49-.96.3h0c-.39-.2-.59-.65-.44-1.01l3.23-8.16c.14-.36.58-.49.96-.3h0c.39.2.59.65.44,1.01Z" fill="#ddc0dc"/><path d="M407.41,307.41l-.87,7.17-31.81,114.33.4,1.67s-2.38,9.1-4.31,10.1c0,0-1.03.06-2.28-.89,0,0-.63-1.52.42-4.85l35.54-120.97,2.91-6.56Z" fill="#ec008c"/><path d="M373.53,429.63l-2.44,8.43c-.11.37-.53.55-.93.39h0c-.4-.16-.65-.59-.54-.96l2.44-8.43c.11-.37.53-.55.93-.39h0c.4.16.65.59.54.96Z" fill="#ddc0dc"/><path d="M408.42,307.56l-.18,7.22-20.79,116.84.56,1.63s-1.5,9.29-3.33,10.46c0,0-1.02.16-2.35-.67,0,0-.77-1.45-.04-4.86l23.87-123.81,2.27-6.81Z" fill="#ec008c"/><path d="M386.32,432.46l-1.62,8.63c-.07.38-.47.59-.89.48h0c-.42-.12-.7-.53-.63-.91l1.62-8.63c.07-.38.47-.59.89-.48h0c.42.12.7.53.63.91Z" fill="#ddc0dc"/><path d="M409.44,307.62l.5,7.21-9.58,118.28.71,1.57s-.61,9.39-2.32,10.73c0,0-1,.26-2.4-.44,0,0-.91-1.37-.5-4.84l11.98-125.51,1.61-6.99Z" fill="#ec008c"/><path d="M399.32,434.05l-.79,8.74c-.04.39-.41.64-.84.56h0c-.43-.08-.75-.46-.71-.84l.79-8.74c.04-.39.41-.64.84-.56h0c.43.08.75.46.71.84Z" fill="#ddc0dc"/><path d="M410.46,307.58l1.19,7.13,1.72,118.66.86,1.49s.29,9.4-1.29,10.9c0,0-.97.35-2.43-.21,0,0-1.03-1.28-.96-4.77l-.02-126.09.94-7.12Z" fill="#ec008c"/><path d="M412.42,434.4l.04,8.78c0,.39-.35.67-.78.63h0c-.43-.04-.79-.39-.79-.77l-.04-8.78c0-.39.35-.67.78-.63h0c.43.04.79.39.79.77Z" fill="#ddc0dc"/><path d="M411.48,307.44l1.86,6.98,13,117.96,1,1.4s1.18,9.33-.24,10.98c0,0-.93.44-2.44.02,0,0-1.15-1.18-1.41-4.66l-12.02-125.51.26-7.17Z" fill="#ec008c"/><path d="M425.49,433.5l.88,8.73c.04.39-.28.7-.72.71h0c-.43,0-.82-.31-.86-.69l-.88-8.73c-.04-.39.28-.7.72-.71h0c.43,0,.82.31.86.69Z" fill="#ddc0dc"/><path d="M412.47,307.21l2.52,6.77,24.16,116.19,1.13,1.3s2.06,9.18.8,10.95c0,0-.89.53-2.43.25,0,0-1.26-1.06-1.85-4.5l-23.9-123.8-.43-7.16Z" fill="#ec008c"/><path d="M438.42,431.36l1.7,8.61c.08.38-.22.73-.65.77h0c-.43.04-.85-.23-.92-.61l-1.7-8.61c-.08-.38.22-.73.65-.77h0c.43-.04.85.23.92.61Z" fill="#ddc0dc"/><path d="M413.44,306.88l3.15,6.5,35.11,113.36,1.25,1.19s2.93,8.94,1.84,10.82c0,0-.83.61-2.4.48,0,0-1.35-.94-2.27-4.3l-35.58-120.96-1.1-7.09Z" fill="#ec008c"/><path d="M451.08,428l2.51,8.41c.11.37-.15.74-.57.83h0c-.43.09-.86-.15-.97-.52l-2.51-8.41c-.11-.37.15-.74.57-.83h0c.43-.09.86.15.97.52Z" fill="#ddc0dc"/><path d="M414.37,306.46l3.75,6.18,45.74,109.5,1.35,1.07s3.77,8.62,2.86,10.6c0,0-.77.69-2.34.71,0,0-1.44-.8-2.67-4.07l-46.92-117.03-1.77-6.95Z" fill="#ec008c"/><path d="M463.37,423.45l3.3,8.13c.15.36-.07.75-.49.88h0c-.42.13-.87-.07-1.02-.42l-3.3-8.13c-.15-.36.07-.75.49-.88h0c.42-.13.87.07,1.02.42Z" fill="#ddc0dc"/><path d="M415.26,305.96l4.33,5.79,55.95,104.65,1.45.93s4.57,8.23,3.86,10.28c0,0-.7.76-2.26.93,0,0-1.51-.66-3.04-3.8l-57.85-112.03-2.43-6.75Z" fill="#ec008c"/><path d="M475.17,417.75l4.06,7.78c.18.34,0,.76-.4.92h0c-.4.16-.88.02-1.06-.32l-4.06-7.78c-.18-.34,0-.76.4-.92h0c.4-.16.88-.02,1.06.32Z" fill="#ddc0dc"/><path d="M416.1,305.37l4.86,5.35,65.65,98.86,1.53.79s5.33,7.75,4.82,9.86c0,0-.63.82-2.16,1.14,0,0-1.56-.52-3.39-3.49l-68.24-106.02-3.06-6.49Z" fill="#ec008c"/><path d="M486.37,410.96l4.78,7.36c.21.32.07.76-.31.96h0c-.38.2-.87.1-1.08-.22l-4.78-7.36c-.21-.32-.07-.76.31-.96h0c.38-.2.87-.1,1.08.22Z" fill="#ddc0dc"/><path d="M416.88,304.71l5.34,4.87,74.76,92.16,1.6.64s6.04,7.21,5.73,9.36c0,0-.55.88-2.05,1.34,0,0-1.6-.37-3.71-3.15l-78.02-99.05-3.66-6.17Z" fill="#ec008c"/><path d="M496.88,403.13l5.46,6.87c.24.3.14.75-.22.98h0c-.36.24-.86.18-1.1-.12l-5.46-6.87c-.24-.3-.14-.75.22-.98h0c.36-.24.86-.18,1.1.12Z" fill="#ddc0dc"/><path d="M417.59,303.97l5.78,4.34,83.19,84.63,1.65.49s6.7,6.6,6.6,8.77c0,0-.46.93-1.91,1.53,0,0-1.63-.21-3.99-2.78l-87.09-91.17-4.23-5.8Z" fill="#ec008c"/><path d="M506.59,394.34l6.09,6.32c.27.28.21.73-.13,1h0c-.34.27-.84.26-1.1-.01l-6.09-6.32c-.27-.28-.21-.73.13-1h0c.34-.27.84-.26,1.1.01Z" fill="#ddc0dc"/><path d="M418.23,303.17l6.17,3.77,90.87,76.33,1.69.33s7.3,5.94,7.4,8.11c0,0-.37.96-1.75,1.7,0,0-1.64-.06-4.24-2.39l-95.37-82.47-4.77-5.37Z" fill="#ec008c"/><path d="M515.42,384.66l6.66,5.71c.29.25.28.7-.03,1.01h0c-.31.3-.81.34-1.1.09l-6.66-5.71c-.29-.25-.28-.7.03-1.01h0c.31-.3.81-.34,1.1-.09Z" fill="#ddc0dc"/><path d="M418.78,302.32l6.5,3.16,97.72,67.34,1.71.16s7.83,5.21,8.14,7.36c0,0-.28,1-1.58,1.86,0,0-1.64.1-4.44-1.98l-102.79-73.02-5.26-4.89Z" fill="#92278f"/><path d="M523.29,374.19l7.18,5.05c.32.22.35.68.06,1.01h0c-.28.33-.77.42-1.09.2l-7.18-5.05c-.32-.22-.35-.68-.06-1.01h0c.28-.33.77-.42,1.09-.2Z" fill="#ddc0dc"/><path d="M419.26,301.41l6.77,2.53,103.68,57.73h1.72s8.29,4.45,8.81,6.56c0,0-.18,1.02-1.4,2,0,0-1.62.26-4.61-1.55l-109.27-62.91-5.7-4.37Z" fill="#92278f"/><path d="M530.13,363.01l7.63,4.34c.34.19.41.64.16.99h0c-.25.36-.73.49-1.06.3l-7.63-4.34c-.34-.19-.41-.64-.16-.99h0c.25-.36.73-.49,1.06-.3Z" fill="#ddc0dc"/><path d="M419.64,300.47l6.98,1.87,108.7,47.61,1.71-.16s8.68,3.64,9.39,5.69c0,0-.08,1.03-1.2,2.13,0,0-1.59.41-4.74-1.1l-114.76-52.23-6.09-3.8Z" fill="#92278f"/><path d="M535.87,351.23l8,3.6c.35.16.47.6.25.97h0c-.21.38-.68.56-1.03.4l-8-3.6c-.35-.16-.47-.6-.25-.97h0c.21-.38.68-.56,1.03-.4Z" fill="#ddc0dc"/><path d="M419.94,299.49l7.13,1.2,112.74,37.05,1.69-.33s8.99,2.79,9.89,4.77c0,0,.02,1.03-1,2.23,0,0-1.55.56-4.82-.64l-119.21-41.07-6.42-3.21Z" fill="#92278f"/><path d="M540.47,338.97l8.31,2.82c.37.12.52.55.35.95h0c-.18.4-.62.62-.99.49l-8.31-2.82c-.37-.12-.52-.55-.35-.95h0c.18-.4.62-.62.99-.49Z" fill="#ddc0dc"/><path d="M420.14,298.48l7.21.52,115.75,26.15,1.65-.48s9.21,1.93,10.3,3.81c0,0,.11,1.03-.78,2.32,0,0-1.49.71-4.86-.18l-122.58-29.54-6.7-2.58Z" fill="#92278f"/><path d="M543.88,326.32l8.54,2.02c.38.09.57.5.43.91h0c-.14.41-.56.67-.94.59l-8.54-2.02c-.38-.09-.57-.5-.43-.91h0c.14-.41.56-.67.94-.59Z" fill="#ddc0dc"/><path d="M420.24,297.47l7.22-.17,117.72,15.02,1.6-.64s9.35,1.04,10.61,2.81c0,0,.21,1.01-.55,2.38,0,0-1.41.84-4.86.28l-124.83-17.75-6.91-1.93Z" fill="#92278f"/><path d="M546.07,313.4l8.69,1.2c.38.05.62.44.52.86h0c-.1.42-.49.72-.88.67l-8.69-1.2c-.38-.05-.62-.44-.52-.86h0c.1-.42.49-.72.88-.67Z" fill="#ddc0dc"/><path d="M420.25,296.45l7.18-.86,118.61,3.75,1.53-.79s9.41.15,10.83,1.79c0,0,.31.99-.33,2.42,0,0-1.33.97-4.81.74l-125.95-5.79-7.06-1.27Z" fill="#92278f"/><path d="M547.02,300.33l8.77.36c.39.02.66.38.6.81h0c-.06.43-.42.77-.81.75l-8.77-.36c-.39-.02-.66-.38-.6-.81h0c.06-.43.42-.77.81-.75Z" fill="#ddc0dc"/><path d="M420.16,295.43l7.06-1.54,118.43-7.55,1.45-.93s9.38-.75,10.95.75c0,0,.4.95-.09,2.44,0,0-1.23,1.1-4.72,1.2l-125.93,6.22-7.15-.59Z" fill="#92278f"/><path d="M546.73,287.23l8.76-.47c.39-.02.69.32.67.75h0c-.02.43-.35.8-.73.83l-8.76.47c-.39.02-.69-.32-.67-.75h0c.02-.43.35-.8.73-.83Z" fill="#ddc0dc"/><path d="M419.97,294.42l6.88-2.2,117.17-18.79,1.35-1.06s9.27-1.64,10.97-.3c0,0,.49.91.14,2.44,0,0-1.12,1.21-4.58,1.64l-124.77,18.18-7.18.09Z" fill="#92278f"/><path d="M545.19,274.22l8.68-1.3c.38-.06.72.25.74.68h0c.02.43-.27.83-.65.89l-8.68,1.3c-.38.06-.72-.25-.74-.68h0c-.02-.43.27-.83.65-.89Z" fill="#ddc0dc"/><path d="M419.69,293.44l6.64-2.85,114.86-29.85,1.25-1.19s9.07-2.51,10.9-1.34c0,0,.57.86.37,2.42,0,0-1,1.31-4.4,2.07l-122.47,29.97-7.14.78Z" fill="#92278f"/><path d="M542.41,261.42l8.52-2.12c.38-.09.74.18.8.61h0c.07.43-.19.86-.56.95l-8.52,2.12c-.38.09-.74-.18-.8-.61h0c-.07-.43.19-.86.56-.95Z" fill="#ddc0dc"/><path d="M419.32,292.49l6.34-3.47,111.49-40.64,1.13-1.3s8.79-3.36,10.72-2.37c0,0,.65.8.6,2.37,0,0-.87,1.4-4.19,2.48l-119.07,41.48-7.03,1.45Z" fill="#92278f"/><path d="M538.44,248.93l8.27-2.93c.36-.13.75.11.86.53h0c.11.42-.11.87-.47,1l-8.27,2.93c-.36.13-.75-.11-.86-.53h0c-.11-.42.11-.87.47-1Z" fill="#ddc0dc"/><path d="M418.85,291.58l5.98-4.05,107.12-51.07,1-1.4s8.43-4.19,10.45-3.38c0,0,.72.74.82,2.3,0,0-.73,1.47-3.93,2.86l-114.58,52.62-6.86,2.11Z" fill="#92278f"/><path d="M533.29,236.88l7.96-3.7c.35-.16.76.04.9.45h0c.15.41-.02.88-.37,1.04l-7.96,3.7c-.35.16-.76-.04-.9-.45h0c-.15-.41.02-.88.37-1.04Z" fill="#ddc0dc"/><path d="M418.3,290.71l5.57-4.6,101.78-61.03.86-1.49s7.99-4.97,10.08-4.36c0,0,.79.66,1.04,2.21,0,0-.59,1.54-3.64,3.23l-109.05,63.29-6.63,2.76Z" fill="#92278f"/><path d="M527.02,225.38l7.57-4.44c.33-.2.76-.03.94.36h0c.18.39.06.87-.27,1.07l-7.57,4.44c-.33.2-.76.03-.94-.36h0c-.18-.39-.06-.87.27-1.07Z" fill="#ddc0dc"/><path d="M417.68,289.91l5.11-5.11,95.51-70.44.71-1.57s7.48-5.71,9.62-5.3c0,0,.85.59,1.24,2.1,0,0-.44,1.59-3.32,3.56l-102.53,73.38-6.33,3.38Z" fill="#92278f"/><path d="M519.68,214.53l7.11-5.14c.31-.23.75-.11.97.27h0c.22.37.14.86-.17,1.09l-7.11,5.14c-.31.23-.75.11-.97-.27h0c-.22-.37-.14-.86.17-1.09Z" fill="#ddc0dc"/><path d="M416.98,289.16l4.6-5.58,88.37-79.21.56-1.63s6.9-6.39,9.07-6.19c0,0,.9.5,1.44,1.98,0,0-.29,1.62-2.96,3.86l-95.09,82.8-5.98,3.96Z" fill="#92278f"/><path d="M511.34,204.42l6.59-5.79c.29-.26.74-.18.99.17h0c.25.35.23.85-.07,1.1l-6.59,5.79c-.29.26-.74.18-.99-.17h0c-.25-.35-.23-.85.07-1.1Z" fill="#ddc0dc"/><path d="M416.21,288.49l4.05-5.99,80.43-87.25.4-1.67s6.27-7.02,8.44-7.02c0,0,.95.41,1.62,1.83,0,0-.13,1.64-2.58,4.12l-86.78,91.47-5.58,4.51Z" fill="#92278f"/><path d="M502.08,195.15l6.01-6.39c.27-.28.72-.25,1,.08h0c.29.32.31.82.04,1.1l-6.01,6.39c-.27.28-.72.25-1-.08h0c-.29-.32-.31-.82-.04-1.1Z" fill="#ddc0dc"/><path d="M415.38,287.89l3.46-6.35,71.77-94.51.24-1.71s5.57-7.58,7.73-7.79c0,0,.98.32,1.79,1.67,0,0,.03,1.64-2.18,4.35l-77.68,99.31-5.13,5.02Z" fill="#92278f"/><path d="M491.98,186.81l5.38-6.94c.24-.31.69-.31,1.01-.02h0c.32.3.38.79.14,1.09l-5.38,6.94c-.24.31-.69.31-1.01.02h0c-.32-.3-.38-.79-.14-1.09Z" fill="#ddc0dc"/><path d="M414.49,287.38l2.84-6.65,62.45-100.91.08-1.72s4.82-8.08,6.96-8.49c0,0,1.01.23,1.94,1.49,0,0,.18,1.63-1.76,4.54l-67.88,106.26-4.62,5.49Z" fill="#92278f"/><path d="M481.13,179.46l4.69-7.42c.21-.33.66-.38,1-.11h0c.34.26.46.75.25,1.08l-4.69,7.42c-.21.33-.66.38-1,.11h0c-.34-.26-.46-.75-.25-1.08Z" fill="#ddc0dc"/><path d="M413.57,286.95l2.19-6.89,52.56-106.4-.08-1.72s4.03-8.5,6.12-9.12c0,0,1.03.13,2.07,1.3,0,0,.34,1.61-1.32,4.68l-57.46,112.23-4.08,5.9Z" fill="#92278f"/><path d="M469.64,173.18l3.96-7.83c.17-.35.62-.44.99-.21h0c.37.23.52.7.35,1.05l-3.96,7.83c-.17.35-.62.44-.99.21h0c-.37-.23-.52-.7-.35-1.05Z" fill="#ddc0dc"/><path d="M412.6,286.61l1.53-7.06,42.2-110.91-.25-1.7s3.2-8.85,5.22-9.66c0,0,1.03.03,2.18,1.1,0,0,.49,1.57-.87,4.79l-46.52,117.19-3.5,6.27Z" fill="#92278f"/><path d="M457.59,168.02l3.2-8.17c.14-.36.57-.5.96-.3h0c.39.19.59.65.45,1.01l-3.2,8.17c-.14.36-.57.5-.96.3h0c-.39-.19-.59-.65-.45-1.01Z" fill="#ddc0dc"/><path d="M411.61,286.36l.85-7.18,31.46-114.43-.41-1.67s2.35-9.11,4.28-10.11c0,0,1.03-.07,2.28.88,0,0,.64,1.52-.41,4.85l-35.16,121.08-2.89,6.57Z" fill="#92278f"/><path d="M445.11,164.03l2.41-8.44c.11-.37.52-.55.93-.39h0c.4.16.65.59.54.96l-2.41,8.44c-.11.37-.52.55-.93.39h0c-.4-.16-.65-.59-.54-.96Z" fill="#ddc0dc"/><path d="M410.6,286.21l.16-7.23,20.42-116.9-.57-1.63s1.47-9.29,3.3-10.47c0,0,1.02-.16,2.35.66,0,0,.78,1.45.06,4.86l-23.48,123.88-2.25,6.82Z" fill="#92278f"/><path d="M432.31,161.25l1.59-8.63c.07-.38.47-.6.89-.48h0c.42.12.7.53.63.91l-1.59,8.63c-.07.38-.47.6-.89.48h0c-.42-.12-.7-.53-.63-.91Z" fill="#ddc0dc"/><path d="M409.58,286.16l-.53-7.21,9.21-118.31-.72-1.57s.58-9.39,2.29-10.74c0,0,1-.26,2.4.44,0,0,.91,1.37.52,4.84l-11.58,125.55-1.59,7Z" fill="#92278f"/><path d="M419.3,159.7l.77-8.74c.03-.39.41-.64.84-.56h0c.43.08.75.46.71.84l-.77,8.74c-.03.39-.41.64-.84.56h0c-.43-.08-.75-.46-.71-.84Z" fill="#ddc0dc"/><path d="M127.73,449c-.4,0-.7-.08-.92-.23-.22-.15-.37-.34-.45-.56-.09-.22-.13-.44-.13-.67v-1.86h-5.57c-.38,0-.7-.07-.96-.22-.26-.14-.45-.34-.57-.58-.13-.24-.19-.5-.21-.78,0-.26.04-.52.12-.76.08-.25.2-.49.36-.73.17-.29.39-.64.65-1.05s.55-.86.85-1.35c.3-.49.62-.99.95-1.51.33-.52.65-1.03.97-1.53s.62-.98.9-1.42c.28-.44.54-.84.76-1.18.17-.26.36-.47.55-.63.2-.16.45-.27.77-.33.32-.07.72-.1,1.21-.1.59,0,1.05.09,1.36.26.32.18.54.42.66.75.12.32.19.7.19,1.13v7.57h1.09c.42,0,.73.12.94.35s.31.51.31.82c0,.38-.1.69-.31.92s-.51.35-.92.35h-1.11v1.92c0,.22-.04.44-.12.67-.08.22-.22.4-.43.53-.21.13-.52.2-.93.2ZM126.29,443.23v-5.2l.08-1.86c-.11.21-.22.42-.35.65s-.24.43-.35.62-.2.36-.3.52c-.21.37-.46.78-.74,1.24-.28.46-.57.93-.87,1.41-.3.48-.58.95-.86,1.4-.28.45-.53.86-.75,1.23h4.13Z" fill="#a8228e"/><path d="M138.16,433.5c1.32,0,2.4.27,3.24.81.84.54,1.47,1.31,1.87,2.3.4.99.6,2.14.6,3.44s-.2,2.45-.6,3.43c-.4.98-1.02,1.74-1.87,2.28s-1.92.8-3.24.8-2.4-.27-3.24-.8c-.84-.54-1.47-1.29-1.87-2.28-.4-.98-.6-2.12-.6-3.43s.2-2.46.6-3.44c.4-.99,1.02-1.75,1.87-2.3.84-.54,1.92-.81,3.24-.81ZM138.16,435.93c-.54,0-.98.11-1.32.32-.34.22-.61.51-.8.89-.19.38-.32.82-.4,1.31-.07.5-.11,1.03-.11,1.59s.04,1.11.11,1.6c.07.49.2.92.4,1.29.19.37.46.67.8.88.34.22.78.32,1.32.32s.96-.11,1.3-.32.61-.51.8-.88c.19-.37.32-.8.4-1.29.07-.49.11-1.02.11-1.6s-.04-1.09-.11-1.59c-.07-.5-.2-.94-.4-1.31-.19-.38-.46-.68-.8-.89s-.78-.32-1.3-.32Z" fill="#a8228e"/><path d="M146.52,446.61c-.55,0-.98-.14-1.27-.43-.3-.29-.44-.71-.44-1.28s.15-1.01.44-1.29.72-.43,1.27-.43c.54-.01.96.13,1.27.42.3.29.45.73.45,1.3s-.15,1-.45,1.29c-.3.28-.72.42-1.27.42Z" fill="#a8228e"/><path d="M154.01,448.55c-.57,0-1.13-.05-1.69-.16-.56-.1-1.04-.27-1.43-.49-.34-.18-.62-.41-.84-.68-.22-.27-.33-.57-.33-.91-.01-.41.1-.75.35-1.03s.57-.42.98-.42c.3,0,.55.06.75.18.2.12.38.24.55.37.15.12.36.25.65.39.29.14.72.22,1.3.22.68,0,1.3-.21,1.86-.62.55-.41.99-.99,1.3-1.73.32-.74.47-1.59.45-2.56-.12.22-.28.46-.47.71-.2.25-.44.48-.73.71-.29.22-.64.4-1.05.54-.41.14-.88.21-1.42.21-.95,0-1.81-.19-2.57-.57-.76-.38-1.37-.92-1.81-1.63-.44-.71-.66-1.55-.66-2.53.01-.97.26-1.83.73-2.59.47-.76,1.13-1.36,1.98-1.79.84-.44,1.82-.66,2.94-.66,1,0,1.87.18,2.61.55.74.37,1.35.88,1.85,1.54.49.66.86,1.44,1.11,2.33.24.9.37,1.87.37,2.91,0,.86-.1,1.68-.31,2.46-.2.78-.5,1.49-.88,2.12-.38.63-.85,1.19-1.4,1.66-.55.47-1.18.83-1.89,1.09-.71.25-1.47.38-2.3.38ZM154.75,441.01c.32,0,.62-.07.92-.2s.57-.3.82-.51c.25-.21.47-.44.65-.7.18-.25.31-.51.38-.75-.04-.55-.17-1.04-.4-1.47s-.53-.77-.91-1.02c-.38-.25-.83-.37-1.34-.37s-.97.1-1.36.29-.7.48-.92.86c-.22.38-.33.84-.33,1.39,0,.73.22,1.33.66,1.79.44.46,1.05.69,1.83.69Z" fill="#a8228e"/><path d="M167.08,446.59c-.46,0-.84-.13-1.14-.39s-.44-.64-.44-1.14v-6.71c0-.3.02-.6.06-.91.04-.31.11-.64.2-1.01-.2.22-.39.45-.57.69-.18.24-.4.46-.63.69-.18.18-.39.33-.62.45-.23.12-.5.18-.8.18-.47,0-.85-.16-1.13-.49-.28-.33-.42-.7-.42-1.12.01-.41.14-.75.4-1.02.25-.27.6-.46,1.05-.55.37-.07.75-.17,1.16-.3.4-.14.79-.34,1.16-.6.21-.16.42-.3.61-.42.2-.12.41-.23.62-.3s.45-.12.7-.12c.5,0,.85.14,1.06.43.2.29.31.63.31,1.04v10.09c0,.5-.14.88-.42,1.14-.28.26-.66.39-1.14.39Z" fill="#a8228e"/><path d="M174.45,439.4c-1.15,0-2.07-.34-2.78-1.03-.71-.69-1.06-1.64-1.06-2.87s.35-2.2,1.06-2.87c.7-.67,1.63-1.01,2.78-1.01s2.05.34,2.74,1.01,1.04,1.63,1.04,2.87-.35,2.21-1.04,2.89c-.69.69-1.6,1.02-2.74,1.01ZM174.45,437.56c.54,0,.96-.18,1.25-.54.29-.36.44-.87.44-1.54s-.15-1.15-.44-1.5c-.29-.35-.71-.52-1.25-.52-.57,0-1,.17-1.29.52s-.44.85-.44,1.5.15,1.18.44,1.54c.3.36.73.54,1.29.54ZM175.75,447.27c-.32,0-.57-.13-.77-.38s-.22-.54-.08-.85l6.76-14.17c.11-.21.23-.35.39-.43s.31-.12.46-.12c.32,0,.57.13.75.39.18.26.2.56.04.88l-6.74,14.19c-.08.18-.2.31-.38.38-.17.07-.32.11-.44.11ZM183.98,446.55c-1.15,0-2.07-.34-2.78-1.03-.71-.69-1.06-1.65-1.06-2.89s.35-2.2,1.06-2.87c.7-.67,1.63-1.01,2.78-1.01s2.05.34,2.74,1.01,1.04,1.63,1.04,2.87-.35,2.22-1.04,2.9c-.69.68-1.6,1.02-2.74,1.02ZM183.96,444.68c.55,0,.98-.18,1.27-.53.29-.35.43-.86.43-1.53s-.15-1.17-.43-1.51c-.29-.34-.71-.51-1.27-.51s-.98.17-1.27.51c-.3.34-.44.84-.44,1.51s.15,1.18.44,1.53c.3.35.72.53,1.27.53Z" fill="#a8228e"/><path d="M198.64,450.65c-.88,0-1.65-.12-2.3-.34s-1.16-.54-1.51-.92c-.36-.39-.56-.79-.61-1.23-.01-.35.08-.67.28-.96.2-.29.5-.44.91-.45.2-.01.37.02.5.09.14.07.26.16.38.27s.23.22.35.32c.21.2.48.37.81.51.33.14.73.22,1.21.22.55,0,.99-.09,1.32-.28.33-.19.57-.46.72-.8.15-.35.23-.77.23-1.27v-2.28c-.08.48-.26.91-.53,1.28-.28.37-.62.64-1.02.83-.4.19-.83.29-1.29.29-.88,0-1.65-.21-2.29-.63s-1.15-1.01-1.5-1.78c-.36-.76-.53-1.65-.53-2.66,0-.96.18-1.83.53-2.61.36-.79.86-1.42,1.51-1.89.65-.48,1.43-.72,2.32-.72.67,0,1.27.16,1.8.48.53.32.88.75,1.05,1.29.01-.14.03-.29.05-.42.02-.14.04-.27.07-.4.08-.35.25-.6.51-.74.26-.14.54-.21.83-.21.5,0,.9.14,1.19.42.29.28.44.68.44,1.21v8.22c0,1.65-.45,2.92-1.34,3.82-.9.9-2.25,1.34-4.05,1.34ZM198.98,443.68c.33,0,.64-.06.92-.18.28-.12.52-.28.7-.49.18-.21.29-.45.32-.73v-2.65c-.05-.29-.16-.54-.32-.76-.16-.22-.37-.4-.62-.54-.26-.14-.57-.21-.94-.21-.41,0-.75.08-1.03.25-.28.16-.5.38-.67.66-.17.28-.29.58-.37.9-.07.33-.11.66-.11,1,0,.46.08.9.23,1.33.15.42.39.77.7,1.03.32.26.71.39,1.19.39Z" fill="#a8228e"/><path d="M208.05,446.57c-.5,0-.89-.14-1.18-.43-.28-.29-.42-.69-.42-1.2v-7.65c0-.59.14-1.01.42-1.26.28-.25.68-.38,1.18-.39.24,0,.46.04.68.12s.4.2.53.37.21.4.21.69v2.06c.08-.62.22-1.13.42-1.55.2-.42.44-.75.71-1,.27-.25.55-.42.83-.53.28-.1.53-.16.74-.16.25,0,.5.04.74.13.24.08.44.24.6.46.16.22.24.55.24.98,0,.35-.06.68-.17.98-.11.3-.27.54-.47.72-.2.18-.45.26-.74.26-.22,0-.42-.04-.58-.12-.17-.08-.33-.16-.48-.24-.15-.08-.3-.13-.47-.17-.17-.03-.35,0-.53.07-.2.09-.35.25-.44.48-.1.23-.17.5-.2.8s-.05.63-.05.97v3.98c0,.52-.14.92-.42,1.2-.28.27-.66.41-1.15.41Z" fill="#a8228e"/><path d="M224.65,445.25c0,.31-.07.57-.22.76s-.34.33-.58.41c-.24.08-.52.13-.82.13-.42,0-.8-.1-1.13-.29-.33-.19-.59-.46-.77-.82-.19-.36-.28-.78-.3-1.27-.09.43-.27.83-.53,1.19-.26.36-.6.65-1.01.86s-.9.32-1.48.32c-.63,0-1.22-.13-1.76-.38-.54-.25-.97-.63-1.29-1.12-.32-.49-.48-1.09-.48-1.8,0-.55.09-1.02.27-1.41.18-.39.43-.73.75-1,.32-.27.7-.48,1.14-.62.44-.14.91-.21,1.42-.21.54,0,1,.07,1.39.2s.7.28.95.46c.24.18.42.35.52.52v-1.41c0-.5-.13-.91-.4-1.23-.26-.32-.67-.49-1.23-.5-.32,0-.59.04-.81.12-.22.08-.44.17-.63.28-.17.08-.33.17-.47.27s-.29.19-.44.25c-.15.07-.35.1-.58.1-.33,0-.61-.12-.85-.37s-.36-.58-.36-1c0-.34.1-.62.31-.85.2-.23.46-.42.76-.58.4-.22.85-.39,1.37-.49.52-.1,1-.16,1.43-.16.96,0,1.76.11,2.38.31s1.12.51,1.47.89c.36.39.6.84.74,1.35.14.52.21,1.09.21,1.72v3.16c0,.33.04.56.12.71.08.14.18.26.3.35.14.11.28.23.42.37.13.14.2.4.2.76ZM218.8,444.58c.33,0,.62-.06.87-.18.25-.12.46-.28.63-.48.17-.2.31-.42.42-.66v-.71c-.09-.1-.23-.21-.41-.32-.18-.11-.38-.21-.6-.28s-.47-.12-.73-.12c-.33,0-.62.06-.88.17-.26.11-.46.27-.61.47-.15.2-.23.45-.23.75s.08.57.23.78c.15.2.35.35.58.44.24.09.48.14.73.14Z" fill="#a8228e"/><path d="M227.63,446.57c-.5,0-.89-.17-1.18-.5-.28-.33-.42-.76-.42-1.29v-7.34c0-.58.12-1.01.37-1.29.24-.29.64-.43,1.18-.43.25-.01.49.02.72.11.23.09.42.23.57.43.15.2.21.5.19.89l-.04,1.82.18.71v5.1c0,.52-.14.95-.42,1.29-.28.33-.66.5-1.15.5ZM234.41,446.57c-.5,0-.89-.17-1.18-.51-.28-.34-.43-.77-.43-1.29v-4.47c0-.6-.13-1.07-.4-1.41-.26-.34-.64-.51-1.13-.51s-.86.12-1.17.34c-.3.23-.53.54-.68.92s-.23.83-.25,1.32l-.22-1.73c.05-.54.16-1.02.34-1.45.17-.43.41-.81.7-1.13.3-.32.65-.57,1.07-.75s.89-.26,1.41-.26c1.16,0,2.02.34,2.59,1.03.57.69.86,1.67.87,2.95l.02,5.14c.01.54-.13.97-.42,1.3-.29.33-.67.5-1.15.5Z" fill="#a8228e"/><path d="M242.04,446.57c-.82,0-1.54-.22-2.16-.66-.63-.44-1.11-1.07-1.46-1.88-.35-.82-.52-1.78-.52-2.89,0-1.05.17-1.98.51-2.81.34-.82.84-1.48,1.49-1.97.65-.49,1.44-.74,2.36-.74.42,0,.85.08,1.27.23s.8.39,1.13.71.54.74.64,1.27l.2.59-.34,1.25c-.07-.34-.19-.62-.37-.84-.18-.22-.41-.39-.68-.51-.28-.12-.59-.18-.95-.18-.49,0-.89.14-1.2.41-.31.27-.53.64-.67,1.09-.14.45-.21.95-.21,1.5,0,.94.17,1.67.5,2.19.34.52.85.78,1.53.78.38,0,.71-.07,1-.21.28-.14.51-.31.69-.53.18-.22.29-.44.35-.66l.53.49-.51.63c-.11.59-.32,1.09-.63,1.5-.32.41-.7.72-1.14.93s-.9.31-1.37.31ZM246.73,446.57c-.49,0-.87-.14-1.15-.42-.28-.28-.42-.7-.42-1.25v-12.58c0-.54.14-.94.42-1.21.28-.27.66-.4,1.15-.4s.89.14,1.16.42.41.7.41,1.25v12.64c0,.55-.14.95-.41,1.19s-.66.36-1.16.36Z" fill="#a8228e"/><path d="M252.24,446.57c-.47,0-.85-.14-1.14-.42s-.42-.68-.42-1.21v-7.63c0-.54.13-.94.4-1.22.26-.28.63-.41,1.11-.41.4,0,.69.07.9.2.2.13.35.31.42.55.07.21.11.44.13.68.02.24.03.51.03.8v.99c.13-.8.35-1.44.66-1.91s.7-.82,1.19-1.03c.48-.21,1.02-.31,1.61-.31.87,0,1.54.24,2.02.73.47.48.76,1.28.85,2.37.1-.82.31-1.46.62-1.9.31-.44.68-.75,1.13-.93.44-.18.91-.26,1.41-.26.72,0,1.33.15,1.81.46s.84.75,1.09,1.34c.24.59.37,1.31.37,2.18v5.32c0,.51-.14.91-.4,1.2-.27.29-.64.43-1.12.43-.5,0-.9-.15-1.19-.44-.29-.29-.43-.69-.43-1.19v-4.65c0-.65-.1-1.14-.3-1.45-.2-.31-.51-.47-.95-.47-.61,0-1.08.22-1.41.67-.34.45-.5,1-.5,1.67v4.24c0,.51-.14.91-.42,1.2-.28.29-.65.43-1.11.43-.5,0-.89-.15-1.18-.44-.28-.29-.42-.69-.42-1.19v-4.65c0-.43-.05-.79-.14-1.07-.09-.28-.24-.49-.44-.64-.2-.14-.47-.22-.8-.22-.4,0-.73.1-.99.3-.26.2-.46.48-.59.84-.13.36-.2.77-.2,1.25v4.18c0,.51-.14.91-.42,1.2-.28.29-.67.43-1.17.43Z" fill="#a8228e"/><path d="M273.72,446.57c-1.03,0-1.95-.21-2.77-.63s-1.46-1.04-1.94-1.86c-.47-.82-.71-1.83-.71-3.02s.24-2.15.73-2.95c.49-.8,1.14-1.42,1.97-1.84.82-.42,1.74-.64,2.76-.64s1.96.21,2.77.64c.8.43,1.44,1.04,1.91,1.83s.7,1.79.7,2.96-.24,2.2-.71,3.02c-.47.82-1.12,1.45-1.93,1.86-.81.42-1.74.63-2.78.63ZM273.72,444.07c.46,0,.86-.11,1.21-.32.34-.22.61-.54.81-.98.2-.44.3-1.01.3-1.72s-.1-1.26-.3-1.69c-.2-.43-.47-.75-.81-.95-.34-.2-.74-.3-1.21-.3-.44,0-.83.11-1.18.32s-.63.54-.83.96c-.2.43-.31.98-.31,1.66,0,.72.1,1.3.31,1.75.2.45.48.77.84.97.36.2.74.3,1.17.3Z" fill="#a8228e"/><path d="M284.87,446.57c-.71,0-1.31-.13-1.81-.39s-.87-.64-1.12-1.14c-.25-.5-.38-1.1-.38-1.82v-4.94h-.43c-.42,0-.73-.09-.93-.27-.2-.18-.3-.5-.3-.96s.1-.78.31-.97c.2-.19.51-.29.92-.29h.43v-1.55c0-.71.14-1.19.42-1.46.28-.27.67-.4,1.17-.4s.84.13,1.06.39.33.65.33,1.16v1.86h1.46c.38,0,.67.1.86.29.19.19.29.51.29.97s-.11.78-.32.96c-.21.18-.49.27-.83.27h-1.46l-.02,4.69c0,.3.05.52.15.66.1.14.27.21.5.21.17,0,.33-.03.46-.08.14-.05.28-.1.42-.16.15-.05.32-.08.51-.08.25,0,.5.1.76.3s.39.53.39.99-.15.79-.46,1.05-.69.44-1.13.55-.86.17-1.25.17Z" fill="#a8228e"/><path d="M290.68,446.57c-.47,0-.85-.15-1.13-.46-.28-.31-.42-.72-.42-1.25v-12.52c0-.52.14-.92.42-1.21.28-.28.66-.42,1.15-.42.53,0,.92.14,1.18.42.26.28.39.68.39,1.21l.02,4.69c0,.26-.01.52-.04.79s-.05.53-.06.8c.08-.42.2-.81.38-1.17.17-.36.4-.67.67-.94.28-.27.62-.48,1.02-.64.4-.16.87-.24,1.39-.24,1.11,0,1.95.34,2.53,1.03.58.69.87,1.67.87,2.95l.04,5.18c0,.56-.15,1-.43,1.3-.29.31-.67.46-1.15.46-.5,0-.89-.16-1.17-.47-.28-.31-.42-.75-.42-1.29v-4.51c0-.6-.14-1.07-.42-1.41-.28-.34-.66-.51-1.14-.51-.33,0-.62.08-.87.24-.25.16-.46.36-.63.62s-.31.53-.41.82c-.1.29-.16.57-.19.83v3.98c0,.52-.14.94-.42,1.25-.28.31-.67.46-1.17.46Z" fill="#a8228e"/><path d="M306.29,446.57c-1.11,0-2.06-.22-2.86-.66-.8-.44-1.41-1.06-1.84-1.86-.43-.8-.64-1.77-.64-2.89s.2-2.04.6-2.87c.4-.83.99-1.48,1.76-1.95.77-.47,1.7-.71,2.78-.71.9,0,1.7.18,2.41.55s1.27.9,1.69,1.6c.42.7.62,1.56.62,2.58,0,.47-.11.86-.32,1.16s-.59.45-1.13.45h-6.07v-1.65h4.6c0-.39-.06-.76-.18-1.11s-.31-.63-.58-.86c-.27-.23-.63-.34-1.08-.34-.49,0-.89.12-1.2.35-.31.24-.54.56-.68.96s-.22.88-.22,1.43l.02,1.24c.01.39.11.76.3,1.09.18.33.45.6.79.8.34.2.76.3,1.25.3.41,0,.74-.06,1.01-.2s.53-.3.79-.51c.16-.13.33-.24.5-.31.18-.08.37-.12.56-.12.37,0,.66.12.87.34.21.23.32.52.32.87,0,.25-.05.47-.14.67s-.22.38-.4.55c-.21.21-.49.4-.83.56-.34.16-.74.29-1.21.39-.46.1-.97.15-1.52.15Z" fill="#a8228e"/><path d="M314.28,446.57c-.5,0-.89-.14-1.18-.43-.28-.29-.42-.69-.42-1.2v-7.65c0-.59.14-1.01.42-1.26.28-.25.68-.38,1.18-.39.24,0,.46.04.68.12s.4.2.53.37.21.4.21.69v2.06c.08-.62.22-1.13.42-1.55.2-.42.44-.75.71-1,.27-.25.55-.42.83-.53.28-.1.53-.16.74-.16.25,0,.5.04.74.13.24.08.44.24.6.46.16.22.24.55.24.98,0,.35-.06.68-.17.98-.11.3-.27.54-.47.72-.2.18-.45.26-.74.26-.22,0-.42-.04-.58-.12-.17-.08-.33-.16-.48-.24-.15-.08-.3-.13-.47-.17-.17-.03-.35,0-.53.07-.2.09-.35.25-.44.48-.1.23-.17.5-.2.8s-.05.63-.05.97v3.98c0,.52-.14.92-.42,1.2-.28.27-.66.41-1.15.41Z" fill="#a8228e"/><path d="M555.93,218.3c-.84,0-1.65-.11-2.41-.32-.76-.22-1.39-.52-1.88-.92-.49-.4-.74-.88-.75-1.44-.01-.39.1-.74.35-1.04s.6-.45,1.06-.45c.24,0,.43.04.59.13s.3.19.43.31.26.25.38.38c.26.27.59.49.97.64.38.15.84.23,1.38.23s.95-.09,1.31-.27.64-.43.83-.74c.19-.31.29-.64.29-1.01,0-.58-.13-.99-.38-1.26s-.61-.44-1.05-.52-.93-.13-1.47-.13h-.79c-.38,0-.69-.09-.92-.27s-.35-.5-.35-.97c0-.43.11-.74.34-.93.22-.19.51-.28.85-.28h.75c.53,0,.98-.08,1.37-.23s.69-.38.9-.69c.21-.31.32-.69.32-1.15,0-.63-.2-1.08-.6-1.34-.4-.27-.89-.4-1.47-.4-.53,0-1,.09-1.4.27s-.72.48-.93.88c-.13.21-.29.38-.46.52-.18.14-.4.21-.68.21-.45,0-.79-.14-1.04-.41-.24-.27-.37-.59-.37-.94,0-.63.23-1.16.69-1.6.46-.44,1.07-.78,1.82-1.02.75-.24,1.56-.36,2.43-.36.62,0,1.23.07,1.82.21s1.13.36,1.6.68.85.71,1.13,1.2c.28.48.42,1.07.42,1.77,0,.42-.07.86-.22,1.31-.15.46-.42.87-.81,1.23-.39.36-.96.61-1.7.76.62.04,1.18.19,1.67.45.49.26.89.64,1.18,1.14s.43,1.12.43,1.86c0,.79-.17,1.46-.49,2.03s-.77,1.04-1.32,1.41c-.55.37-1.16.65-1.82.82-.66.18-1.32.27-1.98.27Z" fill="#a8228e"/><path d="M566.76,218.67c-.49,0-.89-.13-1.2-.38-.31-.25-.46-.66-.46-1.23,0-.73.06-1.5.19-2.31.12-.8.31-1.62.56-2.44.25-.82.56-1.62.92-2.37.36-.76.79-1.46,1.27-2.12.49-.65,1.03-1.21,1.62-1.67-.58,0-1.09,0-1.52,0-.43,0-.82.02-1.15.03-.33.01-.61.03-.85.04s-.45.03-.63.06c-.22.04-.51.07-.86.09-.35.02-.68.03-1,.03-.4,0-.73-.13-1-.4s-.41-.64-.41-1.11c0-.54.14-.92.42-1.15s.63-.34,1.04-.34h7.95c.5,0,.85.12,1.05.35.2.24.3.56.3.96,0,.37-.05.67-.16.9s-.24.44-.4.61-.32.35-.49.53c-.71.73-1.3,1.54-1.78,2.42-.47.88-.84,1.79-1.11,2.73-.26.94-.45,1.84-.56,2.72-.11.88-.17,1.68-.17,2.41,0,.44-.11.83-.33,1.15-.22.32-.64.48-1.25.48Z" fill="#a8228e"/><path d="M573.4,216.28c-.55,0-.98-.14-1.27-.43-.3-.29-.45-.71-.45-1.28s.15-1.01.45-1.29c.3-.29.72-.43,1.27-.43.54-.01.96.13,1.26.42.3.29.46.73.46,1.3s-.15,1-.46,1.29c-.3.28-.72.42-1.26.42Z" fill="#a8228e"/><path d="M582.06,216.28c-.68,0-1.37-.08-2.04-.23-.68-.15-1.29-.39-1.84-.72-.55-.33-.98-.75-1.31-1.27-.33-.52-.49-1.15-.49-1.89,0-.78.14-1.42.42-1.9.28-.48.63-.86,1.07-1.13.43-.27.9-.45,1.38-.54-.32-.09-.66-.27-1.02-.52s-.68-.6-.94-1.04c-.26-.44-.4-.97-.4-1.6,0-.71.14-1.32.42-1.83.28-.52.67-.94,1.16-1.28s1.04-.58,1.66-.75c.62-.16,1.26-.25,1.94-.25s1.31.08,1.93.25c.61.16,1.16.41,1.64.75.48.33.86.76,1.15,1.28.28.52.42,1.13.42,1.83,0,.63-.13,1.16-.38,1.6-.26.44-.56.78-.92,1.03-.36.25-.69.42-1.01.51.49.1.95.29,1.38.55s.79.64,1.07,1.13c.28.49.42,1.13.42,1.91s-.17,1.38-.49,1.89c-.33.52-.76.94-1.3,1.27-.54.33-1.15.57-1.83.72-.68.15-1.37.23-2.07.23ZM582.06,213.94c.5,0,.95-.08,1.34-.25.39-.16.7-.4.93-.72.22-.31.34-.71.34-1.18s-.12-.85-.36-1.18c-.24-.33-.55-.58-.94-.75s-.83-.26-1.31-.26-.93.09-1.32.27c-.39.18-.71.43-.93.75-.22.32-.34.71-.34,1.17s.11.86.34,1.18.53.55.92.72.83.25,1.33.25ZM582.08,207.72c.42,0,.79-.08,1.12-.25.32-.16.57-.4.75-.7s.27-.65.27-1.04c0-.67-.2-1.18-.59-1.54s-.91-.54-1.54-.54c-.67,0-1.21.18-1.61.54s-.6.87-.6,1.54c0,.43.1.79.3,1.09.2.29.46.52.79.67s.71.23,1.13.23Z" fill="#a8228e"/><path d="M595.36,216.28c-.68,0-1.37-.08-2.04-.23-.68-.15-1.29-.39-1.84-.72-.55-.33-.98-.75-1.31-1.27-.33-.52-.49-1.15-.49-1.89,0-.78.14-1.42.42-1.9.28-.48.63-.86,1.07-1.13.43-.27.9-.45,1.38-.54-.32-.09-.66-.27-1.02-.52s-.68-.6-.94-1.04c-.26-.44-.4-.97-.4-1.6,0-.71.14-1.32.42-1.83.28-.52.67-.94,1.16-1.28s1.04-.58,1.66-.75c.62-.16,1.26-.25,1.94-.25s1.31.08,1.93.25c.61.16,1.16.41,1.64.75.48.33.86.76,1.15,1.28.28.52.42,1.13.42,1.83,0,.63-.13,1.16-.38,1.6-.26.44-.56.78-.92,1.03-.36.25-.69.42-1.01.51.49.1.95.29,1.38.55s.79.64,1.07,1.13c.28.49.42,1.13.42,1.91s-.17,1.38-.49,1.89c-.33.52-.76.94-1.3,1.27-.54.33-1.15.57-1.83.72-.68.15-1.37.23-2.07.23ZM595.36,213.94c.5,0,.95-.08,1.34-.25.39-.16.7-.4.93-.72.22-.31.34-.71.34-1.18s-.12-.85-.36-1.18c-.24-.33-.55-.58-.94-.75s-.83-.26-1.31-.26-.93.09-1.32.27c-.39.18-.71.43-.93.75-.22.32-.34.71-.34,1.17s.11.86.34,1.18.53.55.92.72.83.25,1.33.25ZM595.38,207.72c.42,0,.79-.08,1.12-.25.32-.16.57-.4.75-.7s.27-.65.27-1.04c0-.67-.2-1.18-.59-1.54s-.91-.54-1.54-.54c-.67,0-1.21.18-1.61.54s-.6.87-.6,1.54c0,.43.1.79.3,1.09.2.29.46.52.79.67s.71.23,1.13.23Z" fill="#a8228e"/><path d="M606.25,209.07c-1.15,0-2.07-.34-2.78-1.03-.71-.69-1.06-1.65-1.06-2.87s.35-2.2,1.06-2.87c.7-.67,1.63-1.01,2.78-1.01s2.05.34,2.74,1.01c.69.67,1.04,1.63,1.04,2.87s-.35,2.21-1.04,2.89c-.69.69-1.6,1.02-2.74,1.01ZM606.25,207.23c.54,0,.96-.18,1.25-.54.29-.36.43-.87.43-1.54s-.14-1.15-.43-1.5-.71-.52-1.25-.52c-.57,0-1,.17-1.29.52-.3.35-.44.85-.44,1.5s.15,1.18.44,1.54c.3.36.73.54,1.29.54ZM607.56,216.94c-.32,0-.57-.13-.77-.38-.2-.25-.22-.54-.08-.85l6.76-14.17c.11-.21.23-.35.39-.43.15-.08.31-.12.46-.12.32,0,.57.13.75.39.18.26.2.56.04.88l-6.74,14.19c-.08.18-.21.31-.38.38-.17.07-.32.11-.43.11ZM615.78,216.22c-1.15,0-2.07-.34-2.78-1.03-.71-.69-1.06-1.65-1.06-2.89s.35-2.2,1.06-2.87,1.63-1.01,2.78-1.01,2.05.34,2.74,1.01,1.04,1.63,1.04,2.87-.35,2.22-1.04,2.9-1.6,1.02-2.74,1.02ZM615.76,214.35c.55,0,.97-.18,1.26-.53.29-.35.43-.86.43-1.53s-.14-1.17-.43-1.51c-.29-.34-.71-.51-1.26-.51s-.98.17-1.28.51c-.3.34-.44.84-.44,1.51s.15,1.18.44,1.53c.3.35.72.53,1.28.53Z" fill="#a8228e"/><path d="M627.67,216.24c-.47,0-.85-.14-1.14-.42-.28-.28-.43-.68-.43-1.21v-7.63c0-.54.13-.94.4-1.22.26-.27.63-.41,1.11-.41.39,0,.69.07.9.2.2.13.35.31.43.55.07.21.11.44.13.68s.03.51.03.8v.99c.13-.8.35-1.44.66-1.91s.71-.82,1.19-1.03c.48-.21,1.02-.31,1.61-.31.87,0,1.54.24,2.02.73.47.48.76,1.28.85,2.37.11-.82.31-1.46.62-1.9.31-.44.69-.76,1.13-.93.44-.18.91-.27,1.41-.27.72,0,1.33.15,1.81.46.48.31.84.76,1.09,1.34.24.59.37,1.31.37,2.18v5.32c0,.51-.13.91-.41,1.2-.27.29-.64.43-1.12.43-.5,0-.9-.15-1.19-.44-.29-.29-.44-.69-.44-1.19v-4.65c0-.65-.1-1.14-.3-1.45-.2-.31-.51-.47-.95-.47-.61,0-1.08.22-1.41.67s-.5,1-.5,1.67v4.24c0,.51-.14.91-.42,1.2-.28.29-.65.43-1.11.43-.5,0-.89-.15-1.18-.44-.28-.29-.42-.69-.42-1.19v-4.65c0-.43-.05-.79-.14-1.07-.09-.28-.24-.49-.45-.64-.2-.14-.47-.22-.8-.22-.4,0-.72.1-.99.3-.26.2-.46.48-.59.84-.13.36-.2.78-.2,1.25v4.18c0,.51-.14.91-.42,1.2-.28.29-.67.43-1.17.43Z" fill="#a8228e"/><path d="M649.16,216.24c-1.03,0-1.95-.21-2.77-.63-.82-.42-1.46-1.04-1.94-1.86s-.71-1.83-.71-3.02.24-2.15.73-2.95c.49-.8,1.14-1.42,1.97-1.84.82-.42,1.74-.64,2.76-.64s1.96.21,2.77.64c.8.43,1.44,1.04,1.91,1.83.47.8.7,1.79.7,2.96s-.24,2.2-.71,3.02c-.47.82-1.12,1.45-1.93,1.86-.81.42-1.74.63-2.78.63ZM649.16,213.74c.46,0,.86-.11,1.21-.32s.61-.54.81-.98c.2-.44.3-1.01.3-1.72s-.1-1.26-.3-1.69c-.2-.43-.47-.75-.81-.95-.34-.2-.74-.3-1.21-.3-.43,0-.83.11-1.18.32-.35.22-.63.54-.83.96-.21.43-.31.98-.31,1.66,0,.72.1,1.3.31,1.75.2.44.48.77.84.97.36.2.74.3,1.17.3Z" fill="#a8228e"/><path d="M660.31,216.24c-.71,0-1.31-.13-1.81-.39-.49-.26-.87-.64-1.12-1.14s-.38-1.1-.38-1.82v-4.94h-.44c-.42,0-.73-.09-.93-.27-.2-.18-.3-.5-.3-.96s.1-.78.31-.97c.2-.19.51-.28.92-.28h.44v-1.55c0-.71.14-1.19.42-1.46.28-.27.67-.4,1.17-.4s.84.13,1.06.39c.22.26.33.65.33,1.16v1.86h1.46c.38,0,.67.1.86.28.19.19.29.51.29.97s-.11.78-.32.96c-.21.18-.49.27-.83.27h-1.46l-.02,4.69c0,.3.05.52.15.66.1.14.27.21.5.21.17,0,.33-.03.46-.08.14-.05.28-.1.42-.16.14-.05.32-.08.51-.08.25,0,.5.1.76.3s.39.53.39.99-.16.79-.46,1.05c-.31.25-.69.44-1.13.55-.44.11-.86.17-1.26.17Z" fill="#a8228e"/><path d="M666.12,216.24c-.47,0-.85-.15-1.13-.46-.28-.31-.42-.72-.42-1.25v-12.52c0-.52.14-.93.42-1.21.28-.28.66-.42,1.15-.42.53,0,.92.14,1.18.42s.39.68.39,1.21l.02,4.69c0,.26-.01.52-.04.79s-.05.53-.06.8c.08-.42.2-.81.38-1.17.17-.36.39-.67.67-.94.28-.27.62-.48,1.02-.64.4-.16.87-.24,1.39-.24,1.11,0,1.95.34,2.53,1.03.58.69.87,1.67.87,2.95l.04,5.18c0,.56-.14,1-.43,1.3-.29.31-.67.46-1.15.46-.5,0-.89-.16-1.17-.47s-.42-.75-.42-1.29v-4.51c0-.6-.14-1.07-.42-1.41-.28-.34-.66-.51-1.14-.51-.33,0-.62.08-.87.24-.25.16-.46.36-.63.62-.17.25-.31.53-.41.82-.1.29-.16.57-.19.83v3.98c0,.52-.14.94-.42,1.25-.28.31-.67.46-1.17.46Z" fill="#a8228e"/><path d="M681.73,216.24c-1.11,0-2.06-.22-2.86-.66-.8-.44-1.41-1.06-1.84-1.86-.43-.8-.64-1.77-.64-2.89s.2-2.04.6-2.87c.4-.83.99-1.48,1.76-1.95.77-.47,1.7-.71,2.78-.71.9,0,1.7.18,2.41.55.71.37,1.27.9,1.69,1.6s.62,1.56.62,2.58c0,.47-.11.86-.32,1.16-.21.3-.59.45-1.13.45h-6.07v-1.65h4.6c0-.39-.06-.76-.18-1.11-.12-.35-.31-.63-.58-.86-.27-.23-.63-.34-1.08-.34-.49,0-.89.12-1.2.35-.31.24-.54.56-.68.96-.15.41-.22.88-.22,1.43l.02,1.24c.01.39.11.76.3,1.09.18.33.45.6.79.8.34.2.76.3,1.25.3.41,0,.75-.07,1.01-.2.26-.13.53-.3.79-.51.16-.13.33-.24.5-.31.18-.08.37-.12.56-.12.37,0,.66.11.87.34.21.23.32.52.32.87,0,.25-.05.47-.14.67-.09.2-.22.38-.4.55-.21.21-.49.4-.83.56-.34.16-.75.29-1.21.39s-.97.15-1.52.15Z" fill="#a8228e"/><path d="M689.71,216.24c-.5,0-.89-.14-1.18-.43-.28-.29-.43-.69-.43-1.2v-7.65c0-.59.14-1.01.43-1.26.28-.25.67-.38,1.18-.39.24,0,.46.04.68.12.22.08.4.2.53.37.14.17.21.4.21.69v2.06c.08-.61.22-1.13.42-1.55.2-.42.44-.75.71-1,.27-.25.55-.43.83-.53.28-.1.53-.16.74-.16.25,0,.5.04.74.13.24.09.44.24.6.46.16.22.24.55.24.98,0,.35-.06.68-.17.98-.11.3-.27.54-.47.72-.2.18-.45.26-.74.26-.22,0-.42-.04-.58-.12s-.33-.16-.48-.24c-.14-.08-.3-.13-.47-.17-.17-.03-.35,0-.53.07-.2.09-.35.25-.44.48-.1.23-.17.5-.2.8-.03.31-.05.63-.05.97v3.98c0,.52-.14.92-.42,1.2-.28.27-.66.41-1.15.41Z" fill="#a8228e"/></svg>