<?xml version="1.0" encoding="UTF-8"?><svg id="a" xmlns="http://www.w3.org/2000/svg" width="779.78" height="600" viewBox="0 0 779.78 600"><ellipse cx="482.02" cy="154.1" rx="10.31" ry="11.34" transform="translate(167.78 550.76) rotate(-69.34)" fill="#ec008c" stroke="#ec008c" stroke-miterlimit="10"/><line x1="415.39" y1="266.43" x2="480" y2="157.5" fill="#ec008c" stroke="#ec008c" stroke-miterlimit="10"/><ellipse cx="462.42" cy="144.08" rx="10.31" ry="11.34" transform="translate(215.7 560.87) rotate(-76.68)" fill="#006fba" stroke="#006fba" stroke-miterlimit="10"/><line x1="410.69" y1="264.01" x2="460.85" y2="147.71" fill="#006fba" stroke="#006fba" stroke-miterlimit="10"/><ellipse cx="441.7" cy="136.64" rx="10.31" ry="11.34" transform="translate(259.8 561.71) rotate(-84.02)" fill="#69c9ca" stroke="#69c9ca" stroke-miterlimit="10"/><line x1="405.71" y1="262.2" x2="440.61" y2="140.45" fill="#69c9ca" stroke="#69c9ca" stroke-miterlimit="10"/><ellipse cx="420.2" cy="131.92" rx="11.34" ry="10.31" transform="translate(-3.02 10.03) rotate(-1.36)" fill="#69c9ca" stroke="#69c9ca" stroke-miterlimit="10"/><line x1="400.55" y1="261.04" x2="419.6" y2="135.83" fill="#69c9ca" stroke="#69c9ca" stroke-miterlimit="10"/><ellipse cx="398.27" cy="129.97" rx="11.34" ry="10.31" transform="translate(-15.08 61.76) rotate(-8.7)" fill="#69c9ca" stroke="#69c9ca" stroke-miterlimit="10"/><line x1="395.28" y1="260.55" x2="398.18" y2="133.93" fill="#69c9ca" stroke="#69c9ca" stroke-miterlimit="10"/><ellipse cx="376.27" cy="130.85" rx="11.34" ry="10.31" transform="translate(-21.51 109.08) rotate(-16.04)" fill="#69c9ca" stroke="#69c9ca" stroke-miterlimit="10"/><line x1="389.99" y1="260.74" x2="376.69" y2="134.79" fill="#69c9ca" stroke="#69c9ca" stroke-miterlimit="10"/><ellipse cx="354.57" cy="134.53" rx="11.34" ry="10.31" transform="translate(-24.27 151.77) rotate(-23.38)" fill="#69c9ca" stroke="#69c9ca" stroke-miterlimit="10"/><line x1="384.77" y1="261.6" x2="355.49" y2="138.38" fill="#69c9ca" stroke="#69c9ca" stroke-miterlimit="10"/><ellipse cx="333.51" cy="140.95" rx="11.34" ry="10.31" transform="translate(-25.2 190.17) rotate(-30.72)" fill="#69c9ca" stroke="#69c9ca" stroke-miterlimit="10"/><line x1="379.7" y1="263.12" x2="334.91" y2="144.66" fill="#69c9ca" stroke="#69c9ca" stroke-miterlimit="10"/><ellipse cx="313.45" cy="150.01" rx="11.34" ry="10.31" transform="translate(-25.83 225.15) rotate(-38.06)" fill="#69c9ca" stroke="#69c9ca" stroke-miterlimit="10"/><line x1="374.86" y1="265.28" x2="315.31" y2="153.51" fill="#69c9ca" stroke="#69c9ca" stroke-miterlimit="10"/><ellipse cx="294.71" cy="161.56" rx="11.34" ry="10.31" transform="translate(-27.25 257.98) rotate(-45.4)" fill="#69c9ca" stroke="#69c9ca" stroke-miterlimit="10"/><line x1="370.35" y1="268.04" x2="297" y2="164.79" fill="#69c9ca" stroke="#69c9ca" stroke-miterlimit="10"/><ellipse cx="277.6" cy="175.41" rx="11.34" ry="10.31" transform="translate(-30.07 290.16) rotate(-52.74)" fill="#69c9ca" stroke="#69c9ca" stroke-miterlimit="10"/><line x1="366.22" y1="271.35" x2="280.29" y2="178.32" fill="#69c9ca" stroke="#69c9ca" stroke-miterlimit="10"/><ellipse cx="262.4" cy="191.33" rx="11.34" ry="10.31" transform="translate(-34.31 323.33) rotate(-60.08)" fill="#69c9ca" stroke="#69c9ca" stroke-miterlimit="10"/><line x1="362.55" y1="275.16" x2="265.43" y2="193.87" fill="#69c9ca" stroke="#69c9ca" stroke-miterlimit="10"/><ellipse cx="249.35" cy="209.06" rx="11.34" ry="10.31" transform="translate(-39.42 359.04) rotate(-67.42)" fill="#69c9ca" stroke="#69c9ca" stroke-miterlimit="10"/><line x1="359.39" y1="279.41" x2="252.69" y2="211.19" fill="#69c9ca" stroke="#69c9ca" stroke-miterlimit="10"/><ellipse cx="238.68" cy="228.31" rx="11.34" ry="10.31" transform="translate(-44.34 398.6) rotate(-74.76)" fill="#69c9ca" stroke="#69c9ca" stroke-miterlimit="10"/><line x1="356.81" y1="284.03" x2="242.26" y2="230" fill="#69c9ca" stroke="#69c9ca" stroke-miterlimit="10"/><ellipse cx="230.56" cy="248.77" rx="11.34" ry="10.31" transform="translate(-47.54 442.96) rotate(-82.1)" fill="#69c9ca" stroke="#69c9ca" stroke-miterlimit="10"/><line x1="354.83" y1="288.94" x2="234.32" y2="249.99" fill="#69c9ca" stroke="#69c9ca" stroke-miterlimit="10"/><ellipse cx="225.11" cy="270.1" rx="11.34" ry="10.31" transform="translate(-47.17 492.57) rotate(-89.44)" fill="#69c9ca" stroke="#69c9ca" stroke-miterlimit="10"/><line x1="353.5" y1="294.07" x2="229" y2="270.83" fill="#69c9ca" stroke="#69c9ca" stroke-miterlimit="10"/><ellipse cx="222.44" cy="291.95" rx="10.31" ry="11.34" transform="translate(-32.92 28.31) rotate(-6.78)" fill="#92278f" stroke="#92278f" stroke-miterlimit="10"/><line x1="352.84" y1="299.32" x2="226.39" y2="292.17" fill="#92278f" stroke="#92278f" stroke-miterlimit="10"/><ellipse cx="222.57" cy="313.96" rx="10.31" ry="11.34" transform="translate(-69.88 63.8) rotate(-14.12)" fill="#92278f" stroke="#92278f" stroke-miterlimit="10"/><line x1="352.85" y1="304.61" x2="226.52" y2="313.68" fill="#92278f" stroke="#92278f" stroke-miterlimit="10"/><ellipse cx="225.52" cy="335.78" rx="10.31" ry="11.34" transform="translate(-107.22 105.8) rotate(-21.46)" fill="#92278f" stroke="#92278f" stroke-miterlimit="10"/><line x1="353.54" y1="309.86" x2="229.41" y2="334.99" fill="#92278f" stroke="#92278f" stroke-miterlimit="10"/><ellipse cx="231.24" cy="357.04" rx="10.31" ry="11.34" transform="translate(-143.41 155.58) rotate(-28.8)" fill="#92278f" stroke="#92278f" stroke-miterlimit="10"/><line x1="354.89" y1="314.97" x2="234.99" y2="355.76" fill="#92278f" stroke="#92278f" stroke-miterlimit="10"/><ellipse cx="239.62" cy="377.39" rx="10.31" ry="11.34" transform="translate(-176.47 213.95) rotate(-36.14)" fill="#92278f" stroke="#92278f" stroke-miterlimit="10"/><line x1="356.88" y1="319.88" x2="243.17" y2="375.65" fill="#92278f" stroke="#92278f" stroke-miterlimit="10"/><ellipse cx="250.53" cy="396.51" rx="10.31" ry="11.34" transform="translate(-204.1 281.21) rotate(-43.48)" fill="#92278f" stroke="#92278f" stroke-miterlimit="10"/><line x1="359.49" y1="324.48" x2="253.84" y2="394.33" fill="#92278f" stroke="#92278f" stroke-miterlimit="10"/><ellipse cx="263.8" cy="414.08" rx="10.31" ry="11.34" transform="translate(-223.84 356.99) rotate(-50.82)" fill="#92278f" stroke="#92278f" stroke-miterlimit="10"/><line x1="362.66" y1="328.72" x2="266.8" y2="411.49" fill="#92278f" stroke="#92278f" stroke-miterlimit="10"/><ellipse cx="279.2" cy="429.8" rx="10.31" ry="11.34" transform="translate(-233.22 440.27) rotate(-58.16)" fill="#92278f" stroke="#92278f" stroke-miterlimit="10"/><line x1="366.35" y1="332.52" x2="281.84" y2="426.86" fill="#92278f" stroke="#92278f" stroke-miterlimit="10"/><ellipse cx="296.49" cy="443.44" rx="10.31" ry="11.34" transform="translate(-229.97 529.36) rotate(-65.5)" fill="#92278f" stroke="#92278f" stroke-miterlimit="10"/><line x1="370.49" y1="335.81" x2="298.73" y2="440.17" fill="#92278f" stroke="#92278f" stroke-miterlimit="10"/><ellipse cx="315.37" cy="454.75" rx="10.31" ry="11.34" transform="translate(-212.17 621.93) rotate(-72.84)" fill="#92278f" stroke="#92278f" stroke-miterlimit="10"/><line x1="375.02" y1="338.55" x2="317.18" y2="451.22" fill="#92278f" stroke="#92278f" stroke-miterlimit="10"/><ellipse cx="335.55" cy="463.55" rx="10.31" ry="11.34" transform="translate(-178.43 715.15) rotate(-80.18)" fill="#92278f" stroke="#92278f" stroke-miterlimit="10"/><line x1="379.86" y1="340.69" x2="336.89" y2="459.83" fill="#92278f" stroke="#92278f" stroke-miterlimit="10"/><ellipse cx="356.68" cy="469.71" rx="10.31" ry="11.34" transform="translate(-128.01 805.75) rotate(-87.52)" fill="#92278f" stroke="#92278f" stroke-miterlimit="10"/><line x1="384.94" y1="342.19" x2="357.54" y2="465.84" fill="#92278f" stroke="#92278f" stroke-miterlimit="10"/><ellipse cx="378.43" cy="473.11" rx="11.34" ry="10.31" transform="translate(-38.74 33.78) rotate(-4.86)" fill="#92278f" stroke="#92278f" stroke-miterlimit="10"/><line x1="390.16" y1="343.03" x2="378.79" y2="469.17" fill="#92278f" stroke="#92278f" stroke-miterlimit="10"/><ellipse cx="400.44" cy="473.71" rx="11.34" ry="10.31" transform="translate(-91.08 95.34) rotate(-12.2)" fill="#92278f" stroke="#92278f" stroke-miterlimit="10"/><line x1="395.45" y1="343.2" x2="400.28" y2="469.76" fill="#92278f" stroke="#92278f" stroke-miterlimit="10"/><ellipse cx="422.34" cy="471.5" rx="11.34" ry="10.31" transform="translate(-133.39 168.44) rotate(-19.54)" fill="#92278f" stroke="#92278f" stroke-miterlimit="10"/><line x1="400.72" y1="342.69" x2="421.68" y2="467.59" fill="#92278f" stroke="#92278f" stroke-miterlimit="10"/><ellipse cx="443.78" cy="466.5" rx="11.34" ry="10.31" transform="translate(-162.98 251.07) rotate(-26.88)" fill="#ec008c" stroke="#ec008c" stroke-miterlimit="10"/><line x1="405.88" y1="341.51" x2="442.63" y2="462.71" fill="#ec008c" stroke="#ec008c" stroke-miterlimit="10"/><ellipse cx="464.4" cy="458.8" rx="11.34" ry="10.31" transform="translate(-177.63 340.62) rotate(-34.22)" fill="#ec008c" stroke="#ec008c" stroke-miterlimit="10"/><line x1="410.85" y1="339.68" x2="462.78" y2="455.19" fill="#ec008c" stroke="#ec008c" stroke-miterlimit="10"/><ellipse cx="483.87" cy="448.54" rx="11.34" ry="10.31" transform="translate(-175.75 433.95) rotate(-41.56)" fill="#ec008c" stroke="#ec008c" stroke-miterlimit="10"/><line x1="415.54" y1="337.23" x2="481.8" y2="445.16" fill="#ec008c" stroke="#ec008c" stroke-miterlimit="10"/><ellipse cx="501.87" cy="435.87" rx="11.34" ry="10.31" transform="translate(-156.49 527.56) rotate(-48.9)" fill="#ec008c" stroke="#ec008c" stroke-miterlimit="10"/><line x1="419.88" y1="334.2" x2="499.39" y2="432.78" fill="#ec008c" stroke="#ec008c" stroke-miterlimit="10"/><ellipse cx="518.11" cy="421" rx="11.34" ry="10.31" transform="translate(-119.81 617.81) rotate(-56.24)" fill="#ec008c" stroke="#ec008c" stroke-miterlimit="10"/><line x1="423.8" y1="330.64" x2="515.25" y2="418.26" fill="#ec008c" stroke="#ec008c" stroke-miterlimit="10"/><ellipse cx="532.31" cy="404.18" rx="11.34" ry="10.31" transform="translate(-66.49 701.08) rotate(-63.58)" fill="#ec008c" stroke="#ec008c" stroke-miterlimit="10"/><line x1="427.23" y1="326.61" x2="529.13" y2="401.83" fill="#ec008c" stroke="#ec008c" stroke-miterlimit="10"/><ellipse cx="544.25" cy="385.68" rx="11.34" ry="10.31" transform="translate(1.86 773.98) rotate(-70.92)" fill="#ec008c" stroke="#ec008c" stroke-miterlimit="10"/><line x1="430.12" y1="322.18" x2="540.79" y2="383.76" fill="#ec008c" stroke="#ec008c" stroke-miterlimit="10"/><ellipse cx="553.72" cy="365.82" rx="11.34" ry="10.31" transform="translate(82.92 833.54) rotate(-78.26)" fill="#ec008c" stroke="#ec008c" stroke-miterlimit="10"/><line x1="432.42" y1="317.41" x2="550.05" y2="364.35" fill="#ec008c" stroke="#ec008c" stroke-miterlimit="10"/><ellipse cx="560.59" cy="344.9" rx="11.34" ry="10.31" transform="translate(173.72 877.39) rotate(-85.6)" fill="#ec008c" stroke="#ec008c" stroke-miterlimit="10"/><line x1="434.09" y1="312.39" x2="556.75" y2="343.91" fill="#ec008c" stroke="#ec008c" stroke-miterlimit="10"/><ellipse cx="564.72" cy="323.28" rx="10.31" ry="11.34" transform="translate(-15.85 29.42) rotate(-2.94)" fill="#ec008c" stroke="#ec008c" stroke-miterlimit="10"/><line x1="435.1" y1="307.19" x2="560.79" y2="322.79" fill="#ec008c" stroke="#ec008c" stroke-miterlimit="10"/><ellipse cx="566.05" cy="301.3" rx="10.31" ry="11.34" transform="translate(-44.69 105.88) rotate(-10.28)" fill="#ec008c" stroke="#ec008c" stroke-miterlimit="10"/><line x1="435.44" y1="301.91" x2="562.09" y2="301.32" fill="#ec008c" stroke="#ec008c" stroke-miterlimit="10"/><ellipse cx="564.57" cy="279.34" rx="10.31" ry="11.34" transform="translate(-58.07 184.03) rotate(-17.62)" fill="#ec008c" stroke="#ec008c" stroke-miterlimit="10"/><line x1="435.11" y1="296.63" x2="560.65" y2="279.86" fill="#ec008c" stroke="#ec008c" stroke-miterlimit="10"/><ellipse cx="560.3" cy="257.75" rx="10.31" ry="11.34" transform="translate(-56.44 260.54) rotate(-24.96)" fill="#ec008c" stroke="#ec008c" stroke-miterlimit="10"/><line x1="434.1" y1="291.43" x2="556.47" y2="258.77" fill="#ec008c" stroke="#ec008c" stroke-miterlimit="10"/><ellipse cx="553.3" cy="236.88" rx="10.31" ry="11.34" transform="translate(-40.95 332.33) rotate(-32.3)" fill="#ec008c" stroke="#ec008c" stroke-miterlimit="10"/><line x1="432.44" y1="286.41" x2="549.63" y2="238.38" fill="#ec008c" stroke="#ec008c" stroke-miterlimit="10"/><ellipse cx="543.69" cy="217.07" rx="10.31" ry="11.34" transform="translate(-13.46 396.79) rotate(-39.64)" fill="#ec008c" stroke="#ec008c" stroke-miterlimit="10"/><line x1="430.15" y1="281.64" x2="540.24" y2="219.03" fill="#ec008c" stroke="#ec008c" stroke-miterlimit="10"/><ellipse cx="531.63" cy="198.65" rx="10.31" ry="11.34" transform="translate(23.69 451.82) rotate(-46.98)" fill="#ec008c" stroke="#ec008c" stroke-miterlimit="10"/><line x1="427.27" y1="277.2" x2="528.46" y2="201.04" fill="#ec008c" stroke="#ec008c" stroke-miterlimit="10"/><ellipse cx="517.31" cy="181.93" rx="10.31" ry="11.34" transform="translate(67.82 496.04) rotate(-54.32)" fill="#ec008c" stroke="#ec008c" stroke-miterlimit="10"/><line x1="423.85" y1="273.16" x2="514.48" y2="184.7" fill="#ec008c" stroke="#ec008c" stroke-miterlimit="10"/><ellipse cx="500.98" cy="167.17" rx="10.31" ry="11.34" transform="translate(116.04 528.77) rotate(-61.66)" fill="#ec008c" stroke="#ec008c" stroke-miterlimit="10"/><line x1="419.93" y1="269.6" x2="498.52" y2="170.28" fill="#ec008c" stroke="#ec008c" stroke-miterlimit="10"/><path d="M518.61,472.15c-1.03,0-2.01-.13-2.95-.4-.93-.26-1.7-.64-2.3-1.13-.6-.49-.9-1.08-.92-1.76-.02-.48.12-.9.42-1.27.3-.37.73-.55,1.29-.55.29,0,.53.05.73.16s.37.23.53.38c.16.15.31.31.46.47.32.34.72.6,1.18.78.47.18,1.03.28,1.69.28s1.16-.11,1.61-.34c.44-.22.78-.52,1.02-.9.23-.38.35-.79.35-1.24,0-.7-.16-1.22-.47-1.54-.31-.32-.74-.53-1.28-.64-.54-.1-1.14-.16-1.8-.16h-.97c-.47,0-.84-.11-1.12-.32-.28-.22-.42-.61-.42-1.19,0-.53.14-.91.41-1.14.27-.23.62-.35,1.04-.35h.92c.64,0,1.21-.09,1.68-.28.47-.18.84-.46,1.1-.84s.39-.84.39-1.4c0-.77-.25-1.32-.74-1.64-.49-.33-1.09-.49-1.8-.49-.64,0-1.22.11-1.72.34-.5.22-.88.58-1.14,1.08-.16.26-.35.47-.57.64s-.5.25-.83.25c-.55,0-.97-.17-1.27-.5s-.45-.72-.45-1.15c0-.77.28-1.42.85-1.96.56-.54,1.3-.95,2.22-1.25.92-.3,1.91-.44,2.97-.44.76,0,1.5.08,2.22.25.72.17,1.38.44,1.96.83.58.38,1.04.87,1.38,1.46.34.59.51,1.31.51,2.16,0,.51-.09,1.05-.27,1.61-.18.56-.51,1.06-.99,1.5-.48.44-1.18.75-2.08.92.76.05,1.44.23,2.04.55s1.08.78,1.44,1.39c.35.61.53,1.37.53,2.28,0,.96-.2,1.79-.6,2.48-.4.7-.94,1.27-1.62,1.73s-1.42.79-2.22,1.01c-.81.22-1.61.32-2.42.32Z" fill="#a8228e"/><path d="M534.58,469.68c-.84,0-1.67-.09-2.5-.28s-1.58-.48-2.25-.88-1.21-.92-1.61-1.55c-.4-.63-.6-1.4-.6-2.32,0-.96.17-1.74.51-2.33.34-.59.77-1.05,1.3-1.38.53-.33,1.1-.55,1.69-.66-.39-.11-.8-.32-1.25-.64-.44-.31-.83-.74-1.15-1.27-.32-.54-.48-1.19-.48-1.96,0-.86.17-1.61.52-2.24.35-.63.82-1.15,1.41-1.56.6-.41,1.27-.71,2.03-.91.76-.2,1.55-.3,2.37-.3s1.61.1,2.36.3c.75.2,1.42.5,2.01.91.59.41,1.05.93,1.4,1.56s.52,1.38.52,2.24c0,.77-.16,1.42-.47,1.96-.31.54-.69.96-1.12,1.26-.44.3-.85.51-1.23.62.6.13,1.16.35,1.69.67.53.32.97.78,1.31,1.38.34.6.51,1.38.51,2.34s-.2,1.68-.6,2.32c-.4.63-.93,1.15-1.6,1.55s-1.41.69-2.24.88-1.67.28-2.53.28ZM534.58,466.82c.61,0,1.16-.1,1.64-.3s.86-.49,1.14-.88c.27-.38.41-.86.41-1.44s-.14-1.04-.44-1.44c-.29-.4-.67-.7-1.15-.91-.48-.21-1.01-.31-1.61-.31s-1.14.11-1.62.32-.86.52-1.14.91-.41.87-.41,1.43.14,1.06.41,1.44c.27.38.65.68,1.12.88s1.02.3,1.63.3ZM534.61,459.21c.52,0,.97-.1,1.37-.3.39-.2.7-.48.92-.85.22-.37.33-.79.33-1.27,0-.82-.24-1.44-.73-1.88s-1.11-.66-1.89-.66c-.82,0-1.48.22-1.97.66-.49.44-.74,1.07-.74,1.88,0,.53.12.97.36,1.33.24.36.56.63.97.82.4.18.86.28,1.38.28Z" fill="#a8228e"/><path d="M545.15,469.68c-.68,0-1.2-.18-1.56-.53s-.54-.87-.54-1.56.18-1.23.54-1.58c.36-.35.88-.53,1.56-.53.66-.02,1.18.16,1.55.52s.56.89.56,1.6-.18,1.23-.56,1.57-.89.52-1.55.52Z" fill="#a8228e"/><path d="M552.16,472.6c-.6,0-1.08-.16-1.46-.47-.38-.31-.57-.81-.57-1.5,0-.9.08-1.84.23-2.82.15-.98.38-1.98.69-2.99.31-1.01.68-1.98,1.12-2.9.44-.93.96-1.79,1.56-2.59.6-.8,1.26-1.48,1.98-2.04-.71,0-1.33,0-1.86.01-.53,0-1,.02-1.4.04-.4.02-.75.03-1.04.05-.29.02-.55.04-.77.07-.27.05-.62.08-1.05.11-.43.02-.83.04-1.22.04-.48,0-.89-.16-1.22-.49-.33-.33-.5-.78-.5-1.36,0-.66.17-1.12.52-1.4.35-.28.77-.42,1.27-.42h9.72c.61,0,1.04.14,1.28.43s.36.68.36,1.18c0,.45-.06.82-.19,1.1s-.29.54-.48.74-.39.42-.6.65c-.87.9-1.6,1.88-2.18,2.96s-1.03,2.19-1.35,3.34c-.32,1.14-.55,2.25-.69,3.32-.14,1.07-.21,2.06-.21,2.95,0,.54-.13,1.01-.4,1.4-.27.39-.78.59-1.54.59Z" fill="#a8228e"/><path d="M567.97,469.68c-.84,0-1.67-.09-2.5-.28-.83-.18-1.58-.48-2.25-.88s-1.21-.92-1.61-1.55c-.4-.63-.6-1.4-.6-2.32,0-.96.17-1.74.51-2.33.34-.59.77-1.05,1.31-1.38s1.1-.55,1.69-.66c-.39-.11-.8-.32-1.25-.64-.44-.31-.83-.74-1.15-1.27-.32-.54-.48-1.19-.48-1.96,0-.86.17-1.61.52-2.24s.82-1.15,1.41-1.56c.6-.41,1.27-.71,2.03-.91.76-.2,1.55-.3,2.37-.3s1.61.1,2.36.3c.75.2,1.42.5,2.01.91s1.06.93,1.4,1.56.52,1.38.52,2.24c0,.77-.16,1.42-.47,1.96-.31.54-.69.96-1.12,1.26-.43.3-.85.51-1.23.62.6.13,1.16.35,1.69.67.53.32.97.78,1.31,1.38.34.6.51,1.38.51,2.34s-.2,1.68-.6,2.32c-.4.63-.93,1.15-1.59,1.55-.66.4-1.41.69-2.24.88s-1.67.28-2.53.28ZM567.97,466.82c.61,0,1.16-.1,1.64-.3s.86-.49,1.14-.88c.27-.38.41-.86.41-1.44s-.15-1.04-.44-1.44c-.29-.4-.67-.7-1.15-.91s-1.01-.31-1.61-.31-1.14.11-1.62.32-.86.52-1.14.91c-.27.39-.41.87-.41,1.43s.14,1.06.41,1.44c.27.38.65.68,1.12.88.47.2,1.02.3,1.63.3ZM568,459.21c.52,0,.97-.1,1.37-.3s.7-.48.92-.85.33-.79.33-1.27c0-.82-.24-1.44-.73-1.88-.48-.44-1.11-.66-1.88-.66-.82,0-1.48.22-1.97.66-.49.44-.74,1.07-.74,1.88,0,.53.12.97.36,1.33.24.36.56.63.97.82.4.18.86.28,1.38.28Z" fill="#a8228e"/><path d="M581.29,460.87c-1.4,0-2.53-.42-3.4-1.26s-1.29-2.01-1.29-3.52.43-2.69,1.29-3.52,1.99-1.24,3.4-1.24,2.5.41,3.35,1.24c.85.82,1.27,2,1.27,3.52s-.42,2.7-1.27,3.54c-.85.84-1.96,1.25-3.35,1.24ZM581.29,458.61c.66,0,1.17-.22,1.52-.66.35-.44.53-1.07.53-1.88s-.18-1.41-.53-1.84-.86-.64-1.52-.64-1.22.21-1.58.64c-.36.42-.54,1.04-.54,1.84s.18,1.44.54,1.88c.36.44.89.66,1.58.66ZM582.89,470.49c-.39,0-.7-.16-.94-.47-.24-.31-.27-.66-.1-1.04l8.27-17.33c.13-.26.29-.43.47-.53.18-.1.37-.14.57-.14.39,0,.69.16.92.48.23.32.24.68.05,1.08l-8.24,17.35c-.1.22-.25.38-.46.47-.21.09-.39.13-.53.13ZM592.94,469.6c-1.4,0-2.53-.42-3.4-1.26-.86-.84-1.29-2.02-1.29-3.54s.43-2.69,1.29-3.52,1.99-1.24,3.4-1.24,2.5.41,3.35,1.24c.85.82,1.27,2,1.27,3.52s-.42,2.72-1.27,3.55c-.85.83-1.96,1.25-3.35,1.25ZM592.92,467.32c.68,0,1.19-.22,1.55-.65.35-.43.53-1.06.53-1.87s-.18-1.43-.53-1.85-.87-.62-1.55-.62-1.2.21-1.56.62c-.36.42-.54,1.03-.54,1.85s.18,1.44.54,1.87c.36.43.88.65,1.56.65Z" fill="#a8228e"/><path d="M609.99,469.63c-.56,0-1.17-.05-1.83-.16-.65-.1-1.26-.3-1.83-.59-.43-.21-.8-.46-1.09-.77s-.43-.66-.43-1.08.14-.77.41-1.1c.27-.34.65-.5,1.14-.5.29,0,.56.06.81.18s.5.26.76.42c.35.18.73.34,1.12.48.39.14.85.22,1.37.22.47,0,.86-.09,1.18-.28.32-.18.48-.47.48-.85,0-.21-.06-.38-.19-.52-.13-.14-.31-.26-.56-.36-.24-.1-.54-.2-.91-.29-.36-.09-.78-.2-1.25-.32-.48-.11-.96-.25-1.44-.42s-.91-.39-1.32-.67c-.4-.28-.72-.64-.97-1.09-.24-.45-.36-1.01-.36-1.68,0-.83.23-1.55.68-2.15.45-.6,1.08-1.06,1.87-1.37.8-.31,1.71-.47,2.74-.47.45,0,.96.05,1.51.14.56.1,1.09.26,1.61.5.43.22.79.48,1.06.78.27.3.41.66.41,1.09s-.13.78-.39,1.1c-.26.32-.62.48-1.09.48-.34,0-.62-.07-.86-.22-.23-.14-.5-.29-.79-.43-.27-.16-.55-.29-.82-.38-.27-.1-.58-.14-.92-.14-.52,0-.91.09-1.17.26-.27.18-.4.43-.4.77,0,.3.11.54.33.71.22.17.52.31.89.42.38.11.8.22,1.27.31.48.11.99.24,1.52.4.53.15,1.03.36,1.49.64.46.27.83.64,1.12,1.09s.43,1.05.43,1.79-.17,1.39-.5,1.91c-.33.52-.77.94-1.33,1.25-.56.31-1.16.54-1.83.68-.66.14-1.32.22-1.98.22Z" fill="#a8228e"/><path d="M623.74,469.63c-1.24,0-2.36-.27-3.36-.8-1-.54-1.8-1.3-2.39-2.3-.6-1-.89-2.2-.89-3.61,0-1.33.29-2.49.88-3.49.59-1,1.39-1.78,2.41-2.34,1.01-.56,2.16-.84,3.43-.84.93,0,1.77.12,2.5.36.73.24,1.31.58,1.73,1.01.42.43.63.94.63,1.51,0,.54-.15.96-.46,1.26-.31.3-.68.44-1.11.44-.37,0-.65-.07-.85-.2s-.39-.28-.6-.44c-.18-.13-.4-.26-.68-.41-.27-.14-.66-.22-1.16-.22s-1,.12-1.45.35c-.45.23-.81.6-1.09,1.1-.27.5-.41,1.18-.41,2.03,0,.69.13,1.29.39,1.8.26.51.61.91,1.06,1.19.45.28.97.42,1.55.42.37,0,.71-.06,1.03-.18.31-.12.6-.29.86-.52.18-.14.37-.26.57-.36.2-.1.44-.14.71-.14.39.02.73.15,1.03.41.3.26.45.63.45,1.13,0,.34-.08.64-.23.92s-.36.53-.62.76c-.29.24-.64.45-1.05.62-.41.18-.86.31-1.34.41s-.99.14-1.52.14Z" fill="#a8228e"/><path d="M632.4,469.63c-.58,0-1.04-.19-1.38-.56s-.51-.88-.51-1.52v-15.31c0-.64.17-1.13.51-1.48.34-.34.81-.52,1.4-.52.64,0,1.12.17,1.44.52.31.34.47.84.47,1.48l.02,5.74c0,.32-.02.64-.05.96-.03.32-.06.65-.07.98.1-.51.25-.99.46-1.43.21-.44.48-.82.82-1.15.34-.33.75-.59,1.25-.78.49-.19,1.06-.29,1.71-.29,1.35,0,2.38.42,3.09,1.26s1.06,2.04,1.06,3.61l.05,6.34c0,.69-.18,1.22-.53,1.6s-.82.56-1.4.56c-.61,0-1.09-.19-1.43-.58-.34-.38-.51-.91-.51-1.58v-5.52c0-.74-.17-1.31-.52-1.73-.35-.42-.81-.62-1.39-.62-.4,0-.76.1-1.06.29-.31.19-.56.44-.77.76-.21.31-.38.65-.5,1.01-.12.36-.2.7-.23,1.02v4.87c0,.64-.17,1.15-.51,1.52-.34.38-.81.56-1.43.56Z" fill="#a8228e"/><path d="M651.59,469.63c-1.26,0-2.39-.26-3.38-.77s-1.79-1.27-2.37-2.28-.87-2.24-.87-3.7.3-2.63.89-3.61c.6-.98,1.4-1.74,2.41-2.26,1.01-.52,2.13-.78,3.37-.78s2.4.26,3.38.78c.98.52,1.76,1.27,2.33,2.24.57.98.86,2.18.86,3.62s-.29,2.69-.87,3.7-1.37,1.77-2.36,2.28-2.12.77-3.4.77ZM651.59,466.58c.56,0,1.06-.13,1.47-.4.42-.26.75-.66.99-1.2s.36-1.24.36-2.1-.12-1.54-.36-2.06-.57-.92-.99-1.16-.91-.37-1.47-.37c-.53,0-1.01.13-1.44.4-.43.26-.77.66-1.02,1.18s-.37,1.2-.37,2.03c0,.88.12,1.59.37,2.14s.59.94,1.03,1.19c.44.25.91.37,1.43.37Z" fill="#a8228e"/><path d="M666.58,469.63c-1.26,0-2.39-.26-3.38-.77s-1.79-1.27-2.37-2.28-.87-2.24-.87-3.7.3-2.63.89-3.61c.6-.98,1.4-1.74,2.41-2.26,1.01-.52,2.13-.78,3.37-.78s2.4.26,3.38.78c.98.52,1.76,1.27,2.33,2.24.57.98.86,2.18.86,3.62s-.29,2.69-.87,3.7-1.37,1.77-2.36,2.28-2.12.77-3.4.77ZM666.58,466.58c.56,0,1.06-.13,1.47-.4.42-.26.75-.66.99-1.2s.36-1.24.36-2.1-.12-1.54-.36-2.06-.57-.92-.99-1.16-.91-.37-1.47-.37c-.53,0-1.01.13-1.44.4-.43.26-.77.66-1.02,1.18s-.37,1.2-.37,2.03c0,.88.12,1.59.37,2.14s.59.94,1.03,1.19c.44.25.91.37,1.43.37Z" fill="#a8228e"/><path d="M677.51,469.63c-.58,0-1.05-.18-1.4-.53-.35-.35-.53-.84-.53-1.46v-15.43c0-.64.18-1.13.53-1.46s.82-.5,1.4-.5c.61,0,1.09.17,1.43.5.34.34.51.85.51,1.54v15.46c0,.67-.17,1.16-.51,1.45-.34.3-.81.44-1.43.44Z" fill="#a8228e"/><path d="M681.42,471.67c-.34-.13-.59-.35-.75-.67s-.15-.74.02-1.25l6.87-18.91c.23-.56.52-.89.89-1,.37-.1.72-.08,1.04.06.34.13.59.35.76.66.17.31.16.72-.04,1.24l-6.87,18.91c-.21.56-.5.89-.87,1-.37.1-.73.09-1.06-.04Z" fill="#a8228e"/><path d="M696.51,469.63c-1.24,0-2.36-.27-3.36-.8-1-.54-1.8-1.3-2.39-2.3-.6-1-.89-2.2-.89-3.61,0-1.33.29-2.49.88-3.49.59-1,1.39-1.78,2.41-2.34,1.01-.56,2.16-.84,3.43-.84.93,0,1.77.12,2.5.36.73.24,1.31.58,1.73,1.01.42.43.63.94.63,1.51,0,.54-.15.96-.46,1.26-.31.3-.68.44-1.11.44-.37,0-.65-.07-.85-.2s-.39-.28-.6-.44c-.18-.13-.4-.26-.68-.41-.27-.14-.66-.22-1.16-.22s-1,.12-1.45.35c-.45.23-.81.6-1.09,1.1-.27.5-.41,1.18-.41,2.03,0,.69.13,1.29.39,1.8.26.51.61.91,1.06,1.19.45.28.97.42,1.55.42.37,0,.71-.06,1.03-.18.31-.12.6-.29.86-.52.18-.14.37-.26.57-.36.2-.1.44-.14.71-.14.39.02.73.15,1.03.41.3.26.45.63.45,1.13,0,.34-.08.64-.23.92s-.36.53-.62.76c-.29.24-.64.45-1.05.62-.41.18-.86.31-1.34.41s-.99.14-1.52.14Z" fill="#a8228e"/><path d="M705.21,469.63c-.58,0-1.05-.18-1.4-.53-.36-.35-.53-.84-.53-1.46v-15.43c0-.64.18-1.13.53-1.46.35-.34.82-.5,1.4-.5.61,0,1.09.17,1.43.5.34.34.51.85.51,1.54v15.46c0,.67-.17,1.16-.51,1.45-.34.3-.81.44-1.43.44Z" fill="#a8228e"/><path d="M722.09,468.02c0,.38-.09.69-.27.92-.18.23-.42.4-.71.5-.3.1-.63.16-1,.16-.52,0-.98-.12-1.38-.35-.4-.23-.72-.57-.94-1.01-.23-.44-.35-.96-.36-1.55-.11.53-.33,1.01-.65,1.45s-.73.79-1.23,1.06c-.5.26-1.1.4-1.81.4-.77,0-1.49-.16-2.15-.47-.66-.31-1.19-.77-1.58-1.37-.4-.6-.59-1.33-.59-2.2,0-.67.11-1.25.33-1.73.22-.48.52-.89.92-1.22.4-.34.86-.59,1.39-.76.53-.17,1.11-.25,1.74-.25.66,0,1.23.08,1.7.24s.86.35,1.16.56c.3.22.51.43.64.64v-1.73c0-.61-.16-1.11-.48-1.5-.32-.39-.82-.6-1.5-.61-.39,0-.72.05-.99.14-.27.1-.53.21-.77.34-.21.1-.4.21-.58.34-.18.13-.36.23-.54.31-.18.08-.42.12-.71.12-.4,0-.75-.15-1.04-.46-.29-.3-.44-.71-.44-1.22,0-.42.12-.76.38-1.04s.56-.52.93-.71c.48-.27,1.04-.47,1.68-.6.64-.13,1.22-.19,1.75-.19,1.18,0,2.15.13,2.91.38s1.37.62,1.8,1.09c.44.47.74,1.02.91,1.66s.25,1.33.25,2.1v3.86c0,.4.05.69.14.86s.22.32.36.43c.18.13.35.28.51.46.16.18.24.49.24.94ZM714.93,467.2c.4,0,.76-.07,1.06-.22.31-.14.56-.34.77-.59.21-.25.38-.52.51-.8v-.86c-.11-.13-.28-.26-.5-.4-.22-.14-.46-.25-.74-.35s-.57-.14-.89-.14c-.4,0-.76.07-1.08.2-.31.14-.56.33-.75.58s-.28.56-.28.92.09.7.28.95.42.43.71.54c.29.11.59.17.89.17Z" fill="#a8228e"/><path d="M728.32,469.63c-.56,0-1.17-.05-1.83-.16-.65-.1-1.26-.3-1.83-.59-.43-.21-.8-.46-1.09-.77s-.43-.66-.43-1.08.14-.77.41-1.1c.27-.34.65-.5,1.14-.5.29,0,.56.06.81.18s.5.26.76.42c.35.18.73.34,1.12.48.39.14.85.22,1.37.22.47,0,.86-.09,1.18-.28.32-.18.48-.47.48-.85,0-.21-.06-.38-.19-.52-.13-.14-.31-.26-.56-.36-.24-.1-.54-.2-.91-.29-.36-.09-.78-.2-1.25-.32-.48-.11-.96-.25-1.44-.42s-.91-.39-1.32-.67c-.4-.28-.72-.64-.97-1.09-.24-.45-.36-1.01-.36-1.68,0-.83.23-1.55.68-2.15.45-.6,1.08-1.06,1.87-1.37.8-.31,1.71-.47,2.74-.47.45,0,.96.05,1.51.14.56.1,1.09.26,1.61.5.43.22.79.48,1.06.78.27.3.41.66.41,1.09s-.13.78-.39,1.1c-.26.32-.62.48-1.09.48-.34,0-.62-.07-.86-.22-.23-.14-.5-.29-.79-.43-.27-.16-.55-.29-.82-.38-.27-.1-.58-.14-.92-.14-.52,0-.91.09-1.17.26-.27.18-.4.43-.4.77,0,.3.11.54.33.71.22.17.52.31.89.42.38.11.8.22,1.27.31.48.11.99.24,1.52.4.53.15,1.03.36,1.49.64.46.27.83.64,1.12,1.09s.43,1.05.43,1.79-.17,1.39-.5,1.91c-.33.52-.77.94-1.33,1.25-.56.31-1.16.54-1.83.68-.66.14-1.32.22-1.98.22Z" fill="#a8228e"/><path d="M740.53,469.63c-.56,0-1.17-.05-1.83-.16-.65-.1-1.26-.3-1.83-.59-.43-.21-.8-.46-1.09-.77s-.43-.66-.43-1.08.14-.77.41-1.1c.27-.34.65-.5,1.14-.5.29,0,.56.06.81.18s.5.26.76.42c.35.18.73.34,1.12.48.39.14.85.22,1.37.22.47,0,.86-.09,1.18-.28.32-.18.48-.47.48-.85,0-.21-.06-.38-.19-.52-.13-.14-.31-.26-.56-.36-.24-.1-.54-.2-.91-.29-.36-.09-.78-.2-1.25-.32-.48-.11-.96-.25-1.44-.42s-.91-.39-1.32-.67c-.4-.28-.72-.64-.97-1.09-.24-.45-.36-1.01-.36-1.68,0-.83.23-1.55.68-2.15.45-.6,1.08-1.06,1.87-1.37.8-.31,1.71-.47,2.74-.47.45,0,.96.05,1.51.14.56.1,1.09.26,1.61.5.43.22.79.48,1.06.78.27.3.41.66.41,1.09s-.13.78-.39,1.1c-.26.32-.62.48-1.09.48-.34,0-.62-.07-.86-.22-.23-.14-.5-.29-.79-.43-.27-.16-.55-.29-.82-.38-.27-.1-.58-.14-.92-.14-.52,0-.91.09-1.17.26-.27.18-.4.43-.4.77,0,.3.11.54.33.71.22.17.52.31.89.42.38.11.8.22,1.27.31.48.11.99.24,1.52.4.53.15,1.03.36,1.49.64.46.27.83.64,1.12,1.09s.43,1.05.43,1.79-.17,1.39-.5,1.91c-.33.52-.77.94-1.33,1.25-.56.31-1.16.54-1.83.68-.66.14-1.32.22-1.98.22Z" fill="#a8228e"/><path d="M754.19,469.63c-1.35,0-2.52-.27-3.49-.8-.98-.54-1.72-1.3-2.25-2.28-.52-.98-.79-2.16-.79-3.54s.25-2.5.74-3.52c.49-1.02,1.21-1.81,2.15-2.39.94-.58,2.08-.86,3.4-.86,1.1,0,2.08.22,2.95.67.87.45,1.56,1.1,2.07,1.96.51.86.76,1.91.76,3.16,0,.58-.13,1.05-.39,1.42s-.72.55-1.38.55h-7.42v-2.02h5.63c0-.48-.07-.93-.22-1.36-.14-.42-.38-.78-.71-1.06-.33-.28-.77-.42-1.32-.42-.6,0-1.08.14-1.46.43-.38.29-.66.68-.83,1.18-.18.5-.27,1.08-.27,1.75l.02,1.51c.02.48.14.92.36,1.33.23.41.55.74.97.98.42.25.93.37,1.52.37.5,0,.91-.08,1.23-.24.32-.16.64-.37.97-.62.19-.16.4-.29.62-.38.22-.1.45-.14.69-.14.45,0,.81.14,1.06.42s.39.64.39,1.07c0,.3-.06.58-.17.82-.11.24-.27.46-.48.67-.26.26-.6.48-1.02.68-.42.2-.91.36-1.47.48s-1.18.18-1.86.18Z" fill="#a8228e"/><path d="M766.45,469.63c-.56,0-1.17-.05-1.83-.16-.65-.1-1.26-.3-1.83-.59-.44-.21-.8-.46-1.09-.77s-.44-.66-.44-1.08.14-.77.41-1.1c.27-.34.65-.5,1.14-.5.29,0,.56.06.81.18s.5.26.76.42c.35.18.73.34,1.12.48.39.14.85.22,1.37.22.47,0,.86-.09,1.18-.28.32-.18.48-.47.48-.85,0-.21-.07-.38-.19-.52-.13-.14-.31-.26-.56-.36-.24-.1-.54-.2-.91-.29-.36-.09-.78-.2-1.25-.32-.48-.11-.96-.25-1.44-.42s-.92-.39-1.32-.67c-.4-.28-.73-.64-.97-1.09-.24-.45-.36-1.01-.36-1.68,0-.83.23-1.55.68-2.15.45-.6,1.08-1.06,1.87-1.37.8-.31,1.71-.47,2.74-.47.45,0,.96.05,1.51.14s1.09.26,1.61.5c.44.22.79.48,1.06.78.27.3.41.66.41,1.09s-.13.78-.39,1.1c-.26.32-.62.48-1.09.48-.34,0-.62-.07-.86-.22-.23-.14-.5-.29-.79-.43-.27-.16-.55-.29-.82-.38s-.58-.14-.92-.14c-.52,0-.91.09-1.17.26-.27.18-.4.43-.4.77,0,.3.11.54.33.71.22.17.52.31.89.42.38.11.8.22,1.27.31.48.11.99.24,1.52.4.53.15,1.03.36,1.49.64s.83.64,1.12,1.09.44,1.05.44,1.79-.17,1.39-.5,1.91-.77.94-1.33,1.25c-.56.31-1.17.54-1.83.68-.66.14-1.32.22-1.98.22Z" fill="#a8228e"/><path d="M66.03,472.4c-1.03,0-2.01-.13-2.95-.4-.94-.26-1.7-.64-2.3-1.13-.6-.49-.9-1.08-.92-1.76-.02-.48.12-.9.42-1.27s.73-.55,1.29-.55c.29,0,.53.05.73.16.19.1.37.23.53.38.16.15.31.31.46.47.32.34.72.6,1.18.78.47.18,1.03.28,1.69.28s1.16-.11,1.61-.34c.44-.22.78-.52,1.02-.9.23-.38.35-.79.35-1.24,0-.7-.16-1.22-.47-1.54-.31-.32-.74-.53-1.28-.64-.54-.1-1.14-.16-1.8-.16h-.97c-.47,0-.84-.11-1.12-.32-.28-.22-.42-.61-.42-1.19,0-.53.14-.91.41-1.14.27-.23.62-.35,1.04-.35h.92c.64,0,1.2-.09,1.68-.28.48-.18.84-.46,1.1-.84.26-.38.39-.84.39-1.4,0-.77-.25-1.32-.74-1.64-.49-.33-1.09-.49-1.8-.49-.64,0-1.22.11-1.72.34-.5.22-.88.58-1.14,1.08-.16.26-.35.47-.57.64-.22.17-.5.25-.83.25-.55,0-.97-.17-1.27-.5-.3-.34-.45-.72-.45-1.15,0-.77.28-1.42.85-1.96.56-.54,1.31-.95,2.22-1.25.92-.3,1.91-.44,2.97-.44.76,0,1.5.08,2.22.25.73.17,1.38.44,1.96.83s1.04.87,1.38,1.46c.34.59.51,1.31.51,2.16,0,.51-.09,1.05-.27,1.61-.18.56-.51,1.06-.99,1.5-.48.44-1.18.75-2.08.92.76.05,1.44.23,2.04.55.6.32,1.08.78,1.44,1.39.35.61.53,1.37.53,2.28,0,.96-.2,1.79-.6,2.48s-.94,1.27-1.62,1.73-1.42.79-2.22,1.01c-.81.22-1.61.32-2.42.32Z" fill="#a8228e"/><path d="M81.88,453.89c1.61,0,2.93.33,3.96,1,1.03.66,1.79,1.6,2.28,2.81.49,1.21.74,2.61.74,4.21s-.25,3-.74,4.2c-.49,1.2-1.25,2.13-2.28,2.78-1.03.66-2.35.98-3.96.98s-2.93-.33-3.96-.98c-1.03-.66-1.79-1.58-2.28-2.78-.49-1.2-.74-2.6-.74-4.2s.25-3,.74-4.21c.49-1.21,1.25-2.14,2.28-2.81s2.35-1,3.96-1ZM81.88,456.87c-.66,0-1.2.13-1.62.4-.42.26-.75.63-.98,1.09-.23.46-.4,1-.48,1.61s-.13,1.26-.13,1.94.04,1.36.13,1.96c.09.6.25,1.13.48,1.58.23.46.56.82.98,1.08.42.26.96.4,1.62.4s1.18-.13,1.6-.4c.42-.26.75-.62.98-1.08.23-.46.39-.98.48-1.58.09-.6.13-1.25.13-1.96s-.04-1.34-.13-1.94c-.09-.61-.25-1.14-.48-1.61-.23-.46-.56-.83-.98-1.09-.42-.26-.95-.4-1.6-.4Z" fill="#a8228e"/><path d="M92.11,469.92c-.68,0-1.2-.18-1.56-.53-.36-.35-.54-.87-.54-1.56s.18-1.23.54-1.58c.36-.35.88-.53,1.56-.53.66-.02,1.18.16,1.55.52.37.36.56.89.56,1.6s-.19,1.23-.56,1.57c-.37.34-.89.52-1.55.52Z" fill="#a8228e"/><path d="M102.29,469.92c-1.18,0-2.21-.23-3.11-.7-.89-.46-1.64-1.11-2.25-1.93-.6-.82-1.06-1.78-1.38-2.87-.31-1.09-.47-2.25-.47-3.48,0-1.33.2-2.56.59-3.7.39-1.14.96-2.13,1.7-2.99.74-.86,1.62-1.53,2.65-2.02,1.02-.49,2.16-.73,3.42-.73.55,0,1.11.04,1.69.13.58.09,1.09.24,1.52.44.44.19.81.45,1.12.78s.48.76.5,1.28c.02.46-.13.87-.45,1.21-.31.34-.71.52-1.17.52-.37,0-.69-.08-.97-.24-.27-.16-.51-.31-.7-.46-.23-.14-.48-.27-.76-.38-.28-.11-.61-.17-.98-.17-.94,0-1.76.26-2.47.77-.71.51-1.26,1.22-1.64,2.14s-.57,1.98-.56,3.19c.15-.3.35-.62.63-.94s.61-.62,1.02-.89c.4-.27.87-.49,1.4-.66.53-.17,1.14-.25,1.81-.25,1.16,0,2.18.23,3.05.68s1.55,1.1,2.03,1.94.73,1.83.73,2.96c0,1.22-.29,2.3-.86,3.25-.57.95-1.37,1.7-2.41,2.26s-2.26.83-3.7.83ZM102.34,466.92c.68,0,1.25-.13,1.73-.38.48-.26.84-.63,1.09-1.12s.38-1.08.38-1.76c0-.9-.27-1.6-.8-2.11s-1.23-.77-2.08-.77c-.45,0-.87.08-1.27.23-.4.15-.75.35-1.08.6-.32.25-.59.52-.81.82-.22.3-.36.58-.42.85.05.67.21,1.29.5,1.85.28.56.66,1,1.14,1.32.48.32,1.02.48,1.63.48Z" fill="#a8228e"/><path d="M116.33,469.9c-.56,0-1.03-.16-1.39-.48-.36-.32-.54-.78-.54-1.39v-8.21c0-.37.02-.74.07-1.12s.13-.79.24-1.24c-.24.27-.48.55-.7.84s-.48.57-.77.84c-.23.22-.48.41-.76.55-.28.14-.61.22-.98.22-.58,0-1.04-.2-1.38-.6-.34-.4-.51-.86-.51-1.37.02-.5.18-.91.48-1.25.31-.34.73-.56,1.28-.67.45-.08.92-.2,1.41-.37.49-.17.96-.41,1.41-.73.26-.19.51-.36.75-.52.24-.15.5-.28.76-.37.27-.1.55-.14.86-.14.61,0,1.04.18,1.29.53.25.35.38.78.38,1.27v12.34c0,.61-.17,1.07-.52,1.39-.35.32-.81.48-1.39.48Z" fill="#a8228e"/><path d="M125.35,461.12c-1.4,0-2.53-.42-3.4-1.26s-1.29-2.01-1.29-3.52.43-2.69,1.29-3.52,1.99-1.24,3.4-1.24,2.5.41,3.35,1.24,1.27,2,1.27,3.52-.42,2.7-1.27,3.54-1.96,1.25-3.35,1.24ZM125.35,458.86c.66,0,1.17-.22,1.52-.66.35-.44.53-1.07.53-1.88s-.18-1.41-.53-1.84c-.35-.42-.86-.64-1.52-.64-.69,0-1.22.21-1.58.64-.36.42-.54,1.04-.54,1.84s.18,1.44.54,1.88c.36.44.89.66,1.58.66ZM126.95,470.74c-.39,0-.7-.16-.94-.47-.24-.31-.27-.66-.1-1.04l8.27-17.33c.13-.26.29-.43.47-.53.19-.1.37-.14.57-.14.39,0,.69.16.92.48.23.32.24.68.05,1.08l-8.24,17.35c-.1.22-.25.38-.46.47-.21.09-.39.13-.53.13ZM137,469.85c-1.4,0-2.53-.42-3.4-1.26-.86-.84-1.29-2.02-1.29-3.54s.43-2.69,1.29-3.52c.86-.82,1.99-1.24,3.4-1.24s2.5.41,3.35,1.24,1.27,2,1.27,3.52-.42,2.72-1.27,3.55c-.85.83-1.96,1.25-3.35,1.25ZM136.98,467.57c.68,0,1.19-.22,1.55-.65s.53-1.06.53-1.87-.18-1.43-.53-1.85-.87-.62-1.55-.62-1.2.21-1.56.62-.54,1.03-.54,1.85.18,1.44.54,1.87.88.65,1.56.65Z" fill="#a8228e"/><path d="M154.05,469.88c-.56,0-1.17-.05-1.83-.16s-1.26-.3-1.83-.59c-.44-.21-.8-.46-1.09-.77-.29-.3-.44-.66-.44-1.08s.14-.77.41-1.1c.27-.34.65-.5,1.14-.5.29,0,.56.06.81.18s.5.26.76.42c.35.18.73.34,1.12.48.39.14.85.22,1.37.22.47,0,.86-.09,1.18-.28.32-.18.48-.47.48-.85,0-.21-.06-.38-.19-.52-.13-.14-.31-.26-.56-.36-.24-.1-.54-.2-.91-.29s-.78-.2-1.25-.32c-.48-.11-.96-.25-1.44-.42s-.91-.39-1.32-.67c-.4-.28-.73-.64-.97-1.09s-.36-1.01-.36-1.68c0-.83.23-1.55.68-2.15s1.08-1.06,1.87-1.37c.8-.31,1.71-.47,2.74-.47.45,0,.96.05,1.51.14.56.1,1.09.26,1.61.5.44.22.79.48,1.06.78.27.3.41.66.41,1.09s-.13.78-.39,1.1c-.26.32-.62.48-1.09.48-.34,0-.62-.07-.86-.22-.23-.14-.5-.29-.79-.43-.27-.16-.55-.29-.82-.38-.27-.1-.58-.14-.92-.14-.52,0-.91.09-1.17.26-.27.18-.4.43-.4.77,0,.3.11.54.33.71.22.17.52.31.89.42.38.11.8.22,1.27.31.48.11.99.24,1.52.4.53.15,1.03.36,1.49.64.46.27.83.64,1.12,1.09.29.46.44,1.05.44,1.79s-.17,1.39-.5,1.91c-.33.52-.77.94-1.33,1.25-.56.31-1.16.54-1.83.68-.66.14-1.32.22-1.98.22Z" fill="#a8228e"/><path d="M167.71,469.88c-1.35,0-2.52-.27-3.49-.8-.98-.54-1.72-1.3-2.25-2.28-.52-.98-.79-2.16-.79-3.54s.25-2.5.74-3.52c.49-1.02,1.21-1.81,2.15-2.39s2.07-.86,3.4-.86c1.1,0,2.08.22,2.95.67.87.45,1.56,1.1,2.07,1.96.51.86.76,1.91.76,3.16,0,.58-.13,1.05-.39,1.42s-.72.55-1.38.55h-7.42v-2.02h5.63c0-.48-.07-.93-.22-1.36-.15-.42-.38-.78-.71-1.06-.33-.28-.77-.42-1.32-.42-.6,0-1.08.14-1.46.43-.38.29-.66.68-.83,1.18s-.27,1.08-.27,1.75l.02,1.51c.02.48.14.92.36,1.33.23.41.55.74.97.98.42.25.93.37,1.52.37.5,0,.91-.08,1.23-.24s.64-.37.97-.62c.19-.16.4-.29.62-.38.22-.1.45-.14.69-.14.45,0,.81.14,1.06.42.26.28.39.64.39,1.07,0,.3-.06.58-.17.82-.11.24-.27.46-.48.67-.26.26-.6.48-1.02.68-.42.2-.91.36-1.47.48-.56.12-1.18.18-1.86.18Z" fill="#a8228e"/><path d="M177.4,469.88c-.58,0-1.05-.18-1.4-.53-.35-.35-.53-.84-.53-1.46v-15.43c0-.64.18-1.13.53-1.46.35-.34.82-.5,1.4-.5.61,0,1.09.17,1.43.5.34.34.51.85.51,1.54v15.46c0,.67-.17,1.16-.51,1.45s-.81.44-1.43.44Z" fill="#a8228e"/><path d="M184.99,469.88c-.61,0-1.08-.16-1.39-.48-.31-.32-.47-.78-.47-1.37v-8.3h-.6c-.52,0-.89-.11-1.11-.34-.23-.22-.34-.62-.34-1.18s.12-.96.35-1.19c.23-.23.6-.35,1.1-.35h.63v-.89c0-1.17.19-2.16.57-2.96.38-.81.93-1.43,1.66-1.86s1.6-.65,2.64-.65c.39,0,.79.05,1.2.14.41.1.8.24,1.16.42s.65.42.87.7c.22.28.33.63.33,1.04,0,.53-.14.93-.41,1.2-.27.27-.6.41-.97.41-.32,0-.68-.12-1.06-.36-.11-.06-.26-.15-.44-.25-.18-.1-.4-.16-.65-.16-.45,0-.76.17-.93.5-.17.34-.25.83-.25,1.49v1.22h1.62c.4,0,.73.12.98.35.25.23.37.63.37,1.19s-.12.95-.37,1.18c-.25.22-.58.34-.98.34h-1.57v8.3c0,.58-.16,1.03-.48,1.36-.32.33-.8.49-1.43.49Z" fill="#a8228e"/><path d="M201.53,469.88c-.87,0-1.61-.16-2.21-.48-.6-.32-1.06-.78-1.37-1.39s-.46-1.35-.46-2.23v-6.05h-.53c-.52,0-.89-.11-1.14-.34-.24-.22-.36-.62-.36-1.18s.12-.96.37-1.19c.25-.23.62-.35,1.12-.35h.53v-1.9c0-.86.17-1.46.51-1.79s.81-.49,1.43-.49,1.03.16,1.29.48c.27.32.4.79.4,1.42v2.28h1.79c.47,0,.82.12,1.05.35.23.23.35.63.35,1.19s-.13.95-.39,1.18c-.26.22-.6.34-1.02.34h-1.79l-.02,5.74c0,.37.06.64.18.8s.33.25.62.25c.21,0,.4-.03.57-.1.17-.06.34-.13.52-.19.18-.06.39-.1.63-.1.31,0,.62.12.93.37s.47.65.47,1.21-.19.97-.57,1.28c-.38.31-.84.54-1.38.67-.54.14-1.05.2-1.54.2Z" fill="#a8228e"/><path d="M218.79,468.27c0,.38-.09.69-.27.92-.18.23-.42.4-.71.5-.3.1-.63.16-1,.16-.52,0-.98-.12-1.38-.35-.4-.23-.72-.57-.94-1.01-.23-.44-.35-.96-.36-1.55-.11.53-.33,1.01-.65,1.45-.32.44-.73.79-1.23,1.06-.5.26-1.1.4-1.81.4-.77,0-1.49-.16-2.15-.47-.66-.31-1.19-.77-1.58-1.37-.4-.6-.59-1.33-.59-2.2,0-.67.11-1.25.33-1.73.22-.48.52-.89.92-1.22s.86-.59,1.39-.76,1.11-.25,1.74-.25c.66,0,1.23.08,1.7.24.48.16.86.35,1.16.56.3.22.51.43.64.64v-1.73c0-.61-.16-1.11-.48-1.5-.32-.39-.82-.6-1.5-.61-.39,0-.72.05-.99.14-.27.1-.53.21-.77.34-.21.1-.4.21-.58.34-.18.13-.36.23-.54.31-.19.08-.42.12-.71.12-.4,0-.75-.15-1.04-.46s-.44-.71-.44-1.22c0-.42.12-.76.37-1.04.25-.28.56-.52.93-.71.48-.27,1.04-.47,1.68-.6s1.22-.19,1.75-.19c1.18,0,2.15.13,2.91.38.77.26,1.37.62,1.8,1.09.44.47.74,1.02.91,1.66.17.63.25,1.33.25,2.1v3.86c0,.4.05.69.15.86.1.18.22.32.36.43.18.13.35.28.51.46s.24.49.24.94ZM211.63,467.45c.4,0,.76-.07,1.06-.22.31-.14.56-.34.77-.59.21-.25.38-.52.51-.8v-.86c-.11-.13-.28-.26-.5-.4s-.46-.25-.74-.35c-.27-.1-.57-.14-.89-.14-.4,0-.76.07-1.08.2-.31.14-.56.33-.75.58-.19.25-.28.56-.28.92s.09.7.28.95c.19.25.42.43.71.54.29.11.59.17.89.17Z" fill="#a8228e"/><path d="M224.66,469.88c-1.35,0-2.4-.43-3.14-1.28-.74-.86-1.11-2.12-1.11-3.78v-6.26c0-.64.17-1.14.51-1.5s.81-.54,1.4-.54,1.06.18,1.39.53c.33.35.5.85.5,1.49v5.47c0,.85.14,1.48.41,1.91.27.42.74.64,1.4.64.5,0,.92-.14,1.27-.43.35-.29.61-.7.8-1.22.19-.53.28-1.17.28-1.92v-4.44c0-.64.17-1.14.5-1.49.33-.35.79-.53,1.39-.53s1.04.18,1.39.53c.35.35.52.85.52,1.49v9.29c0,.64-.14,1.14-.42,1.51-.28.37-.72.55-1.32.55-.63,0-1.08-.18-1.37-.55-.28-.37-.42-.83-.42-1.39l-.02-1.94c-.1.61-.25,1.15-.47,1.63-.22.48-.49.89-.82,1.22-.33.34-.72.59-1.17.77-.45.18-.94.26-1.47.26Z" fill="#a8228e"/><path d="M240.5,474.87c-1.08,0-2.02-.14-2.82-.42-.8-.28-1.41-.66-1.85-1.13-.44-.47-.69-.97-.75-1.5-.02-.43.1-.82.34-1.18s.61-.54,1.11-.55c.24-.02.45.02.62.11.17.09.32.2.46.34.14.14.28.27.42.4.26.24.59.45.99.62.4.18.89.26,1.47.26.68,0,1.22-.12,1.62-.35.4-.23.7-.56.88-.98.19-.42.28-.94.28-1.55v-2.78c-.1.59-.31,1.11-.65,1.56s-.75.79-1.25,1.02c-.49.23-1.02.35-1.58.35-1.08,0-2.01-.26-2.8-.77-.79-.51-1.4-1.24-1.84-2.17-.44-.94-.65-2.02-.65-3.25,0-1.17.22-2.23.65-3.19s1.05-1.73,1.85-2.32,1.74-.88,2.84-.88c.82,0,1.56.2,2.2.59.64.39,1.07.92,1.28,1.57.02-.18.04-.35.06-.52.02-.17.05-.33.08-.49.1-.43.31-.73.63-.9s.66-.25,1.02-.25c.61,0,1.1.17,1.45.52.35.34.53.84.53,1.48v10.06c0,2.02-.55,3.57-1.64,4.67-1.1,1.1-2.75,1.64-4.96,1.64ZM240.91,466.35c.4,0,.78-.07,1.12-.22.35-.14.63-.34.86-.6.23-.26.35-.55.39-.89v-3.24c-.06-.35-.19-.66-.39-.94-.19-.27-.45-.49-.76-.66s-.7-.25-1.15-.25c-.5,0-.92.1-1.26.3-.34.2-.61.47-.82.8s-.36.7-.45,1.1c-.09.4-.13.81-.13,1.22,0,.56.09,1.1.28,1.62.19.52.47.94.86,1.26s.87.48,1.45.48Z" fill="#a8228e"/><path d="M251.88,469.88c-.58,0-1.04-.19-1.38-.56-.34-.38-.51-.88-.51-1.52v-15.31c0-.64.17-1.13.51-1.48.34-.34.81-.52,1.4-.52.64,0,1.12.17,1.44.52s.47.84.47,1.48l.02,5.74c0,.32-.02.64-.05.96-.03.32-.06.65-.07.98.1-.51.25-.99.46-1.43.21-.44.48-.82.82-1.15.34-.33.75-.59,1.25-.78.49-.19,1.06-.29,1.7-.29,1.35,0,2.38.42,3.09,1.26.71.84,1.06,2.04,1.06,3.61l.05,6.34c0,.69-.18,1.22-.53,1.6s-.82.56-1.4.56c-.61,0-1.09-.19-1.43-.58-.34-.38-.51-.91-.51-1.58v-5.52c0-.74-.17-1.31-.52-1.73s-.81-.62-1.39-.62c-.4,0-.76.1-1.06.29s-.56.44-.77.76c-.21.31-.38.65-.5,1.01-.12.36-.2.7-.23,1.02v4.87c0,.64-.17,1.15-.51,1.52-.34.38-.81.56-1.43.56Z" fill="#a8228e"/><path d="M269.7,469.88c-.87,0-1.61-.16-2.21-.48-.6-.32-1.06-.78-1.37-1.39s-.46-1.35-.46-2.23v-6.05h-.53c-.52,0-.89-.11-1.14-.34-.24-.22-.36-.62-.36-1.18s.12-.96.37-1.19c.25-.23.62-.35,1.12-.35h.53v-1.9c0-.86.17-1.46.51-1.79s.81-.49,1.43-.49,1.03.16,1.29.48c.27.32.4.79.4,1.42v2.28h1.79c.47,0,.82.12,1.05.35.23.23.35.63.35,1.19s-.13.95-.39,1.18c-.26.22-.6.34-1.02.34h-1.79l-.02,5.74c0,.37.06.64.18.8s.33.25.62.25c.21,0,.4-.03.57-.1.17-.06.34-.13.52-.19.18-.06.39-.1.63-.1.31,0,.62.12.93.37s.47.65.47,1.21-.19.97-.57,1.28c-.38.31-.84.54-1.38.67-.54.14-1.05.2-1.54.2Z" fill="#a8228e"/></svg>