<?xml version="1.0" encoding="UTF-8"?><svg id="a" xmlns="http://www.w3.org/2000/svg" width="834.11" height="600" viewBox="0 0 834.11 600"><ellipse cx="519.1" cy="206.3" rx="103.08" ry="104.66" fill="#ec008c"/><ellipse cx="486.83" cy="206.3" rx="20.9" ry="21.22" fill="#cfacd1"/><ellipse cx="551.36" cy="206.3" rx="20.9" ry="21.22" fill="#cfacd1"/><path d="M642.91,151.41c-.48,0-.86-.09-1.12-.28s-.45-.41-.56-.68c-.11-.27-.16-.54-.16-.82v-2.28h-6.82c-.47,0-.86-.09-1.17-.26-.31-.18-.55-.41-.7-.71s-.24-.61-.25-.95c0-.32.05-.63.15-.94s.24-.6.43-.89c.21-.35.48-.78.8-1.28s.67-1.06,1.04-1.66c.37-.6.76-1.22,1.16-1.85.4-.63.8-1.26,1.18-1.87s.75-1.2,1.1-1.74.66-1.02.93-1.44c.21-.32.44-.58.68-.77.24-.19.56-.33.94-.41s.88-.12,1.47-.12c.73,0,1.28.11,1.67.32s.66.52.81.91c.15.39.23.85.23,1.38v9.26h1.33c.52,0,.9.14,1.15.43s.38.62.38,1.01c0,.46-.12.84-.38,1.13s-.62.43-1.12.43h-1.35v2.35c0,.27-.05.54-.15.82-.1.27-.27.49-.53.65-.26.16-.64.24-1.14.24ZM641.15,144.36v-6.36l.1-2.28c-.13.26-.27.52-.42.79-.15.27-.29.52-.42.76-.13.23-.25.44-.36.64-.26.45-.56.95-.91,1.51-.35.56-.7,1.14-1.06,1.73-.36.59-.71,1.16-1.05,1.72-.34.55-.65,1.05-.92,1.5h5.05Z" fill="#a8228e"/><path d="M652.87,151.41c-.6,0-1.08-.16-1.46-.47-.38-.31-.57-.81-.57-1.5,0-.9.08-1.84.23-2.82.15-.98.38-1.98.69-2.99.31-1.01.68-1.98,1.12-2.9.44-.93.96-1.79,1.56-2.59.6-.8,1.26-1.48,1.98-2.04-.71,0-1.33,0-1.86.01-.53,0-1,.02-1.4.04-.4.02-.75.03-1.04.05-.29.02-.55.04-.77.07-.27.05-.62.08-1.05.11-.43.02-.83.04-1.22.04-.48,0-.89-.16-1.22-.49-.33-.33-.5-.78-.5-1.36,0-.66.17-1.12.52-1.4.35-.28.77-.42,1.27-.42h9.72c.61,0,1.04.14,1.28.43s.36.68.36,1.18c0,.45-.06.82-.19,1.1s-.29.54-.48.74-.39.42-.6.65c-.87.9-1.6,1.88-2.18,2.96s-1.03,2.19-1.35,3.34c-.32,1.14-.55,2.25-.69,3.32-.14,1.07-.21,2.06-.21,2.95,0,.54-.13,1.01-.4,1.4-.27.39-.78.59-1.54.59Z" fill="#a8228e"/><path d="M660.99,148.48c-.68,0-1.2-.18-1.56-.53-.36-.35-.54-.87-.54-1.56s.18-1.23.54-1.58c.36-.35.88-.53,1.56-.53.66-.02,1.18.16,1.55.52.37.36.56.89.56,1.6s-.19,1.23-.56,1.57c-.37.34-.89.52-1.55.52Z" fill="#a8228e"/><path d="M671.2,132.45c1.61,0,2.93.33,3.96,1s1.79,1.6,2.29,2.81c.49,1.21.74,2.61.74,4.21s-.25,3-.74,4.2c-.49,1.2-1.25,2.13-2.29,2.78s-2.35.98-3.96.98-2.93-.33-3.96-.98-1.79-1.58-2.28-2.78c-.49-1.2-.74-2.6-.74-4.2s.25-3,.74-4.21c.49-1.21,1.25-2.14,2.28-2.81s2.35-1,3.96-1ZM671.2,135.43c-.66,0-1.2.13-1.62.4-.42.26-.75.63-.98,1.09s-.4,1-.48,1.61c-.09.61-.13,1.26-.13,1.94s.04,1.36.13,1.96c.09.6.25,1.13.48,1.58s.56.82.98,1.08c.42.26.96.4,1.62.4s1.18-.13,1.6-.4.75-.62.98-1.08c.23-.46.39-.98.48-1.58.09-.6.13-1.25.13-1.96s-.04-1.34-.13-1.94c-.09-.61-.25-1.14-.48-1.61-.23-.46-.56-.83-.98-1.09-.42-.26-.95-.4-1.6-.4Z" fill="#a8228e"/><path d="M687.68,148.48c-1.18,0-2.21-.23-3.11-.7s-1.64-1.11-2.25-1.93c-.6-.82-1.06-1.78-1.38-2.87-.31-1.09-.47-2.25-.47-3.48,0-1.33.2-2.56.59-3.7.39-1.14.96-2.13,1.7-2.99.74-.86,1.62-1.53,2.65-2.02,1.02-.49,2.16-.73,3.42-.73.55,0,1.11.04,1.69.13s1.09.24,1.52.44c.43.19.81.45,1.12.78.31.33.48.76.5,1.28.02.46-.13.87-.45,1.21-.31.34-.71.52-1.17.52-.37,0-.69-.08-.97-.24-.27-.16-.51-.31-.7-.46-.23-.14-.48-.27-.76-.38-.28-.11-.61-.17-.98-.17-.93,0-1.76.26-2.47.77s-1.26,1.22-1.64,2.14-.57,1.98-.56,3.19c.15-.3.35-.62.63-.94.27-.32.61-.62,1.02-.89.4-.27.87-.49,1.4-.66.53-.17,1.14-.25,1.81-.25,1.16,0,2.18.23,3.05.68s1.55,1.1,2.03,1.94.72,1.83.72,2.96c0,1.22-.29,2.3-.86,3.25-.57.95-1.38,1.7-2.41,2.26-1.03.55-2.26.83-3.7.83ZM687.73,145.48c.68,0,1.25-.13,1.73-.38s.84-.63,1.09-1.12c.25-.49.38-1.08.38-1.76,0-.9-.27-1.6-.8-2.11-.53-.51-1.22-.77-2.08-.77-.45,0-.87.08-1.27.23-.4.15-.75.35-1.08.6s-.59.52-.81.82c-.22.3-.36.58-.42.85.05.67.21,1.29.5,1.85.28.56.66,1,1.14,1.32s1.02.48,1.63.48Z" fill="#a8228e"/><path d="M700.59,139.68c-1.4,0-2.54-.42-3.4-1.26s-1.29-2.01-1.29-3.52.43-2.69,1.29-3.52,2-1.24,3.4-1.24,2.5.41,3.35,1.24c.85.82,1.27,2,1.27,3.52s-.42,2.7-1.27,3.54c-.85.84-1.96,1.25-3.35,1.24ZM700.59,137.42c.66,0,1.17-.22,1.52-.66.35-.44.53-1.07.53-1.88s-.18-1.41-.53-1.84-.86-.64-1.52-.64c-.69,0-1.22.21-1.58.64s-.54,1.04-.54,1.84.18,1.44.54,1.88c.36.44.89.66,1.58.66ZM702.19,149.3c-.39,0-.7-.16-.94-.47-.24-.31-.27-.66-.1-1.04l8.27-17.33c.13-.26.29-.43.47-.53s.38-.14.57-.14c.39,0,.69.16.92.48.22.32.24.68.05,1.08l-8.24,17.35c-.1.22-.25.38-.46.47-.21.09-.39.13-.53.13ZM712.25,148.41c-1.4,0-2.54-.42-3.4-1.26-.86-.84-1.29-2.02-1.29-3.54s.43-2.69,1.29-3.52c.86-.82,1.99-1.24,3.4-1.24s2.5.41,3.35,1.24c.85.82,1.27,2,1.27,3.52s-.42,2.72-1.27,3.55c-.85.83-1.96,1.25-3.35,1.25ZM712.22,146.13c.68,0,1.19-.22,1.55-.65.35-.43.53-1.06.53-1.87s-.18-1.43-.53-1.85-.87-.62-1.55-.62-1.2.21-1.56.62c-.36.42-.54,1.03-.54,1.85s.18,1.44.54,1.87c.36.43.88.65,1.56.65Z" fill="#a8228e"/><path d="M729.1,148.44c-1.35,0-2.4-.43-3.14-1.28-.74-.86-1.11-2.12-1.11-3.78v-6.26c0-.64.17-1.14.51-1.5.34-.36.81-.54,1.4-.54s1.06.18,1.39.53c.33.35.5.85.5,1.49v5.47c0,.85.14,1.48.41,1.91s.74.64,1.4.64c.5,0,.92-.14,1.27-.43.35-.29.61-.7.8-1.22.18-.53.28-1.17.28-1.92v-4.44c0-.64.17-1.14.5-1.49.33-.35.79-.53,1.39-.53s1.04.18,1.39.53c.35.35.52.85.52,1.49v9.29c0,.64-.14,1.14-.42,1.51-.28.37-.72.55-1.32.55-.63,0-1.08-.18-1.37-.55-.28-.37-.42-.83-.42-1.39l-.02-1.94c-.1.61-.25,1.15-.47,1.63-.22.48-.49.89-.82,1.22-.33.34-.72.59-1.17.77s-.94.26-1.47.26Z" fill="#a8228e"/><path d="M744.04,148.44c-.56,0-1.17-.05-1.83-.16-.65-.1-1.26-.3-1.83-.59-.43-.21-.8-.46-1.09-.77s-.43-.66-.43-1.08.14-.77.41-1.1c.27-.34.65-.5,1.14-.5.29,0,.56.06.81.18s.5.26.76.42c.35.18.73.34,1.12.48.39.14.85.22,1.37.22.47,0,.86-.09,1.18-.28.32-.18.48-.47.48-.85,0-.21-.06-.38-.19-.52-.13-.14-.31-.26-.56-.36-.24-.1-.54-.2-.91-.29-.36-.09-.78-.2-1.25-.32-.48-.11-.96-.25-1.44-.42s-.91-.39-1.32-.67c-.4-.28-.72-.64-.97-1.09-.24-.45-.36-1.01-.36-1.68,0-.83.23-1.55.68-2.15.45-.6,1.08-1.06,1.87-1.37.8-.31,1.71-.47,2.74-.47.45,0,.96.05,1.51.14.56.1,1.09.26,1.61.5.43.22.79.48,1.06.78.27.3.41.66.41,1.09s-.13.78-.39,1.1c-.26.32-.62.48-1.09.48-.34,0-.62-.07-.86-.22-.23-.14-.5-.29-.79-.43-.27-.16-.55-.29-.82-.38-.27-.1-.58-.14-.92-.14-.52,0-.91.09-1.17.26-.27.18-.4.43-.4.77,0,.3.11.54.33.71.22.17.52.31.89.42.38.11.8.22,1.27.31.48.11.99.24,1.52.4.53.15,1.03.36,1.49.64.46.27.83.64,1.12,1.09s.43,1.05.43,1.79-.17,1.39-.5,1.91c-.33.52-.77.94-1.33,1.25-.56.31-1.16.54-1.83.68-.66.14-1.32.22-1.98.22Z" fill="#a8228e"/><path d="M753.8,133.6c-.63,0-1.12-.17-1.47-.5s-.53-.85-.53-1.54.18-1.2.53-1.55c.35-.34.85-.52,1.47-.52s1.1.17,1.47.52c.37.34.56.86.56,1.55s-.19,1.2-.56,1.54c-.37.34-.86.5-1.47.5ZM753.78,148.44c-.61,0-1.09-.17-1.43-.52-.34-.34-.51-.84-.51-1.48v-9.36c0-.66.17-1.15.51-1.49.34-.34.81-.5,1.43-.5s1.09.17,1.44.5.52.83.52,1.49v9.36c0,.62-.17,1.11-.52,1.46-.35.35-.83.53-1.44.53Z" fill="#a8228e"/><path d="M760.69,148.44c-.61,0-1.09-.2-1.44-.61-.35-.41-.52-.93-.52-1.57v-8.98c0-.7.15-1.23.45-1.58.3-.35.78-.53,1.44-.53.31-.02.6.03.88.13.28.1.52.28.7.53s.26.61.23,1.09l-.05,2.23.22.86v6.24c0,.64-.17,1.16-.51,1.57-.34.41-.81.61-1.4.61ZM768.98,148.44c-.61,0-1.09-.21-1.44-.62-.35-.42-.52-.94-.52-1.58v-5.47c0-.74-.16-1.31-.48-1.73-.32-.42-.78-.62-1.38-.62s-1.06.14-1.43.42c-.37.28-.65.66-.83,1.13s-.29,1.01-.3,1.62l-.27-2.11c.06-.66.2-1.25.41-1.78.21-.53.5-.99.86-1.38.36-.39.8-.7,1.31-.91s1.08-.32,1.73-.32c1.42,0,2.47.42,3.17,1.26.69.84,1.05,2.04,1.06,3.61l.02,6.29c.02.66-.15,1.19-.51,1.6-.35.41-.82.61-1.4.61Z" fill="#a8228e"/><path d="M779.21,153.43c-1.08,0-2.02-.14-2.82-.42-.8-.28-1.41-.66-1.85-1.13-.44-.47-.69-.97-.75-1.5-.02-.43.1-.82.34-1.18.24-.35.61-.54,1.11-.55.24-.02.45.02.62.11s.32.2.46.34c.14.14.28.27.42.4.26.24.59.45.99.62.4.18.89.26,1.47.26.68,0,1.22-.12,1.62-.35.4-.23.7-.56.88-.98s.28-.94.28-1.55v-2.78c-.1.59-.31,1.11-.65,1.56-.34.45-.75.79-1.25,1.02-.49.23-1.02.35-1.58.35-1.08,0-2.01-.26-2.8-.77s-1.4-1.24-1.84-2.17c-.44-.94-.65-2.02-.65-3.25,0-1.17.22-2.23.65-3.19.43-.96,1.05-1.73,1.85-2.32.8-.58,1.74-.88,2.84-.88.82,0,1.56.2,2.2.59.64.39,1.07.92,1.28,1.57.02-.18.04-.35.06-.52s.05-.33.08-.49c.1-.43.31-.73.63-.9.32-.17.66-.25,1.02-.25.61,0,1.1.17,1.45.52s.53.84.53,1.48v10.06c0,2.02-.55,3.57-1.64,4.67-1.1,1.1-2.75,1.64-4.96,1.64ZM779.62,144.91c.4,0,.78-.07,1.12-.22.35-.14.63-.34.86-.6.22-.26.35-.55.39-.89v-3.24c-.06-.35-.19-.66-.39-.94-.19-.27-.45-.49-.76-.66s-.7-.25-1.15-.25c-.5,0-.92.1-1.26.3-.34.2-.61.47-.82.8-.21.34-.36.7-.45,1.1-.09.4-.13.81-.13,1.22,0,.56.09,1.1.28,1.62.19.52.47.94.86,1.26.39.32.87.48,1.45.48Z" fill="#a8228e"/><path d="M639.07,177.24c-1.26,0-2.39-.26-3.38-.77s-1.79-1.27-2.37-2.28-.87-2.24-.87-3.7.3-2.63.89-3.61c.6-.98,1.4-1.74,2.41-2.26,1.01-.52,2.13-.78,3.37-.78s2.4.26,3.38.78c.98.52,1.76,1.27,2.33,2.24.57.98.86,2.18.86,3.62s-.29,2.69-.87,3.7-1.37,1.77-2.36,2.28-2.12.77-3.4.77ZM639.07,174.19c.56,0,1.06-.13,1.47-.4.42-.26.75-.66.99-1.2s.36-1.24.36-2.1-.12-1.54-.36-2.06-.57-.92-.99-1.16-.91-.37-1.47-.37c-.53,0-1.01.13-1.44.4-.43.26-.77.66-1.02,1.18s-.37,1.2-.37,2.03c0,.88.12,1.59.37,2.14s.59.94,1.03,1.19c.44.25.91.37,1.43.37Z" fill="#a8228e"/><path d="M650.04,177.24c-.61,0-1.09-.2-1.44-.61-.35-.41-.52-.93-.52-1.57v-8.98c0-.7.15-1.23.45-1.58.3-.35.78-.53,1.44-.53.31-.02.6.03.88.13.28.1.52.28.7.53s.26.61.23,1.09l-.05,2.23.22.86v6.24c0,.64-.17,1.16-.51,1.57-.34.41-.81.61-1.4.61ZM658.33,177.24c-.61,0-1.09-.21-1.44-.62-.35-.42-.52-.94-.52-1.58v-5.47c0-.74-.16-1.31-.48-1.73-.32-.42-.78-.62-1.38-.62s-1.06.14-1.43.42c-.37.28-.65.66-.83,1.13s-.29,1.01-.3,1.62l-.27-2.11c.06-.66.2-1.25.41-1.78.21-.53.5-.99.86-1.38.36-.39.8-.7,1.31-.91s1.08-.32,1.73-.32c1.42,0,2.47.42,3.17,1.26.69.84,1.05,2.04,1.06,3.61l.02,6.29c.02.66-.15,1.19-.51,1.6-.35.41-.82.61-1.4.61Z" fill="#a8228e"/><path d="M665.06,177.24c-.58,0-1.05-.18-1.4-.53-.35-.35-.53-.84-.53-1.46v-15.43c0-.64.18-1.13.53-1.46s.82-.5,1.4-.5c.61,0,1.09.17,1.43.5.34.34.51.85.51,1.54v15.46c0,.67-.17,1.16-.51,1.45-.34.3-.81.44-1.43.44Z" fill="#a8228e"/><path d="M671.99,162.4c-.63,0-1.12-.17-1.47-.5s-.53-.85-.53-1.54.18-1.2.53-1.55c.35-.34.85-.52,1.47-.52s1.1.17,1.47.52c.37.34.56.86.56,1.55s-.19,1.2-.56,1.54c-.37.34-.86.5-1.47.5ZM671.97,177.24c-.61,0-1.09-.17-1.43-.52-.34-.34-.51-.84-.51-1.48v-9.36c0-.66.17-1.15.51-1.49.34-.34.81-.5,1.43-.5s1.09.17,1.44.5.52.83.52,1.49v9.36c0,.62-.17,1.11-.52,1.46-.35.35-.83.53-1.44.53Z" fill="#a8228e"/><path d="M678.88,177.24c-.61,0-1.09-.2-1.44-.61-.35-.41-.52-.93-.52-1.57v-8.98c0-.7.15-1.23.45-1.58.3-.35.78-.53,1.44-.53.31-.02.6.03.88.13.28.1.52.28.7.53s.26.61.23,1.09l-.05,2.23.22.86v6.24c0,.64-.17,1.16-.51,1.57-.34.41-.81.61-1.4.61ZM687.18,177.24c-.61,0-1.09-.21-1.44-.62-.35-.42-.52-.94-.52-1.58v-5.47c0-.74-.16-1.31-.48-1.73-.32-.42-.78-.62-1.38-.62s-1.06.14-1.43.42c-.37.28-.65.66-.83,1.13s-.29,1.01-.3,1.62l-.27-2.11c.06-.66.2-1.25.41-1.78.21-.53.5-.99.86-1.38.36-.39.8-.7,1.31-.91s1.08-.32,1.73-.32c1.42,0,2.47.42,3.17,1.26.69.84,1.05,2.04,1.06,3.61l.02,6.29c.02.66-.15,1.19-.51,1.6-.35.41-.82.61-1.4.61Z" fill="#a8228e"/><path d="M697.93,177.24c-1.35,0-2.52-.27-3.49-.8-.97-.54-1.72-1.3-2.25-2.28-.52-.98-.79-2.16-.79-3.54s.25-2.5.74-3.52c.49-1.02,1.21-1.81,2.15-2.39.94-.58,2.07-.86,3.4-.86,1.1,0,2.08.22,2.95.67.87.45,1.56,1.1,2.07,1.96.51.86.76,1.91.76,3.16,0,.58-.13,1.05-.39,1.42s-.72.55-1.38.55h-7.42v-2.02h5.63c0-.48-.07-.93-.22-1.36-.15-.42-.38-.78-.71-1.06-.33-.28-.77-.42-1.32-.42-.6,0-1.08.14-1.46.43s-.66.68-.83,1.18c-.18.5-.27,1.08-.27,1.75l.02,1.51c.02.48.14.92.36,1.33.23.41.55.74.97.98s.93.37,1.52.37c.5,0,.91-.08,1.23-.24.32-.16.64-.37.97-.62.19-.16.4-.29.62-.38s.45-.14.69-.14c.45,0,.81.14,1.06.42.26.28.39.64.39,1.07,0,.3-.06.58-.17.82-.11.24-.27.46-.48.67-.26.26-.6.48-1.01.68-.42.2-.91.36-1.47.48-.56.12-1.18.18-1.86.18Z" fill="#a8228e"/><path d="M717.76,177.24c-.61,0-1.09-.18-1.44-.53-.35-.35-.52-.84-.52-1.46v-9.36c0-.72.17-1.23.52-1.54.35-.3.83-.46,1.44-.48.29,0,.57.05.83.14.27.1.48.25.65.46s.25.49.25.84v2.52c.1-.75.27-1.38.52-1.9.25-.51.54-.92.87-1.22s.67-.52,1.02-.65.65-.19.91-.19c.31,0,.61.05.91.16.3.1.54.29.74.56s.29.67.29,1.2c0,.43-.07.83-.21,1.2-.14.37-.33.66-.58.88-.25.22-.55.32-.91.32-.27,0-.51-.05-.71-.14-.2-.1-.4-.19-.59-.29-.18-.1-.37-.16-.58-.2-.21-.04-.43-.01-.65.08-.24.11-.42.31-.54.59-.12.28-.2.61-.24.98s-.06.77-.06,1.19v4.87c0,.64-.17,1.13-.51,1.46-.34.34-.81.5-1.4.5Z" fill="#a8228e"/><path d="M731.95,177.24c-1.35,0-2.52-.27-3.49-.8-.97-.54-1.72-1.3-2.25-2.28-.52-.98-.79-2.16-.79-3.54s.25-2.5.74-3.52c.49-1.02,1.21-1.81,2.15-2.39.94-.58,2.07-.86,3.4-.86,1.1,0,2.08.22,2.95.67.87.45,1.56,1.1,2.07,1.96.51.86.76,1.91.76,3.16,0,.58-.13,1.05-.39,1.42s-.72.55-1.38.55h-7.42v-2.02h5.63c0-.48-.07-.93-.22-1.36-.15-.42-.38-.78-.71-1.06-.33-.28-.77-.42-1.32-.42-.6,0-1.08.14-1.46.43s-.66.68-.83,1.18c-.18.5-.27,1.08-.27,1.75l.02,1.51c.02.48.14.92.36,1.33.23.41.55.74.97.98s.93.37,1.52.37c.5,0,.91-.08,1.23-.24.32-.16.64-.37.97-.62.19-.16.4-.29.62-.38s.45-.14.69-.14c.45,0,.81.14,1.06.42.26.28.39.64.39,1.07,0,.3-.06.58-.17.82-.11.24-.27.46-.48.67-.26.26-.6.48-1.01.68-.42.2-.91.36-1.47.48-.56.12-1.18.18-1.86.18Z" fill="#a8228e"/><path d="M744.2,177.24c-.56,0-1.17-.05-1.83-.16-.65-.1-1.26-.3-1.83-.59-.44-.21-.8-.46-1.09-.77s-.44-.66-.44-1.08.14-.77.41-1.1c.27-.34.65-.5,1.14-.5.29,0,.56.06.81.18s.5.26.76.42c.35.18.73.34,1.12.48.39.14.85.22,1.37.22.47,0,.86-.09,1.18-.28.32-.18.48-.47.48-.85,0-.21-.07-.38-.19-.52-.13-.14-.31-.26-.56-.36-.24-.1-.54-.2-.91-.29-.36-.09-.78-.2-1.25-.32-.48-.11-.96-.25-1.44-.42s-.92-.39-1.32-.67c-.4-.28-.73-.64-.97-1.09-.24-.45-.36-1.01-.36-1.68,0-.83.23-1.55.68-2.15.45-.6,1.08-1.06,1.87-1.37.8-.31,1.71-.47,2.74-.47.45,0,.96.05,1.51.14s1.09.26,1.61.5c.44.22.79.48,1.06.78.27.3.41.66.41,1.09s-.13.78-.39,1.1c-.26.32-.62.48-1.09.48-.34,0-.62-.07-.86-.22-.23-.14-.5-.29-.79-.43-.27-.16-.55-.29-.82-.38s-.58-.14-.92-.14c-.52,0-.91.09-1.17.26-.27.18-.4.43-.4.77,0,.3.11.54.33.71.22.17.52.31.89.42.38.11.8.22,1.27.31.48.11.99.24,1.52.4.53.15,1.03.36,1.49.64s.83.64,1.12,1.09.44,1.05.44,1.79-.17,1.39-.5,1.91-.77.94-1.33,1.25c-.56.31-1.17.54-1.83.68-.66.14-1.32.22-1.98.22Z" fill="#a8228e"/><path d="M757.96,177.24c-1.26,0-2.39-.26-3.38-.77s-1.79-1.27-2.37-2.28-.87-2.24-.87-3.7.3-2.63.89-3.61c.6-.98,1.4-1.74,2.41-2.26,1.01-.52,2.13-.78,3.37-.78s2.4.26,3.38.78c.98.52,1.76,1.27,2.33,2.24.57.98.86,2.18.86,3.62s-.29,2.69-.87,3.7-1.37,1.77-2.36,2.28-2.12.77-3.4.77ZM757.96,174.19c.56,0,1.06-.13,1.47-.4.42-.26.75-.66.99-1.2s.36-1.24.36-2.1-.12-1.54-.36-2.06-.57-.92-.99-1.16-.91-.37-1.47-.37c-.53,0-1.01.13-1.44.4-.43.26-.77.66-1.02,1.18s-.37,1.2-.37,2.03c0,.88.12,1.59.37,2.14s.59.94,1.03,1.19c.44.25.91.37,1.43.37Z" fill="#a8228e"/><path d="M771.16,177.24c-1.35,0-2.4-.43-3.14-1.28-.74-.86-1.11-2.12-1.11-3.78v-6.26c0-.64.17-1.14.51-1.5.34-.36.81-.54,1.4-.54s1.06.18,1.39.53c.33.35.5.85.5,1.49v5.47c0,.85.14,1.48.41,1.91.27.42.74.64,1.4.64.5,0,.92-.14,1.27-.43s.61-.7.8-1.22c.19-.53.28-1.17.28-1.92v-4.44c0-.64.17-1.14.5-1.49.33-.35.79-.53,1.39-.53s1.04.18,1.39.53c.35.35.52.85.52,1.49v9.29c0,.64-.14,1.14-.42,1.51s-.72.55-1.32.55c-.63,0-1.08-.18-1.37-.55s-.42-.83-.42-1.39l-.02-1.94c-.1.61-.25,1.15-.47,1.63-.22.48-.49.89-.82,1.22-.33.34-.72.59-1.17.77s-.94.26-1.47.26Z" fill="#a8228e"/><path d="M783.59,177.24c-.61,0-1.09-.18-1.44-.53-.35-.35-.52-.84-.52-1.46v-9.36c0-.72.17-1.23.52-1.54s.83-.46,1.44-.48c.29,0,.57.05.83.14s.48.25.65.46c.17.21.25.49.25.84v2.52c.1-.75.27-1.38.52-1.9.25-.51.54-.92.87-1.22.33-.3.67-.52,1.02-.65.35-.13.65-.19.91-.19.31,0,.61.05.91.16.3.1.54.29.74.56s.29.67.29,1.2c0,.43-.07.83-.21,1.2-.14.37-.33.66-.58.88-.25.22-.55.32-.91.32-.27,0-.51-.05-.71-.14-.2-.1-.4-.19-.59-.29-.18-.1-.37-.16-.58-.2-.21-.04-.43-.01-.65.08-.24.11-.42.31-.54.59-.12.28-.2.61-.24.98-.04.38-.06.77-.06,1.19v4.87c0,.64-.17,1.13-.51,1.46-.34.34-.81.5-1.4.5Z" fill="#a8228e"/><path d="M797.8,177.24c-1.24,0-2.36-.27-3.36-.8s-1.8-1.3-2.39-2.3c-.6-1-.89-2.2-.89-3.61,0-1.33.29-2.49.88-3.49.59-1,1.39-1.78,2.41-2.34,1.02-.56,2.16-.84,3.43-.84.93,0,1.77.12,2.5.36.73.24,1.31.58,1.73,1.01.42.43.63.94.63,1.51,0,.54-.15.96-.46,1.26-.31.3-.68.44-1.11.44-.37,0-.65-.07-.85-.2s-.4-.28-.6-.44c-.18-.13-.4-.26-.68-.41-.27-.14-.66-.22-1.16-.22s-1,.12-1.45.35c-.45.23-.81.6-1.09,1.1s-.41,1.18-.41,2.03c0,.69.13,1.29.39,1.8.26.51.61.91,1.06,1.19.45.28.97.42,1.55.42.37,0,.71-.06,1.03-.18s.6-.29.86-.52c.18-.14.37-.26.57-.36.2-.1.44-.14.71-.14.39.02.73.15,1.03.41.3.26.45.63.45,1.13,0,.34-.08.64-.23.92-.15.28-.36.53-.62.76-.29.24-.64.45-1.05.62-.41.18-.86.31-1.34.41s-.99.14-1.52.14Z" fill="#a8228e"/><path d="M810.42,177.24c-1.35,0-2.52-.27-3.49-.8-.98-.54-1.72-1.3-2.25-2.28-.52-.98-.79-2.16-.79-3.54s.25-2.5.74-3.52c.49-1.02,1.21-1.81,2.15-2.39.94-.58,2.08-.86,3.4-.86,1.1,0,2.08.22,2.95.67.87.45,1.56,1.1,2.07,1.96.51.86.76,1.91.76,3.16,0,.58-.13,1.05-.39,1.42s-.72.55-1.38.55h-7.42v-2.02h5.63c0-.48-.07-.93-.22-1.36-.14-.42-.38-.78-.71-1.06-.33-.28-.77-.42-1.32-.42-.6,0-1.08.14-1.46.43-.38.29-.66.68-.83,1.18-.18.5-.27,1.08-.27,1.75l.02,1.51c.02.48.14.92.36,1.33.23.41.55.74.97.98.42.25.93.37,1.52.37.5,0,.91-.08,1.23-.24.32-.16.64-.37.97-.62.19-.16.4-.29.62-.38.22-.1.45-.14.69-.14.45,0,.81.14,1.06.42s.39.64.39,1.07c0,.3-.06.58-.17.82-.11.24-.27.46-.48.67-.26.26-.6.48-1.02.68-.42.2-.91.36-1.47.48s-1.18.18-1.86.18Z" fill="#a8228e"/><path d="M822.68,177.24c-.56,0-1.17-.05-1.83-.16-.65-.1-1.26-.3-1.83-.59-.43-.21-.8-.46-1.09-.77s-.43-.66-.43-1.08.14-.77.41-1.1c.27-.34.65-.5,1.14-.5.29,0,.56.06.81.18s.5.26.76.42c.35.18.73.34,1.12.48.39.14.85.22,1.37.22.47,0,.86-.09,1.18-.28.32-.18.48-.47.48-.85,0-.21-.06-.38-.19-.52-.13-.14-.31-.26-.56-.36-.24-.1-.54-.2-.91-.29-.36-.09-.78-.2-1.25-.32-.48-.11-.96-.25-1.44-.42s-.91-.39-1.32-.67c-.4-.28-.72-.64-.97-1.09-.24-.45-.36-1.01-.36-1.68,0-.83.23-1.55.68-2.15.45-.6,1.08-1.06,1.87-1.37.8-.31,1.71-.47,2.74-.47.45,0,.96.05,1.51.14.56.1,1.09.26,1.61.5.43.22.79.48,1.06.78.27.3.41.66.41,1.09s-.13.78-.39,1.1c-.26.32-.62.48-1.09.48-.34,0-.62-.07-.86-.22-.23-.14-.5-.29-.79-.43-.27-.16-.55-.29-.82-.38-.27-.1-.58-.14-.92-.14-.52,0-.91.09-1.17.26-.27.18-.4.43-.4.77,0,.3.11.54.33.71.22.17.52.31.89.42.38.11.8.22,1.27.31.48.11.99.24,1.52.4.53.15,1.03.36,1.49.64.46.27.83.64,1.12,1.09s.43,1.05.43,1.79-.17,1.39-.5,1.91c-.33.52-.77.94-1.33,1.25-.56.31-1.16.54-1.83.68-.66.14-1.32.22-1.98.22Z" fill="#a8228e"/><ellipse cx="383.36" cy="354.07" rx="76.35" ry="77.51" fill="#92278f"/><ellipse cx="359.47" cy="354.07" rx="15.48" ry="15.72" fill="#cfacd1" stroke="#a8228e" stroke-miterlimit="10"/><ellipse cx="407.26" cy="354.07" rx="15.48" ry="15.72" fill="#cfacd1" stroke="#a8228e" stroke-miterlimit="10"/><path d="M308.3,470.89c-.6,0-1.08-.15-1.45-.44-.37-.3-.56-.76-.56-1.4,0-.72.12-1.34.37-1.87s.58-1,.98-1.43c.4-.42.84-.81,1.31-1.16.35-.27.75-.52,1.17-.76.43-.23.87-.45,1.32-.65s.89-.4,1.31-.6.79-.4,1.11-.61c.39-.26.68-.54.88-.84.2-.3.3-.7.3-1.18,0-.58-.2-1.03-.6-1.37-.4-.34-.98-.5-1.74-.5-.66,0-1.25.14-1.76.43-.52.29-.89.66-1.14,1.13-.18.32-.4.55-.67.7-.27.14-.54.22-.83.24-.48,0-.91-.16-1.27-.48-.36-.32-.54-.79-.54-1.42,0-.69.27-1.3.81-1.85s1.27-.97,2.2-1.28c.93-.31,1.96-.47,3.11-.47.77,0,1.52.09,2.24.26.72.18,1.36.45,1.93.82s1.02.85,1.35,1.45c.33.6.5,1.33.5,2.2,0,.7-.11,1.31-.33,1.82-.22.51-.52.99-.91,1.44-.34.38-.74.72-1.21,1.01-.47.29-.96.55-1.46.78-.51.23-1,.44-1.46.64-.47.19-.86.38-1.18.58-.6.3-1.03.59-1.31.86-.27.27-.44.51-.51.72h7.42c.42,0,.79.14,1.1.42.31.28.47.66.47,1.14,0,.56-.16.98-.47,1.26-.31.28-.68.42-1.1.42h-9.38Z" fill="#a8228e"/><path d="M326.99,473.57c-1.03,0-2.01-.13-2.95-.4-.93-.26-1.7-.64-2.3-1.13-.6-.49-.9-1.08-.92-1.76-.02-.48.12-.9.42-1.27.3-.37.73-.55,1.29-.55.29,0,.53.05.73.16s.37.23.53.38c.16.15.31.31.46.47.32.34.72.6,1.18.78.47.18,1.03.28,1.69.28s1.16-.11,1.61-.34c.44-.22.78-.52,1.02-.9.23-.38.35-.79.35-1.24,0-.7-.16-1.22-.47-1.54-.31-.32-.74-.53-1.28-.64-.54-.1-1.14-.16-1.8-.16h-.97c-.47,0-.84-.11-1.12-.32-.28-.22-.42-.61-.42-1.19,0-.53.14-.91.41-1.14.27-.23.62-.35,1.04-.35h.92c.64,0,1.21-.09,1.68-.28.47-.18.84-.46,1.1-.84s.39-.84.39-1.4c0-.77-.25-1.32-.74-1.64-.49-.33-1.09-.49-1.8-.49-.64,0-1.22.11-1.72.34-.5.22-.88.58-1.14,1.08-.16.26-.35.47-.57.64s-.5.25-.83.25c-.55,0-.97-.17-1.27-.5s-.45-.72-.45-1.15c0-.77.28-1.42.85-1.96.56-.54,1.3-.95,2.22-1.25.92-.3,1.91-.44,2.97-.44.76,0,1.5.08,2.22.25.72.17,1.38.44,1.96.83.58.38,1.04.87,1.38,1.46.34.59.51,1.31.51,2.16,0,.51-.09,1.05-.27,1.61-.18.56-.51,1.06-.99,1.5-.48.44-1.18.75-2.08.92.76.05,1.44.23,2.04.55s1.08.78,1.44,1.39c.35.61.53,1.37.53,2.28,0,.96-.2,1.79-.6,2.48-.4.7-.94,1.27-1.62,1.73s-1.42.79-2.22,1.01c-.81.22-1.61.32-2.42.32Z" fill="#a8228e"/><path d="M337.77,471.1c-.68,0-1.2-.18-1.56-.53-.36-.35-.54-.87-.54-1.56s.18-1.23.54-1.58c.36-.35.88-.53,1.56-.53.66-.02,1.18.16,1.55.52.37.36.56.89.56,1.6s-.19,1.23-.56,1.57c-.37.34-.89.52-1.55.52Z" fill="#a8228e"/><path d="M347.85,473.77c-.69,0-1.39-.06-2.09-.19-.7-.13-1.35-.32-1.95-.58-.6-.26-1.09-.58-1.49-.98-.4-.4-.64-.88-.74-1.44-.07-.5.05-.94.35-1.33.3-.39.72-.59,1.27-.59.39,0,.7.07.93.22.23.14.5.36.81.65.31.27.71.52,1.21.74.5.22,1.06.34,1.69.34.56,0,1.08-.1,1.56-.31.47-.21.86-.53,1.15-.96.29-.43.43-.99.43-1.68,0-.93-.25-1.62-.76-2.06-.51-.45-1.18-.67-2.02-.67-.45,0-.85.05-1.21.16-.35.1-.68.22-.98.36-.3.14-.61.26-.94.36-.33.1-.71.16-1.12.16-.39,0-.74-.09-1.06-.28-.32-.18-.58-.46-.76-.84-.19-.38-.25-.87-.18-1.48l.6-6.05c.06-.66.27-1.14.63-1.46.35-.32.85-.48,1.5-.48h6.87c.53,0,.96.13,1.29.38s.5.67.5,1.25c0,.62-.17,1.05-.5,1.28-.33.23-.76.35-1.29.35h-5.71l-.6,5.09c.23-.3.52-.58.88-.84s.8-.46,1.32-.62,1.07-.24,1.67-.24c1.76,0,3.13.49,4.11,1.48.98.98,1.47,2.37,1.47,4.16,0,1.34-.31,2.47-.93,3.37-.62.9-1.45,1.59-2.49,2.05-1.04.46-2.18.7-3.42.7Z" fill="#a8228e"/><path d="M362.31,473.57c-1.03,0-2.01-.13-2.95-.4-.94-.26-1.7-.64-2.3-1.13-.6-.49-.9-1.08-.92-1.76-.02-.48.12-.9.42-1.27.3-.37.73-.55,1.29-.55.29,0,.53.05.72.16.19.1.37.23.53.38.16.15.31.31.46.47.32.34.72.6,1.18.78.47.18,1.03.28,1.69.28s1.16-.11,1.61-.34c.44-.22.78-.52,1.01-.9s.35-.79.35-1.24c0-.7-.16-1.22-.47-1.54-.31-.32-.74-.53-1.28-.64-.54-.1-1.14-.16-1.8-.16h-.97c-.47,0-.84-.11-1.12-.32-.28-.22-.42-.61-.42-1.19,0-.53.14-.91.41-1.14.27-.23.62-.35,1.04-.35h.92c.64,0,1.2-.09,1.68-.28s.84-.46,1.1-.84c.26-.38.39-.84.39-1.4,0-.77-.25-1.32-.74-1.64-.49-.33-1.09-.49-1.8-.49-.64,0-1.22.11-1.72.34-.5.22-.88.58-1.14,1.08-.16.26-.35.47-.57.64-.22.17-.5.25-.83.25-.55,0-.97-.17-1.27-.5-.3-.34-.45-.72-.45-1.15,0-.77.28-1.42.85-1.96.56-.54,1.31-.95,2.22-1.25.92-.3,1.91-.44,2.97-.44.76,0,1.5.08,2.22.25s1.38.44,1.96.83c.58.38,1.04.87,1.38,1.46.34.59.51,1.31.51,2.16,0,.51-.09,1.05-.27,1.61-.18.56-.51,1.06-.99,1.5-.48.44-1.18.75-2.08.92.76.05,1.44.23,2.04.55s1.08.78,1.44,1.39c.35.61.53,1.37.53,2.28,0,.96-.2,1.79-.6,2.48-.4.7-.94,1.27-1.62,1.73s-1.42.79-2.22,1.01-1.61.32-2.42.32Z" fill="#a8228e"/><path d="M375.27,462.29c-1.4,0-2.53-.42-3.4-1.26s-1.29-2.01-1.29-3.52.43-2.69,1.29-3.52,1.99-1.24,3.4-1.24,2.5.41,3.35,1.24c.85.82,1.27,2,1.27,3.52s-.42,2.7-1.27,3.54c-.85.84-1.96,1.25-3.35,1.24ZM375.27,460.04c.66,0,1.17-.22,1.52-.66.35-.44.53-1.07.53-1.88s-.18-1.41-.53-1.84-.86-.64-1.52-.64-1.22.21-1.58.64c-.36.42-.54,1.04-.54,1.84s.18,1.44.54,1.88c.36.44.89.66,1.58.66ZM376.86,471.92c-.39,0-.7-.16-.94-.47-.24-.31-.27-.66-.1-1.04l8.27-17.33c.13-.26.29-.43.47-.53.18-.1.37-.14.57-.14.39,0,.69.16.92.48.23.32.24.68.05,1.08l-8.24,17.35c-.1.22-.25.38-.46.47-.21.09-.39.13-.53.13ZM386.92,471.03c-1.4,0-2.53-.42-3.4-1.26-.86-.84-1.29-2.02-1.29-3.54s.43-2.69,1.29-3.52,1.99-1.24,3.4-1.24,2.5.41,3.35,1.24c.85.82,1.27,2,1.27,3.52s-.42,2.72-1.27,3.55c-.85.83-1.96,1.25-3.35,1.25ZM386.9,468.75c.68,0,1.19-.22,1.55-.65.35-.43.53-1.06.53-1.87s-.18-1.43-.53-1.85-.87-.62-1.55-.62-1.2.21-1.56.62c-.36.42-.54,1.03-.54,1.85s.18,1.44.54,1.87c.36.43.88.65,1.56.65Z" fill="#a8228e"/><path d="M402.39,471.05c-.61,0-1.08-.16-1.39-.48-.31-.32-.47-.78-.47-1.37v-8.3h-.6c-.52,0-.89-.11-1.11-.34-.23-.22-.34-.62-.34-1.18s.12-.96.35-1.19c.23-.23.6-.35,1.1-.35h.63v-.89c0-1.17.19-2.16.57-2.96.38-.81.93-1.43,1.66-1.86.73-.43,1.6-.65,2.64-.65.39,0,.79.05,1.2.14.41.1.8.24,1.16.42.36.18.65.42.87.7.22.28.33.63.33,1.04,0,.53-.14.93-.41,1.2-.27.27-.6.41-.97.41-.32,0-.68-.12-1.06-.36-.11-.06-.26-.15-.43-.25-.18-.1-.4-.16-.65-.16-.45,0-.76.17-.93.5-.17.34-.25.83-.25,1.49v1.22h1.62c.4,0,.73.12.98.35.25.23.37.63.37,1.19s-.12.95-.37,1.18c-.25.22-.58.34-.98.34h-1.57v8.3c0,.58-.16,1.03-.48,1.36-.32.33-.8.49-1.43.49Z" fill="#a8228e"/><path d="M410.78,471.05c-.61,0-1.09-.18-1.44-.53-.35-.35-.52-.84-.52-1.46v-9.36c0-.72.17-1.23.52-1.54.35-.3.83-.46,1.44-.48.29,0,.57.05.83.14.27.1.48.25.65.46s.25.49.25.84v2.52c.1-.75.27-1.38.52-1.9.25-.51.54-.92.87-1.22s.67-.52,1.02-.65.65-.19.91-.19c.31,0,.61.05.91.16.3.1.54.29.74.56s.29.67.29,1.2c0,.43-.07.83-.21,1.2-.14.37-.33.66-.58.88-.25.22-.55.32-.91.32-.27,0-.51-.05-.71-.14-.2-.1-.4-.19-.59-.29-.18-.1-.37-.16-.58-.2-.21-.04-.43-.01-.65.08-.24.11-.42.31-.54.59-.12.28-.2.61-.24.98s-.06.77-.06,1.19v4.87c0,.64-.17,1.13-.51,1.46-.34.34-.81.5-1.4.5Z" fill="#a8228e"/><path d="M425.02,471.05c-1.26,0-2.38-.26-3.38-.77-1-.51-1.79-1.27-2.37-2.28s-.87-2.24-.87-3.7.3-2.63.89-3.61c.6-.98,1.4-1.74,2.41-2.26,1.01-.52,2.13-.78,3.37-.78s2.4.26,3.38.78c.98.52,1.76,1.27,2.33,2.24.57.98.86,2.18.86,3.62s-.29,2.69-.87,3.7-1.37,1.77-2.36,2.28-2.12.77-3.4.77ZM425.02,468.01c.56,0,1.06-.13,1.48-.4.42-.26.75-.66.99-1.2.24-.54.36-1.24.36-2.1s-.12-1.54-.36-2.06c-.24-.53-.57-.92-.99-1.16-.42-.25-.91-.37-1.48-.37-.53,0-1.01.13-1.44.4-.43.26-.77.66-1.01,1.18-.25.52-.38,1.2-.38,2.03,0,.88.12,1.59.38,2.14.25.54.59.94,1.03,1.19.43.25.91.37,1.43.37Z" fill="#a8228e"/><path d="M435.95,471.05c-.58,0-1.04-.17-1.39-.52-.35-.34-.52-.84-.52-1.48v-9.34c0-.66.16-1.15.48-1.49s.77-.5,1.35-.5c.48,0,.85.08,1.1.24.25.16.42.38.52.67.08.26.13.53.16.83.02.3.04.62.04.98v1.21c.16-.98.43-1.76.81-2.34.38-.58.86-1,1.45-1.26.59-.26,1.25-.38,1.97-.38,1.06,0,1.89.3,2.47.89s.93,1.56,1.04,2.9c.13-1.01.38-1.78.76-2.33s.84-.92,1.38-1.14,1.12-.32,1.73-.32c.89,0,1.62.19,2.21.56.59.38,1.03.92,1.33,1.64.3.72.45,1.61.45,2.66v6.5c0,.62-.17,1.11-.5,1.46-.33.35-.79.53-1.37.53-.61,0-1.1-.18-1.45-.54-.35-.36-.53-.84-.53-1.45v-5.69c0-.8-.12-1.39-.36-1.78-.24-.38-.63-.58-1.16-.58-.74,0-1.32.27-1.73.82s-.62,1.22-.62,2.04v5.18c0,.62-.17,1.11-.51,1.46-.34.35-.79.53-1.35.53-.61,0-1.09-.18-1.44-.54-.35-.36-.52-.84-.52-1.45v-5.69c0-.53-.06-.96-.17-1.31-.11-.34-.29-.6-.54-.78s-.58-.26-.98-.26c-.48,0-.89.12-1.21.37-.32.25-.56.59-.73,1.03-.16.44-.24.95-.24,1.52v5.11c0,.62-.17,1.11-.51,1.46-.34.35-.81.53-1.43.53Z" fill="#a8228e"/><path d="M311.35,499.85c-1.26,0-2.38-.26-3.38-.77-1-.51-1.79-1.27-2.37-2.28s-.87-2.24-.87-3.7.3-2.63.89-3.61c.6-.98,1.4-1.74,2.41-2.26,1.01-.52,2.13-.78,3.37-.78s2.4.26,3.38.78c.98.52,1.76,1.27,2.33,2.24.57.98.86,2.18.86,3.62s-.29,2.69-.87,3.7-1.37,1.77-2.36,2.28-2.12.77-3.4.77ZM311.35,496.81c.56,0,1.06-.13,1.48-.4.42-.26.75-.66.99-1.2.24-.54.36-1.24.36-2.1s-.12-1.54-.36-2.06c-.24-.53-.57-.92-.99-1.16-.42-.25-.91-.37-1.48-.37-.53,0-1.01.13-1.44.4-.43.26-.77.66-1.01,1.18-.25.52-.38,1.2-.38,2.03,0,.88.12,1.59.38,2.14.25.54.59.94,1.03,1.19.43.25.91.37,1.43.37Z" fill="#a8228e"/><path d="M324.98,499.85c-.87,0-1.61-.16-2.21-.48-.6-.32-1.06-.78-1.37-1.39-.31-.61-.46-1.35-.46-2.23v-6.05h-.53c-.52,0-.89-.11-1.14-.34-.24-.22-.36-.62-.36-1.18s.12-.96.38-1.19c.25-.23.62-.35,1.12-.35h.53v-1.9c0-.86.17-1.46.51-1.79.34-.33.81-.49,1.43-.49s1.03.16,1.29.48c.27.32.4.79.4,1.42v2.28h1.79c.47,0,.82.12,1.05.35.23.23.35.63.35,1.19s-.13.95-.39,1.18c-.26.22-.6.34-1.01.34h-1.79l-.02,5.74c0,.37.06.64.18.8s.33.25.62.25c.21,0,.4-.03.57-.1.17-.06.34-.13.52-.19.18-.06.39-.1.63-.1.31,0,.62.12.93.37.31.25.47.65.47,1.21s-.19.97-.57,1.28c-.38.31-.84.54-1.38.67-.54.14-1.05.2-1.54.2Z" fill="#a8228e"/><path d="M332.09,499.85c-.58,0-1.04-.19-1.38-.56-.34-.38-.51-.88-.51-1.52v-15.31c0-.64.17-1.13.51-1.48.34-.34.81-.52,1.4-.52.64,0,1.12.17,1.44.52.31.34.47.84.47,1.48l.02,5.74c0,.32-.02.64-.05.96-.03.32-.06.65-.07.98.1-.51.25-.99.46-1.43.21-.44.48-.82.82-1.15s.75-.59,1.25-.78c.49-.19,1.06-.29,1.7-.29,1.35,0,2.38.42,3.09,1.26.71.84,1.06,2.04,1.06,3.61l.05,6.34c0,.69-.18,1.22-.53,1.6s-.82.56-1.4.56c-.61,0-1.09-.19-1.43-.58-.34-.38-.51-.91-.51-1.58v-5.52c0-.74-.17-1.31-.52-1.73-.35-.42-.81-.62-1.39-.62-.4,0-.76.1-1.06.29-.31.19-.56.44-.77.76-.21.31-.38.65-.5,1.01-.12.36-.2.7-.23,1.02v4.87c0,.64-.17,1.15-.51,1.52s-.81.56-1.43.56Z" fill="#a8228e"/><path d="M351.19,499.85c-1.35,0-2.52-.27-3.49-.8-.97-.54-1.72-1.3-2.25-2.28-.52-.98-.79-2.16-.79-3.54s.25-2.5.74-3.52c.49-1.02,1.21-1.81,2.15-2.39.94-.58,2.07-.86,3.4-.86,1.1,0,2.08.22,2.95.67.87.45,1.56,1.1,2.07,1.96.51.86.76,1.91.76,3.16,0,.58-.13,1.05-.39,1.42s-.72.55-1.38.55h-7.42v-2.02h5.63c0-.48-.07-.93-.22-1.36-.15-.42-.38-.78-.71-1.06-.33-.28-.77-.42-1.32-.42-.6,0-1.08.14-1.46.43s-.66.68-.83,1.18c-.18.5-.27,1.08-.27,1.75l.02,1.51c.02.48.14.92.36,1.33.23.41.55.74.97.98s.93.37,1.52.37c.5,0,.91-.08,1.23-.24.32-.16.64-.37.97-.62.19-.16.4-.29.62-.38s.45-.14.69-.14c.45,0,.81.14,1.06.42.26.28.39.64.39,1.07,0,.3-.06.58-.17.82-.11.24-.27.46-.48.67-.26.26-.6.48-1.01.68-.42.2-.91.36-1.47.48-.56.12-1.18.18-1.86.18Z" fill="#a8228e"/><path d="M360.96,499.85c-.61,0-1.09-.18-1.44-.53-.35-.35-.52-.84-.52-1.46v-9.36c0-.72.17-1.23.52-1.54s.83-.46,1.44-.48c.29,0,.57.05.83.14s.48.25.65.46c.17.21.25.49.25.84v2.52c.1-.75.27-1.38.52-1.9.25-.51.54-.92.87-1.22.33-.3.67-.52,1.02-.65.35-.13.65-.19.91-.19.31,0,.61.05.91.16.3.1.54.29.74.56s.29.67.29,1.2c0,.43-.07.83-.21,1.2-.14.37-.33.66-.58.88-.25.22-.55.32-.91.32-.27,0-.51-.05-.71-.14-.2-.1-.4-.19-.59-.29-.18-.1-.37-.16-.58-.2-.21-.04-.43-.01-.65.08-.24.11-.42.31-.54.59-.12.28-.2.61-.24.98-.04.38-.06.77-.06,1.19v4.87c0,.64-.17,1.13-.51,1.46-.34.34-.81.5-1.4.5Z" fill="#a8228e"/><path d="M379.23,499.85c-.56,0-1.17-.05-1.83-.16-.65-.1-1.26-.3-1.83-.59-.44-.21-.8-.46-1.09-.77s-.44-.66-.44-1.08.14-.77.41-1.1c.27-.34.65-.5,1.14-.5.29,0,.56.06.81.18s.5.26.76.42c.35.18.73.34,1.12.48.39.14.85.22,1.37.22.47,0,.86-.09,1.18-.28.32-.18.48-.47.48-.85,0-.21-.07-.38-.19-.52-.13-.14-.31-.26-.56-.36-.24-.1-.54-.2-.91-.29-.36-.09-.78-.2-1.25-.32-.48-.11-.96-.25-1.44-.42s-.92-.39-1.32-.67c-.4-.28-.73-.64-.97-1.09-.24-.45-.36-1.01-.36-1.68,0-.83.23-1.55.68-2.15.45-.6,1.08-1.06,1.87-1.37.8-.31,1.71-.47,2.74-.47.45,0,.96.05,1.51.14s1.09.26,1.61.5c.44.22.79.48,1.06.78.27.3.41.66.41,1.09s-.13.78-.39,1.1c-.26.32-.62.48-1.09.48-.34,0-.62-.07-.86-.22-.23-.14-.5-.29-.79-.43-.27-.16-.55-.29-.82-.38s-.58-.14-.92-.14c-.52,0-.91.09-1.17.26-.27.18-.4.43-.4.77,0,.3.11.54.33.71.22.17.52.31.89.42.38.11.8.22,1.27.31.48.11.99.24,1.52.4.53.15,1.03.36,1.49.64s.83.64,1.12,1.09.44,1.05.44,1.79-.17,1.39-.5,1.91-.77.94-1.33,1.25c-.56.31-1.17.54-1.83.68-.66.14-1.32.22-1.98.22Z" fill="#a8228e"/><path d="M392.89,499.85c-1.35,0-2.52-.27-3.49-.8-.97-.54-1.72-1.3-2.25-2.28-.52-.98-.79-2.16-.79-3.54s.25-2.5.74-3.52c.49-1.02,1.21-1.81,2.15-2.39.94-.58,2.07-.86,3.4-.86,1.1,0,2.08.22,2.95.67.87.45,1.56,1.1,2.07,1.96.51.86.76,1.91.76,3.16,0,.58-.13,1.05-.39,1.42s-.72.55-1.38.55h-7.42v-2.02h5.63c0-.48-.07-.93-.22-1.36-.15-.42-.38-.78-.71-1.06-.33-.28-.77-.42-1.32-.42-.6,0-1.08.14-1.46.43s-.66.68-.83,1.18c-.18.5-.27,1.08-.27,1.75l.02,1.51c.02.48.14.92.36,1.33.23.41.55.74.97.98s.93.37,1.52.37c.5,0,.91-.08,1.23-.24.32-.16.64-.37.97-.62.19-.16.4-.29.62-.38s.45-.14.69-.14c.45,0,.81.14,1.06.42.26.28.39.64.39,1.07,0,.3-.06.58-.17.82-.11.24-.27.46-.48.67-.26.26-.6.48-1.01.68-.42.2-.91.36-1.47.48-.56.12-1.18.18-1.86.18Z" fill="#a8228e"/><path d="M405.15,499.88c-.53,0-.96-.07-1.29-.22-.33-.14-.6-.4-.82-.76-.22-.36-.42-.86-.62-1.5-.23-.82-.48-1.68-.77-2.59s-.61-1.94-.97-3.07c-.23-.77-.41-1.37-.54-1.8-.14-.43-.23-.78-.28-1.03-.05-.26-.07-.46-.07-.62,0-.45.15-.86.46-1.24.31-.38.78-.56,1.43-.56s1.13.2,1.46.61c.33.41.57,1.04.71,1.91l1.33,7.46c.26-.91.48-1.71.65-2.4.18-.69.33-1.29.46-1.8.13-.51.24-.96.34-1.34s.18-.72.27-1.02c.08-.3.15-.58.22-.85.14-.62.29-1.12.45-1.5.15-.38.38-.65.69-.82.31-.17.75-.25,1.33-.25s1.02.08,1.33.25c.31.17.54.44.71.82.17.38.32.88.45,1.5.06.27.14.56.22.85.08.3.17.64.27,1.02s.21.83.34,1.34c.13.51.28,1.11.46,1.8.18.69.39,1.49.63,2.4l1.35-7.46c.14-.86.38-1.5.71-1.91.33-.41.82-.61,1.46-.61s1.12.19,1.41.56c.3.38.45.79.45,1.24,0,.16-.02.37-.07.62-.05.26-.13.6-.25,1.03-.12.43-.29,1.03-.52,1.8-.32,1.14-.64,2.16-.96,3.07-.31.91-.6,1.78-.86,2.59-.19.64-.4,1.14-.62,1.5-.22.36-.49.61-.81.76-.32.14-.76.22-1.31.22s-1-.08-1.32-.25-.56-.43-.75-.78c-.19-.35-.35-.81-.5-1.37l-.77-2.95-1.06-3.98-1.06,4.03-.77,2.9c-.14.54-.31,1-.48,1.36-.18.36-.43.62-.75.79s-.77.25-1.35.25Z" fill="#a8228e"/><path d="M427.2,499.85c-1.35,0-2.52-.27-3.49-.8-.97-.54-1.72-1.3-2.25-2.28-.52-.98-.79-2.16-.79-3.54s.25-2.5.74-3.52c.49-1.02,1.21-1.81,2.15-2.39.94-.58,2.07-.86,3.4-.86,1.1,0,2.08.22,2.95.67.87.45,1.56,1.1,2.07,1.96.51.86.76,1.91.76,3.16,0,.58-.13,1.05-.39,1.42s-.72.55-1.38.55h-7.42v-2.02h5.63c0-.48-.07-.93-.22-1.36-.15-.42-.38-.78-.71-1.06-.33-.28-.77-.42-1.32-.42-.6,0-1.08.14-1.46.43s-.66.68-.83,1.18c-.18.5-.27,1.08-.27,1.75l.02,1.51c.02.48.14.92.36,1.33.23.41.55.74.97.98s.93.37,1.52.37c.5,0,.91-.08,1.23-.24.32-.16.64-.37.97-.62.19-.16.4-.29.62-.38s.45-.14.69-.14c.45,0,.81.14,1.06.42.26.28.39.64.39,1.07,0,.3-.06.58-.17.82-.11.24-.27.46-.48.67-.26.26-.6.48-1.01.68-.42.2-.91.36-1.47.48-.56.12-1.18.18-1.86.18Z" fill="#a8228e"/><path d="M436.96,499.85c-.61,0-1.09-.18-1.44-.53-.35-.35-.52-.84-.52-1.46v-9.36c0-.72.17-1.23.52-1.54.35-.3.83-.46,1.44-.48.29,0,.57.05.83.14.27.1.48.25.65.46s.25.49.25.84v2.52c.1-.75.27-1.38.52-1.9.25-.51.54-.92.87-1.22s.67-.52,1.02-.65.65-.19.91-.19c.31,0,.61.05.91.16.3.1.54.29.74.56s.29.67.29,1.2c0,.43-.07.83-.21,1.2-.14.37-.33.66-.58.88-.25.22-.55.32-.91.32-.27,0-.51-.05-.71-.14-.2-.1-.4-.19-.59-.29-.18-.1-.37-.16-.58-.2-.21-.04-.43-.01-.65.08-.24.11-.42.31-.54.59-.12.28-.2.61-.24.98s-.06.77-.06,1.19v4.87c0,.64-.17,1.13-.51,1.46-.34.34-.81.5-1.4.5Z" fill="#a8228e"/><path d="M446.87,479.81c.55,0,.98.15,1.29.46.31.3.54.69.68,1.15s.21.94.21,1.42c0,.66-.08,1.24-.25,1.76-.17.52-.4.98-.69,1.38-.29.4-.61.72-.97.96-.35.24-.7.4-1.04.48-.35.1-.63.09-.82-.01-.19-.1-.33-.27-.41-.49-.08-.22-.07-.44.02-.65.1-.21.28-.38.56-.5.35-.18.66-.39.92-.64.26-.25.39-.52.39-.83,0-.14-.03-.27-.08-.38s-.17-.18-.35-.22c-.44-.11-.79-.33-1.06-.65-.27-.32-.41-.73-.41-1.22,0-.62.19-1.12.57-1.48.38-.36.87-.54,1.46-.54Z" fill="#a8228e"/><path d="M453.5,499.85c-.56,0-1.17-.05-1.83-.16-.65-.1-1.26-.3-1.83-.59-.43-.21-.8-.46-1.09-.77s-.43-.66-.43-1.08.14-.77.41-1.1c.27-.34.65-.5,1.14-.5.29,0,.56.06.81.18s.5.26.76.42c.35.18.73.34,1.12.48.39.14.85.22,1.37.22.47,0,.86-.09,1.18-.28.32-.18.48-.47.48-.85,0-.21-.06-.38-.19-.52-.13-.14-.31-.26-.56-.36-.24-.1-.54-.2-.91-.29-.36-.09-.78-.2-1.25-.32-.48-.11-.96-.25-1.44-.42s-.91-.39-1.32-.67c-.4-.28-.72-.64-.97-1.09-.24-.45-.36-1.01-.36-1.68,0-.83.23-1.55.68-2.15.45-.6,1.08-1.06,1.87-1.37.8-.31,1.71-.47,2.74-.47.45,0,.96.05,1.51.14.56.1,1.09.26,1.61.5.43.22.79.48,1.06.78.27.3.41.66.41,1.09s-.13.78-.39,1.1c-.26.32-.62.48-1.09.48-.34,0-.62-.07-.86-.22-.23-.14-.5-.29-.79-.43-.27-.16-.55-.29-.82-.38-.27-.1-.58-.14-.92-.14-.52,0-.91.09-1.17.26-.27.18-.4.43-.4.77,0,.3.11.54.33.71.22.17.52.31.89.42.38.11.8.22,1.27.31.48.11.99.24,1.52.4.53.15,1.03.36,1.49.64.46.27.83.64,1.12,1.09s.43,1.05.43,1.79-.17,1.39-.5,1.91c-.33.52-.77.94-1.33,1.25-.56.31-1.16.54-1.83.68-.66.14-1.32.22-1.98.22Z" fill="#a8228e"/><ellipse cx="322.47" cy="194.61" rx="68.77" ry="69.82" fill="#69c9ca"/><ellipse cx="300.95" cy="194.61" rx="13.94" ry="14.16" fill="#cfacd1"/><ellipse cx="343.99" cy="194.61" rx="13.94" ry="14.16" fill="#cfacd1"/><ellipse cx="644.52" cy="313.06" rx="41.36" ry="41.99" fill="#006fba"/><ellipse cx="631.57" cy="313.06" rx="8.38" ry="8.51" fill="#cfacd1"/><ellipse cx="657.46" cy="313.06" rx="8.38" ry="8.51" fill="#cfacd1"/><ellipse cx="526.46" cy="380.3" rx="41.36" ry="41.99" fill="#a3ae3a"/><ellipse cx="513.52" cy="380.3" rx="8.38" ry="8.51" fill="#cfacd1"/><ellipse cx="539.41" cy="380.3" rx="8.38" ry="8.51" fill="#cfacd1"/><ellipse cx="245.65" cy="313.06" rx="41.36" ry="41.99" fill="#ef4136"/><ellipse cx="232.71" cy="313.06" rx="8.38" ry="8.51" fill="#cfacd1"/><ellipse cx="258.59" cy="313.06" rx="8.38" ry="8.51" fill="#cfacd1"/></svg>