<?xml version="1.0" encoding="UTF-8"?><svg id="a" xmlns="http://www.w3.org/2000/svg" width="700" height="600" viewBox="0 0 700 600"><path d="M199.45,248.71s1.14,11.18-34.74,12.95c0,0-26.41,2.09-33.97-10.94l-4.16-132.45s6.52,10.84,34.28,8.67c0,0,29.69-.04,37.28-8.16l1.3,129.93Z" fill="#ec008c"/><ellipse cx="162.34" cy="118.55" rx="35.75" ry="11.91" transform="translate(-2.22 3.1) rotate(-1.09)" fill="#bc0070"/><path d="M177.26,118.72l-1.05-17.03s-2.13-5.27-14.67-4.49c0,0-10.36-.26-14.12,4.47l1.08,17.38s13.7,3.3,28.77-.33Z" fill="#cfacd1" stroke="#bc0070" stroke-miterlimit="10"/><path d="M178.56,260.28l.28,4.55s-2.57,4.69-14.98,4.98c0,0-9.3.61-13.7-3.22l-.35-5.63s17.1,2.3,28.74-.68Z" fill="#cfacd1" stroke="#bc0070" stroke-miterlimit="10"/><ellipse cx="161.87" cy="101.1" rx="14.26" ry="3.91" transform="translate(-1.19 1.92) rotate(-.68)" fill="#cf96c3" stroke="#bc0070" stroke-miterlimit="10"/><path d="M221.4,117.66s-.96-11.19,34.95-12.37c0,0,26.44-1.65,33.78,11.5l1.96,132.5s-6.34-10.95-34.13-9.24c0,0-29.69-.45-37.41,7.54l.85-129.93Z" fill="#ec008c"/><ellipse cx="256.34" cy="248.42" rx="35.75" ry="11.91" transform="translate(-.59 .61) rotate(-.14)" fill="#bc0070"/><path d="M241.43,248l.77,17.04s2.04,5.3,14.6,4.73c0,0,10.36.43,14.19-4.24l-.79-17.39s-13.64-3.53-28.77-.15Z" fill="#cfacd1" stroke="#bc0070" stroke-miterlimit="10"/><path d="M242.48,106.44l-.21-4.55s2.65-4.65,15.06-4.73c0,0,9.31-.46,13.64,3.44l.26,5.64s-17.06-2.58-28.75.2Z" fill="#cfacd1" stroke="#bc0070" stroke-miterlimit="10"/><ellipse cx="256.53" cy="265.87" rx="3.91" ry="14.26" transform="translate(-10.55 521.14) rotate(-89.73)" fill="#cf96c3" stroke="#bc0070" stroke-miterlimit="10"/><path d="M385.81,248.71s1.14,11.18-34.74,12.95c0,0-26.41,2.09-33.97-10.94l-4.16-132.45s6.52,10.84,34.28,8.67c0,0,29.69-.04,37.28-8.16l1.3,129.93Z" fill="#ec008c"/><ellipse cx="348.71" cy="118.55" rx="35.75" ry="11.91" transform="translate(-2.18 6.63) rotate(-1.09)" fill="#bc0070"/><path d="M363.62,118.72l-1.05-17.03s-2.13-5.27-14.67-4.49c0,0-10.36-.26-14.12,4.47l1.08,17.38s13.7,3.3,28.77-.33Z" fill="#cfacd1" stroke="#bc0070" stroke-miterlimit="10"/><path d="M364.93,260.28l.28,4.55s-2.57,4.69-14.98,4.98c0,0-9.3.61-13.7-3.22l-.35-5.63s17.1,2.3,28.74-.68Z" fill="#cfacd1" stroke="#bc0070" stroke-miterlimit="10"/><ellipse cx="348.23" cy="101.1" rx="14.26" ry="3.91" transform="translate(-1.17 4.13) rotate(-.68)" fill="#cf96c3" stroke="#bc0070" stroke-miterlimit="10"/><path d="M407.77,117.66s-.96-11.19,34.95-12.37c0,0,26.44-1.65,33.78,11.5l1.96,132.5s-6.34-10.95-34.13-9.24c0,0-29.69-.45-37.41,7.54l.85-129.93Z" fill="#ec008c"/><ellipse cx="442.71" cy="248.42" rx="35.75" ry="11.91" transform="translate(-.59 1.05) rotate(-.14)" fill="#bc0070"/><path d="M427.8,248l.77,17.04s2.04,5.3,14.6,4.73c0,0,10.36.43,14.19-4.24l-.79-17.39s-13.64-3.53-28.77-.15Z" fill="#cfacd1" stroke="#bc0070" stroke-miterlimit="10"/><path d="M428.84,106.44l-.21-4.55s2.65-4.65,15.06-4.73c0,0,9.31-.46,13.64,3.44l.26,5.64s-17.06-2.58-28.75.2Z" fill="#cfacd1" stroke="#bc0070" stroke-miterlimit="10"/><ellipse cx="442.9" cy="265.87" rx="3.91" ry="14.26" transform="translate(174.94 707.5) rotate(-89.73)" fill="#cf96c3" stroke="#bc0070" stroke-miterlimit="10"/><path d="M569.52,248.71s1.14,11.18-34.74,12.95c0,0-26.41,2.09-33.97-10.94l-4.16-132.45s6.52,10.84,34.28,8.67c0,0,29.69-.04,37.28-8.16l1.3,129.93Z" fill="#ec008c"/><ellipse cx="532.42" cy="118.55" rx="35.75" ry="11.91" transform="translate(-2.15 10.1) rotate(-1.09)" fill="#bc0070"/><path d="M547.33,118.72l-1.05-17.03s-2.13-5.27-14.67-4.49c0,0-10.36-.26-14.12,4.47l1.08,17.38s13.7,3.3,28.77-.33Z" fill="#cfacd1" stroke="#bc0070" stroke-miterlimit="10"/><path d="M548.64,260.28l.28,4.55s-2.57,4.69-14.98,4.98c0,0-9.3.61-13.7-3.22l-.35-5.63s17.1,2.3,28.74-.68Z" fill="#cfacd1" stroke="#bc0070" stroke-miterlimit="10"/><ellipse cx="531.94" cy="101.1" rx="14.26" ry="3.91" transform="translate(-1.16 6.3) rotate(-.68)" fill="#cf96c3" stroke="#bc0070" stroke-miterlimit="10"/><path d="M591.48,117.66s-.96-11.19,34.95-12.37c0,0,26.44-1.65,33.78,11.5l1.96,132.5s-6.34-10.95-34.13-9.24c0,0-29.69-.45-37.41,7.54l.85-129.93Z" fill="#ec008c"/><ellipse cx="626.42" cy="248.42" rx="35.75" ry="11.91" transform="translate(-.59 1.48) rotate(-.14)" fill="#bc0070"/><path d="M611.51,248l.77,17.04s2.04,5.3,14.6,4.73c0,0,10.36.43,14.19-4.24l-.79-17.39s-13.64-3.53-28.77-.15Z" fill="#cfacd1" stroke="#bc0070" stroke-miterlimit="10"/><path d="M612.55,106.44l-.21-4.55s2.65-4.65,15.06-4.73c0,0,9.31-.46,13.64,3.44l.26,5.64s-17.06-2.58-28.75.2Z" fill="#cfacd1" stroke="#bc0070" stroke-miterlimit="10"/><ellipse cx="626.61" cy="265.87" rx="3.91" ry="14.26" transform="translate(357.77 891.21) rotate(-89.73)" fill="#cf96c3" stroke="#bc0070" stroke-miterlimit="10"/><path d="M199.45,470.23s1.14,11.18-34.74,12.95c0,0-26.41,2.09-33.97-10.94l-4.16-132.45s6.52,10.84,34.28,8.67c0,0,29.69-.04,37.28-8.16l1.3,129.93Z" fill="#ec008c"/><ellipse cx="162.34" cy="340.08" rx="35.75" ry="11.91" transform="translate(-6.41 3.14) rotate(-1.09)" fill="#bc0070"/><path d="M177.26,340.25l-1.05-17.03s-2.13-5.27-14.67-4.49c0,0-10.36-.26-14.12,4.47l1.08,17.38s13.7,3.3,28.77-.33Z" fill="#cfacd1" stroke="#bc0070" stroke-miterlimit="10"/><path d="M178.56,481.81l.28,4.55s-2.57,4.69-14.98,4.98c0,0-9.3.61-13.7-3.22l-.35-5.63s17.1,2.3,28.74-.68Z" fill="#cfacd1" stroke="#bc0070" stroke-miterlimit="10"/><ellipse cx="161.87" cy="322.63" rx="14.26" ry="3.91" transform="translate(-3.81 1.94) rotate(-.68)" fill="#cf96c3" stroke="#bc0070" stroke-miterlimit="10"/><path d="M221.4,339.19s-.96-11.19,34.95-12.37c0,0,26.44-1.65,33.78,11.5l1.96,132.5s-6.34-10.95-34.13-9.24c0,0-29.69-.45-37.41,7.54l.85-129.93Z" fill="#ec008c"/><ellipse cx="256.34" cy="469.95" rx="35.75" ry="11.91" transform="translate(-1.11 .61) rotate(-.14)" fill="#bc0070"/><path d="M241.43,469.53l.77,17.04s2.04,5.3,14.6,4.73c0,0,10.36.43,14.19-4.24l-.79-17.39s-13.64-3.53-28.77-.15Z" fill="#cfacd1" stroke="#bc0070" stroke-miterlimit="10"/><path d="M242.48,327.97l-.21-4.55s2.65-4.65,15.06-4.73c0,0,9.31-.46,13.64,3.44l.26,5.64s-17.06-2.58-28.75.2Z" fill="#cfacd1" stroke="#bc0070" stroke-miterlimit="10"/><ellipse cx="256.53" cy="487.4" rx="3.91" ry="14.26" transform="translate(-232.07 741.62) rotate(-89.73)" fill="#cf96c3" stroke="#bc0070" stroke-miterlimit="10"/><path d="M385.81,470.23s1.14,11.18-34.74,12.95c0,0-26.41,2.09-33.97-10.94l-4.16-132.45s6.52,10.84,34.28,8.67c0,0,29.69-.04,37.28-8.16l1.3,129.93Z" fill="#ec008c"/><ellipse cx="348.71" cy="340.08" rx="35.75" ry="11.91" transform="translate(-6.38 6.66) rotate(-1.09)" fill="#bc0070"/><path d="M363.62,340.25l-1.05-17.03s-2.13-5.27-14.67-4.49c0,0-10.36-.26-14.12,4.47l1.08,17.38s13.7,3.3,28.77-.33Z" fill="#cfacd1" stroke="#bc0070" stroke-miterlimit="10"/><path d="M364.93,481.81l.28,4.55s-2.57,4.69-14.98,4.98c0,0-9.3.61-13.7-3.22l-.35-5.63s17.1,2.3,28.74-.68Z" fill="#cfacd1" stroke="#bc0070" stroke-miterlimit="10"/><ellipse cx="348.23" cy="322.63" rx="14.26" ry="3.91" transform="translate(-3.79 4.14) rotate(-.68)" fill="#cf96c3" stroke="#bc0070" stroke-miterlimit="10"/><path d="M407.77,339.19s-.96-11.19,34.95-12.37c0,0,26.44-1.65,33.78,11.5l1.96,132.5s-6.34-10.95-34.13-9.24c0,0-29.69-.45-37.41,7.54l.85-129.93Z" fill="#ec008c"/><ellipse cx="442.71" cy="469.95" rx="35.75" ry="11.91" transform="translate(-1.11 1.05) rotate(-.14)" fill="#bc0070"/><path d="M427.8,469.53l.77,17.04s2.04,5.3,14.6,4.73c0,0,10.36.43,14.19-4.24l-.79-17.39s-13.64-3.53-28.77-.15Z" fill="#cfacd1" stroke="#bc0070" stroke-miterlimit="10"/><path d="M428.84,327.97l-.21-4.55s2.65-4.65,15.06-4.73c0,0,9.31-.46,13.64,3.44l.26,5.64s-17.06-2.58-28.75.2Z" fill="#cfacd1" stroke="#bc0070" stroke-miterlimit="10"/><ellipse cx="442.9" cy="487.4" rx="3.91" ry="14.26" transform="translate(-46.59 927.98) rotate(-89.73)" fill="#cf96c3" stroke="#bc0070" stroke-miterlimit="10"/><path d="M569.52,470.23s1.14,11.18-34.74,12.95c0,0-26.41,2.09-33.97-10.94l-4.16-132.45s6.52,10.84,34.28,8.67c0,0,29.69-.04,37.28-8.16l1.3,129.93Z" fill="#ec008c"/><ellipse cx="532.42" cy="340.08" rx="35.75" ry="11.91" transform="translate(-6.34 10.14) rotate(-1.09)" fill="#bc0070"/><path d="M547.33,340.25l-1.05-17.03s-2.13-5.27-14.67-4.49c0,0-10.36-.26-14.12,4.47l1.08,17.38s13.7,3.3,28.77-.33Z" fill="#cfacd1" stroke="#bc0070" stroke-miterlimit="10"/><path d="M548.64,481.81l.28,4.55s-2.57,4.69-14.98,4.98c0,0-9.3.61-13.7-3.22l-.35-5.63s17.1,2.3,28.74-.68Z" fill="#cfacd1" stroke="#bc0070" stroke-miterlimit="10"/><ellipse cx="531.94" cy="322.63" rx="14.26" ry="3.91" transform="translate(-3.78 6.32) rotate(-.68)" fill="#cf96c3" stroke="#bc0070" stroke-miterlimit="10"/><path d="M591.48,339.19s-.96-11.19,34.95-12.37c0,0,26.44-1.65,33.78,11.5l1.96,132.5s-6.34-10.95-34.13-9.24c0,0-29.69-.45-37.41,7.54l.85-129.93Z" fill="#ec008c"/><ellipse cx="626.42" cy="469.95" rx="35.75" ry="11.91" transform="translate(-1.11 1.49) rotate(-.14)" fill="#bc0070"/><path d="M611.51,469.53l.77,17.04s2.04,5.3,14.6,4.73c0,0,10.36.43,14.19-4.24l-.79-17.39s-13.64-3.53-28.77-.15Z" fill="#cfacd1" stroke="#bc0070" stroke-miterlimit="10"/><path d="M612.55,327.97l-.21-4.55s2.65-4.65,15.06-4.73c0,0,9.31-.46,13.64,3.44l.26,5.64s-17.06-2.58-28.75.2Z" fill="#cfacd1" stroke="#bc0070" stroke-miterlimit="10"/><ellipse cx="626.61" cy="487.4" rx="3.91" ry="14.26" transform="translate(136.25 1111.69) rotate(-89.73)" fill="#cf96c3" stroke="#bc0070" stroke-miterlimit="10"/><path d="M37.84,341.31s-1.1-10.91,33.92-12.59c0,0,25.78-2,33.14,10.72l3.9,129.27s-6.35-10.59-33.44-8.51c0,0-28.97,0-36.4,7.92l-1.11-126.81Z" fill="#a8228e"/><ellipse cx="73.89" cy="468.38" rx="34.89" ry="11.62" transform="translate(-8.28 1.38) rotate(-1.01)" fill="#9b1b83"/><path d="M59.33,468.2l1.01,16.62s2.07,5.14,14.32,4.4c0,0,10.11.26,13.78-4.35l-1.03-16.96s-13.37-3.24-28.08.29Z" fill="#cfacd1" stroke="#a8228e" stroke-miterlimit="10"/><path d="M58.23,330.04l-.27-4.44s2.51-4.58,14.63-4.84c0,0,9.07-.59,13.36,3.16l.33,5.5s-16.69-2.27-28.05.62Z" fill="#cfacd1" stroke="#a8228e" stroke-miterlimit="10"/><ellipse cx="74.33" cy="485.4" rx="13.92" ry="3.81" transform="translate(-5.14 .81) rotate(-.61)" fill="#cf96c3" stroke="#a8228e" stroke-miterlimit="10"/></svg>