<?xml version="1.0" encoding="UTF-8"?><svg id="a" xmlns="http://www.w3.org/2000/svg" width="700" height="600" viewBox="0 0 700 600"><path d="M189.22,251.37s1.22,11.93-37.1,13.83c0,0-28.21,2.23-36.27-11.68l-4.44-141.45s6.96,11.58,36.6,9.26c0,0,31.7-.04,39.82-8.71l1.39,138.75Z" fill="#ec008c"/><ellipse cx="149.6" cy="112.37" rx="38.18" ry="12.72" transform="translate(-2.1 2.85) rotate(-1.09)" fill="#bc0070"/><path d="M165.53,112.55l-1.13-18.19s-2.27-5.62-15.67-4.79c0,0-11.07-.28-15.08,4.78l1.15,18.56s14.63,3.53,30.72-.35Z" fill="#cfacd1" stroke="#bc0070" stroke-miterlimit="10"/><path d="M166.92,263.73l.3,4.86s-2.74,5.01-16,5.31c0,0-9.93.65-14.63-3.44l-.37-6.02s18.26,2.46,30.69-.72Z" fill="#cfacd1" stroke="#bc0070" stroke-miterlimit="10"/><ellipse cx="149.09" cy="93.74" rx="15.23" ry="4.17" transform="translate(-1.1 1.77) rotate(-.68)" fill="#cf96c3" stroke="#bc0070" stroke-miterlimit="10"/><path d="M212.67,111.43s-1.02-11.95,37.32-13.21c0,0,28.24-1.76,36.08,12.28l2.09,141.5s-6.77-11.69-36.45-9.87c0,0-31.7-.48-39.95,8.05l.91-138.76Z" fill="#ec008c"/><ellipse cx="249.98" cy="251.06" rx="38.18" ry="12.72" transform="translate(-.59 .59) rotate(-.14)" fill="#bc0070"/><path d="M234.06,250.62l.82,18.2s2.18,5.66,15.59,5.05c0,0,11.06.46,15.15-4.53l-.84-18.57s-14.57-3.77-30.73-.16Z" fill="#cfacd1" stroke="#bc0070" stroke-miterlimit="10"/><path d="M235.17,99.44l-.22-4.86s2.83-4.97,16.08-5.05c0,0,9.94-.49,14.57,3.68l.27,6.02s-18.22-2.76-30.7.21Z" fill="#cfacd1" stroke="#bc0070" stroke-miterlimit="10"/><ellipse cx="250.18" cy="269.7" rx="4.17" ry="15.23" transform="translate(-20.69 518.6) rotate(-89.73)" fill="#cf96c3" stroke="#bc0070" stroke-miterlimit="10"/><path d="M388.24,251.37s1.22,11.93-37.1,13.83c0,0-28.21,2.23-36.27-11.68l-4.44-141.45s6.96,11.58,36.6,9.26c0,0,31.7-.04,39.82-8.71l1.39,138.75Z" fill="#ec008c"/><ellipse cx="348.62" cy="112.37" rx="38.18" ry="12.72" transform="translate(-2.07 6.62) rotate(-1.09)" fill="#bc0070"/><path d="M364.55,112.55l-1.13-18.19s-2.27-5.62-15.67-4.79c0,0-11.07-.28-15.08,4.78l1.15,18.56s14.63,3.53,30.72-.35Z" fill="#cfacd1" stroke="#bc0070" stroke-miterlimit="10"/><path d="M365.94,263.73l.3,4.86s-2.74,5.01-16,5.31c0,0-9.93.65-14.63-3.44l-.37-6.02s18.26,2.46,30.69-.72Z" fill="#cfacd1" stroke="#bc0070" stroke-miterlimit="10"/><ellipse cx="348.11" cy="93.74" rx="15.23" ry="4.17" transform="translate(-1.09 4.13) rotate(-.68)" fill="#cf96c3" stroke="#bc0070" stroke-miterlimit="10"/><path d="M411.69,111.43s-1.02-11.95,37.32-13.21c0,0,28.24-1.76,36.08,12.28l2.09,141.5s-6.77-11.69-36.45-9.87c0,0-31.7-.48-39.95,8.05l.91-138.76Z" fill="#ec008c"/><ellipse cx="449" cy="251.06" rx="38.18" ry="12.72" transform="translate(-.59 1.06) rotate(-.14)" fill="#bc0070"/><path d="M433.08,250.62l.82,18.2s2.18,5.66,15.59,5.05c0,0,11.06.46,15.15-4.53l-.84-18.57s-14.57-3.77-30.73-.16Z" fill="#cfacd1" stroke="#bc0070" stroke-miterlimit="10"/><path d="M434.2,99.44l-.22-4.86s2.83-4.97,16.08-5.05c0,0,9.94-.49,14.57,3.68l.27,6.02s-18.22-2.76-30.7.21Z" fill="#cfacd1" stroke="#bc0070" stroke-miterlimit="10"/><ellipse cx="449.21" cy="269.7" rx="4.17" ry="15.23" transform="translate(177.39 717.62) rotate(-89.73)" fill="#cf96c3" stroke="#bc0070" stroke-miterlimit="10"/><path d="M584.43,251.37s1.22,11.93-37.1,13.83c0,0-28.21,2.23-36.27-11.68l-4.44-141.45s6.96,11.58,36.6,9.26c0,0,31.7-.04,39.82-8.71l1.39,138.75Z" fill="#ec008c"/><ellipse cx="544.81" cy="112.37" rx="38.18" ry="12.72" transform="translate(-2.03 10.34) rotate(-1.09)" fill="#bc0070"/><path d="M560.73,112.55l-1.13-18.19s-2.27-5.62-15.67-4.79c0,0-11.07-.28-15.08,4.78l1.15,18.56s14.63,3.53,30.72-.35Z" fill="#cfacd1" stroke="#bc0070" stroke-miterlimit="10"/><path d="M562.13,263.73l.3,4.86s-2.74,5.01-16,5.31c0,0-9.93.65-14.63-3.44l-.37-6.02s18.26,2.46,30.69-.72Z" fill="#cfacd1" stroke="#bc0070" stroke-miterlimit="10"/><ellipse cx="544.3" cy="93.74" rx="15.23" ry="4.17" transform="translate(-1.07 6.45) rotate(-.68)" fill="#cf96c3" stroke="#bc0070" stroke-miterlimit="10"/><path d="M607.88,111.43s-1.02-11.95,37.32-13.21c0,0,28.24-1.76,36.08,12.28l2.09,141.5s-6.77-11.69-36.45-9.87c0,0-31.7-.48-39.95,8.05l.91-138.76Z" fill="#ec008c"/><ellipse cx="645.19" cy="251.06" rx="38.18" ry="12.72" transform="translate(-.59 1.53) rotate(-.14)" fill="#bc0070"/><path d="M629.27,250.62l.82,18.2s2.18,5.66,15.59,5.05c0,0,11.06.46,15.15-4.53l-.84-18.57s-14.57-3.77-30.73-.16Z" fill="#cfacd1" stroke="#bc0070" stroke-miterlimit="10"/><path d="M630.38,99.44l-.22-4.86s2.83-4.97,16.08-5.05c0,0,9.94-.49,14.57,3.68l.27,6.02s-18.22-2.76-30.7.21Z" fill="#cfacd1" stroke="#bc0070" stroke-miterlimit="10"/><ellipse cx="645.39" cy="269.7" rx="4.17" ry="15.23" transform="translate(372.64 913.8) rotate(-89.73)" fill="#cf96c3" stroke="#bc0070" stroke-miterlimit="10"/><path d="M189.22,487.94s1.22,11.93-37.1,13.83c0,0-28.21,2.23-36.27-11.68l-4.44-141.45s6.96,11.58,36.6,9.26c0,0,31.7-.04,39.82-8.71l1.39,138.75Z" fill="#ec008c"/><ellipse cx="149.6" cy="348.94" rx="38.18" ry="12.72" transform="translate(-6.58 2.9) rotate(-1.09)" fill="#bc0070"/><path d="M165.53,349.13l-1.13-18.19s-2.27-5.62-15.67-4.79c0,0-11.07-.28-15.08,4.78l1.15,18.56s14.63,3.53,30.72-.35Z" fill="#cfacd1" stroke="#bc0070" stroke-miterlimit="10"/><path d="M166.92,500.3l.3,4.86s-2.74,5.01-16,5.31c0,0-9.93.65-14.63-3.44l-.37-6.02s18.26,2.46,30.69-.72Z" fill="#cfacd1" stroke="#bc0070" stroke-miterlimit="10"/><ellipse cx="149.09" cy="330.32" rx="15.23" ry="4.17" transform="translate(-3.9 1.79) rotate(-.68)" fill="#cf96c3" stroke="#bc0070" stroke-miterlimit="10"/><path d="M212.67,348s-1.02-11.95,37.32-13.21c0,0,28.24-1.76,36.08,12.28l2.09,141.5s-6.77-11.69-36.45-9.87c0,0-31.7-.48-39.95,8.05l.91-138.76Z" fill="#ec008c"/><ellipse cx="249.98" cy="487.63" rx="38.18" ry="12.72" transform="translate(-1.15 .59) rotate(-.14)" fill="#bc0070"/><path d="M234.06,487.19l.82,18.2s2.18,5.66,15.59,5.05c0,0,11.06.46,15.15-4.53l-.84-18.57s-14.57-3.77-30.73-.16Z" fill="#cfacd1" stroke="#bc0070" stroke-miterlimit="10"/><path d="M235.17,336.01l-.22-4.86s2.83-4.97,16.08-5.05c0,0,9.94-.49,14.57,3.68l.27,6.02s-18.22-2.76-30.7.21Z" fill="#cfacd1" stroke="#bc0070" stroke-miterlimit="10"/><ellipse cx="250.18" cy="506.27" rx="4.17" ry="15.23" transform="translate(-257.26 754.05) rotate(-89.73)" fill="#cf96c3" stroke="#bc0070" stroke-miterlimit="10"/><path d="M388.24,487.94s1.22,11.93-37.1,13.83c0,0-28.21,2.23-36.27-11.68l-4.44-141.45s6.96,11.58,36.6,9.26c0,0,31.7-.04,39.82-8.71l1.39,138.75Z" fill="#ec008c"/><ellipse cx="348.62" cy="348.94" rx="38.18" ry="12.72" transform="translate(-6.55 6.66) rotate(-1.09)" fill="#bc0070"/><path d="M364.55,349.13l-1.13-18.19s-2.27-5.62-15.67-4.79c0,0-11.07-.28-15.08,4.78l1.15,18.56s14.63,3.53,30.72-.35Z" fill="#cfacd1" stroke="#bc0070" stroke-miterlimit="10"/><path d="M365.94,500.3l.3,4.86s-2.74,5.01-16,5.31c0,0-9.93.65-14.63-3.44l-.37-6.02s18.26,2.46,30.69-.72Z" fill="#cfacd1" stroke="#bc0070" stroke-miterlimit="10"/><ellipse cx="348.11" cy="330.32" rx="15.23" ry="4.17" transform="translate(-3.88 4.14) rotate(-.68)" fill="#cf96c3" stroke="#bc0070" stroke-miterlimit="10"/><path d="M411.69,348s-1.02-11.95,37.32-13.21c0,0,28.24-1.76,36.08,12.28l2.09,141.5s-6.77-11.69-36.45-9.87c0,0-31.7-.48-39.95,8.05l.91-138.76Z" fill="#ec008c"/><ellipse cx="449" cy="487.63" rx="38.18" ry="12.72" transform="translate(-1.15 1.07) rotate(-.14)" fill="#bc0070"/><path d="M433.08,487.19l.82,18.2s2.18,5.66,15.59,5.05c0,0,11.06.46,15.15-4.53l-.84-18.57s-14.57-3.77-30.73-.16Z" fill="#cfacd1" stroke="#bc0070" stroke-miterlimit="10"/><path d="M434.2,336.01l-.22-4.86s2.83-4.97,16.08-5.05c0,0,9.94-.49,14.57,3.68l.27,6.02s-18.22-2.76-30.7.21Z" fill="#cfacd1" stroke="#bc0070" stroke-miterlimit="10"/><ellipse cx="449.21" cy="506.27" rx="4.17" ry="15.23" transform="translate(-59.18 953.07) rotate(-89.73)" fill="#cf96c3" stroke="#bc0070" stroke-miterlimit="10"/><path d="M584.43,487.94s1.22,11.93-37.1,13.83c0,0-28.21,2.23-36.27-11.68l-4.44-141.45s6.96,11.58,36.6,9.26c0,0,31.7-.04,39.82-8.71l1.39,138.75Z" fill="#ec008c"/><ellipse cx="544.81" cy="348.94" rx="38.18" ry="12.72" transform="translate(-6.51 10.38) rotate(-1.09)" fill="#bc0070"/><path d="M560.73,349.13l-1.13-18.19s-2.27-5.62-15.67-4.79c0,0-11.07-.28-15.08,4.78l1.15,18.56s14.63,3.53,30.72-.35Z" fill="#cfacd1" stroke="#bc0070" stroke-miterlimit="10"/><path d="M562.13,500.3l.3,4.86s-2.74,5.01-16,5.31c0,0-9.93.65-14.63-3.44l-.37-6.02s18.26,2.46,30.69-.72Z" fill="#cfacd1" stroke="#bc0070" stroke-miterlimit="10"/><ellipse cx="544.3" cy="330.32" rx="15.23" ry="4.17" transform="translate(-3.87 6.46) rotate(-.68)" fill="#cf96c3" stroke="#bc0070" stroke-miterlimit="10"/><path d="M607.88,348s-1.02-11.95,37.32-13.21c0,0,28.24-1.76,36.08,12.28l2.09,141.5s-6.77-11.69-36.45-9.87c0,0-31.7-.48-39.95,8.05l.91-138.76Z" fill="#ec008c"/><ellipse cx="645.19" cy="487.63" rx="38.18" ry="12.72" transform="translate(-1.15 1.53) rotate(-.14)" fill="#bc0070"/><path d="M629.27,487.19l.82,18.2s2.18,5.66,15.59,5.05c0,0,11.06.46,15.15-4.53l-.84-18.57s-14.57-3.77-30.73-.16Z" fill="#cfacd1" stroke="#bc0070" stroke-miterlimit="10"/><path d="M630.38,336.01l-.22-4.86s2.83-4.97,16.08-5.05c0,0,9.94-.49,14.57,3.68l.27,6.02s-18.22-2.76-30.7.21Z" fill="#cfacd1" stroke="#bc0070" stroke-miterlimit="10"/><ellipse cx="645.39" cy="506.27" rx="4.17" ry="15.23" transform="translate(136.07 1149.25) rotate(-89.73)" fill="#cf96c3" stroke="#bc0070" stroke-miterlimit="10"/><path d="M16.64,350.26s-1.18-11.65,36.22-13.45c0,0,27.53-2.14,35.39,11.45l4.16,138.05s-6.78-11.31-35.71-9.08c0,0-30.94,0-38.87,8.45l-1.19-135.42Z" fill="#a8228e"/><ellipse cx="55.14" cy="485.96" rx="37.26" ry="12.41" transform="translate(-8.59 1.05) rotate(-1.01)" fill="#9b1b83"/><path d="M39.59,485.76l1.08,17.75s2.21,5.49,15.29,4.7c0,0,10.8.28,14.72-4.64l-1.1-18.11s-14.27-3.46-29.99.31Z" fill="#cfacd1" stroke="#a8228e" stroke-miterlimit="10"/><path d="M38.42,338.23l-.29-4.74s2.69-4.89,15.62-5.17c0,0,9.69-.63,14.27,3.37l.36,5.87s-17.82-2.42-29.96.67Z" fill="#cfacd1" stroke="#a8228e" stroke-miterlimit="10"/><ellipse cx="55.61" cy="504.14" rx="14.86" ry="4.07" transform="translate(-5.33 .62) rotate(-.61)" fill="#cf96c3" stroke="#a8228e" stroke-miterlimit="10"/></svg>