<?xml version="1.0" encoding="UTF-8"?><svg id="a" xmlns="http://www.w3.org/2000/svg" width="500" height="369" viewBox="0 0 500 369"><g id="b"><rect x="62.96" y="87.04" width="326.84" height="226.04" rx="10.97" ry="10.97" transform="translate(-5.9 6.89) rotate(-1.72)" fill="#a8268d"/><path d="M79.02,91.41l143.87-4.32,6.78,225.94-143.49,4.31c-7.35.22-13.49-5.56-13.71-12.91l-6-199.69c-.21-7.14,5.42-13.12,12.56-13.34h-.01,0Z" fill="#a8268d" stroke="#cfadd2" stroke-miterlimit="10"/><path d="M373.2,308.69l-143.5,4.31-6.78-225.94,143.87-4.32c7.14-.21,13.12,5.42,13.34,12.56l6,199.67c.22,7.35-5.56,13.49-12.91,13.71h-.02Z" fill="#a8268d" stroke="#cfadd2" stroke-miterlimit="10"/><line x1="67.33" y1="133.08" x2="380.96" y2="123.64" fill="none" stroke="#cfadd2" stroke-miterlimit="10"/><line x1="67.87" y1="150.97" x2="381.49" y2="141.53" fill="none" stroke="#cfadd2" stroke-miterlimit="10"/><line x1="68.37" y1="167.37" x2="381.99" y2="157.93" fill="none" stroke="#cfadd2" stroke-miterlimit="10"/><line x1="68.86" y1="183.76" x2="382.48" y2="174.32" fill="none" stroke="#cfadd2" stroke-miterlimit="10"/><line x1="69.35" y1="200.16" x2="382.97" y2="190.72" fill="none" stroke="#cfadd2" stroke-miterlimit="10"/><line x1="69.85" y1="216.55" x2="383.46" y2="207.11" fill="none" stroke="#cfadd2" stroke-miterlimit="10"/><line x1="70.33" y1="232.96" x2="383.96" y2="223.52" fill="none" stroke="#cfadd2" stroke-miterlimit="10"/><line x1="70.83" y1="249.35" x2="384.46" y2="239.91" fill="none" stroke="#cfadd2" stroke-miterlimit="10"/><line x1="71.37" y1="267.1" x2="384.99" y2="257.66" fill="none" stroke="#cfadd2" stroke-miterlimit="10"/><line x1="71.9" y1="284.85" x2="385.53" y2="275.41" fill="none" stroke="#cfadd2" stroke-miterlimit="10"/><line x1="72.44" y1="302.6" x2="386.06" y2="293.16" fill="none" stroke="#cfadd2" stroke-miterlimit="10"/><path d="M426.32,62.78s1.33-3.71,7.46-.36c0,0,4.84,19.43,3.98,25.63,0,0,1.76-3.54,1.56,21.82,0,0-4.07,13.14-.42,19.98,0,0,2.28,18.36-1.45,28.34l.15,95.77s1.33,68.07-4.99,71.69c0,0-7.51,4.62-12.4-2.24,0,0-2.93-2.01-1.15-68.5l.55-96.24s-2.14-12.75.36-27.55c0,0,2.88-13.89.48-18.94,0,0-3.62-16.4,1.07-24.48,0,0,1.47-14.74,4.78-24.91h.03,0Z" fill="#a8268d" stroke="#cfadd2" stroke-miterlimit="10"/><path d="M419.38,320.04s-9.09-14.19-7.95-19.25l3.06-47.56s.28-5.42-2.92-8.55c0,0-.59-4.53,3.5-2.3,0,0,3.66,2.05,4.49,5.43l-.18,72.22h0Z" fill="#a8268d" stroke="#cfadd2" stroke-miterlimit="10"/><path d="M422.09,325.47l.45,13.79s.35,3.93,5.04,4.15c0,0,4.57-.08,4.62-4.35l-.55-12.95s-5.11,2.24-9.55-.65h-.01Z" fill="#a8268d" stroke="#cfadd2" stroke-miterlimit="10"/><path d="M437.77,88.04s-8.26,5.82-16.23-.34c0,0-5.81,16.67-.87,29.35,0,0,.94,10.23-.69,14.07,0,0-2.94,21.18-.36,27.55,0,0,8.39,6.34,17.85-.48,0,0,4.15-13.35,1.45-28.34,0,0-2.03-7.66.1-15.07,0,0,1.52-19-1.25-26.72h.01v-.02Z" fill="#cfadd2"/></g></svg>