<?xml version="1.0" encoding="UTF-8"?><svg id="a" xmlns="http://www.w3.org/2000/svg" width="500" height="345" viewBox="0 0 500 345"><g id="b"><rect x="62.2" y="86.75" width="327.5" height="226.5" rx="10.97" ry="10.97" transform="translate(-5.9 6.87) rotate(-1.72)" fill="#a8268d"/><path d="M78.29,91.14l144.16-4.33,6.8,226.4-143.78,4.32c-7.36.22-13.52-5.57-13.74-12.94l-6.01-200.09c-.21-7.16,5.43-13.15,12.58-13.36h-.01Z" fill="#cfadd2" stroke="#a8268d" stroke-miterlimit="10"/><path d="M373.06,308.85l-143.79,4.32-6.8-226.4,144.16-4.33c7.16-.21,13.15,5.43,13.36,12.58l6.01,200.08c.22,7.36-5.57,13.52-12.94,13.74h0Z" fill="#cfadd2" stroke="#a8268d" stroke-miterlimit="10"/><line x1="66.58" y1="132.9" x2="380.84" y2="123.44" fill="none" stroke="#a8268d" stroke-miterlimit="10" stroke-width=".75"/><line x1="67.12" y1="150.82" x2="381.37" y2="141.36" fill="none" stroke="#a8268d" stroke-miterlimit="10" stroke-width=".25"/><line x1="67.61" y1="167.25" x2="381.87" y2="157.79" fill="none" stroke="#a8268d" stroke-miterlimit="10" stroke-width=".25"/><line x1="68.11" y1="183.68" x2="382.36" y2="174.22" fill="none" stroke="#a8268d" stroke-miterlimit="10" stroke-width=".25"/><line x1="68.6" y1="200.11" x2="382.86" y2="190.65" fill="none" stroke="#a8268d" stroke-miterlimit="10" stroke-width=".25"/><line x1="69.1" y1="216.54" x2="383.34" y2="207.08" fill="none" stroke="#a8268d" stroke-miterlimit="10" stroke-width=".25"/><line x1="69.59" y1="232.97" x2="383.84" y2="223.51" fill="none" stroke="#a8268d" stroke-miterlimit="10" stroke-width=".25"/><line x1="70.09" y1="249.4" x2="384.34" y2="239.94" fill="none" stroke="#a8268d" stroke-miterlimit="10" stroke-width=".25"/><line x1="70.62" y1="267.18" x2="384.88" y2="257.72" fill="none" stroke="#a8268d" stroke-miterlimit="10" stroke-width=".25"/><line x1="71.16" y1="284.97" x2="385.41" y2="275.51" fill="none" stroke="#a8268d" stroke-miterlimit="10" stroke-width=".25"/><line x1="71.69" y1="302.76" x2="385.95" y2="293.3" fill="none" stroke="#a8268d" stroke-miterlimit="10" stroke-width=".25"/><path d="M185.34,158.55s-2.8-2.79,2.85-6.92c0,0,19.69,3.9,24.93,7.32,0,0-2.46-3.1,20.45,7.89,0,0,10.18,9.29,17.93,8.9,0,0,17.62,5.76,25.08,13.4l86.9,40.71s62.29,27.82,62.87,35.1c0,0,.99,8.78-7.32,10.29,0,0-3.07,1.8-62.6-28.17l-87.03-41.54s-12.48-3.49-24.82-12.08c0,0-11.37-8.53-16.97-8.51,0,0-16.41-3.71-21.74-11.41,0,0-12.73-7.62-20.55-14.96v-.02h.02Z" fill="#cfadd2" stroke="#a8268d" stroke-miterlimit="10"/><path d="M415.64,274.55s-16.74,2.19-20.84-1l-41.82-23.06s-4.8-2.57-9-1c0,0-4.36-1.4-.6-4.15,0,0,3.42-2.45,6.84-1.75l65.4,30.96h.02Z" fill="#cfadd2" stroke="#a8268d" stroke-miterlimit="10"/><path d="M421.73,274.4l12.7,5.48s3.71,1.36,5.92-2.8c0,0,1.87-4.18-1.97-6.04l-11.98-5.03s-.15,5.59-4.66,8.38h-.01Z" fill="#cfadd2" stroke="#a8268d" stroke-miterlimit="10"/><path d="M213.13,158.94s1.75,9.97-7.23,14.57c0,0,12.64,12.38,26.24,13.31,0,0,9.68,3.51,12.47,6.62,0,0,17.95,11.7,24.82,12.08,0,0,9.33-4.91,7.17-16.39,0,0-10.34-9.46-25.08-13.4,0,0-7.82-1.42-13.62-6.51,0,0-16.58-9.48-24.76-10.26h0v-.02Z" fill="#a8268d"/></g></svg>