<?xml version="1.0" encoding="UTF-8"?><svg id="a" xmlns="http://www.w3.org/2000/svg" width="500" height="343" viewBox="0 0 500 343"><g id="b"><path d="M166.18,193.28s-10.32-12.78,9.02-38.51c0,0,21.75-27.6,42.19-7.83,0,0-6.68-18.1,24.12-20.83,0,0,23.92-2.48,30.18,17,0,0,15.17-12.2,33.76,3.76,0,0,19.97,13.42,8.96,32.88,0,0,12.21.29,22.56,21.72,0,0,7.61,26.15-13.09,39.47,0,0,17.96,15.16-3.06,42.84,0,0-16.39,19.24-34.12,5.2,0,0,.69,23.85-30.66,23.99,0,0-31.84-1.73-28.18-22.88,0,0-6.04,25.91-45.94-1.29,0,0-16.97-11.43-10.51-29.01,0,0-20.8,2.28-20.68-34.15,0,0,1.47-26.89,15.47-32.4v.03h-.02Z" fill="#a8268d" stroke="#cfadd2" stroke-miterlimit="10"/><path d="M217.4,146.95s19.14,33.13,18.47,49.42" fill="none" stroke="#cfadd2" stroke-miterlimit="10"/><path d="M271.68,143.13s-11.91,48.94-18.64,55.34" fill="none" stroke="#cfadd2" stroke-miterlimit="10"/><path d="M314.4,179.76s-22.72-.84-54.12,23.43" fill="none" stroke="#cfadd2" stroke-miterlimit="10"/><path d="M323.86,240.95s-23.95-16.19-60.59-19.96" fill="none" stroke="#cfadd2" stroke-miterlimit="10"/><path d="M286.68,289s-9.83-45.07-30.32-68.85" fill="none" stroke="#cfadd2" stroke-miterlimit="10"/><path d="M227.84,290.11s16.66-44.42,16.85-71.41" fill="none" stroke="#cfadd2" stroke-miterlimit="10"/><path d="M171.39,259.81s23.59-32.41,61.53-39.32" fill="none" stroke="#cfadd2" stroke-miterlimit="10"/><path d="M166.18,193.28s31.63-8.39,63.07,20.29" fill="none" stroke="#cfadd2" stroke-miterlimit="10"/><ellipse cx="246.75" cy="210.66" rx="24.66" ry="24.29" transform="translate(7.78 430.11) rotate(-83.05)" fill="#cfadd2"/><ellipse cx="239.2" cy="209.74" rx="5" ry="4.93" transform="translate(2.06 421.8) rotate(-83.05)" fill="#a8268d"/><ellipse cx="254.3" cy="211.58" rx="5" ry="4.93" transform="translate(13.51 438.41) rotate(-83.05)" fill="#a8268d"/><ellipse cx="186.72" cy="77.1" rx="6.65" ry="6.06" transform="translate(29.78 204.29) rotate(-61.46)" fill="#a8268d"/><line x1="234.46" y1="117.76" x2="188.43" y2="78.84" fill="none" stroke="#a8268d" stroke-miterlimit="10"/><ellipse cx="165.73" cy="87.51" rx="6.65" ry="6.06" transform="translate(69.78 248.5) rotate(-87.04)" fill="#a8268d"/><line x1="226.34" y1="103.56" x2="168.01" y2="88.33" fill="none" stroke="#a8268d" stroke-miterlimit="10"/><ellipse cx="166.73" cy="225.99" rx="6.65" ry="6.06" transform="translate(-112.52 196.14) rotate(-47.48)" fill="#a8268d"/><line x1="179.62" y1="221.09" x2="167.96" y2="228.07" fill="none" stroke="#a8268d" stroke-miterlimit="10"/><ellipse cx="274.78" cy="54.79" rx="6.06" ry="6.65" transform="translate(114.65 284.7) rotate(-66.42)" fill="#a8268d"/><line x1="238.39" y1="105.87" x2="273.21" y2="56.63" fill="none" stroke="#a8268d" stroke-miterlimit="10"/><ellipse cx="381.54" cy="298.68" rx="6.65" ry="6.06" transform="translate(-94.3 390.1) rotate(-48.93)" fill="#a8268d"/><line x1="343.75" y1="248.62" x2="380.25" y2="296.62" fill="none" stroke="#a8268d" stroke-miterlimit="10"/><ellipse cx="135.55" cy="284.7" rx="6.65" ry="6.06" transform="translate(-110.78 87.85) rotate(-25.91)" fill="#a8268d"/><line x1="120.34" y1="223.86" x2="135.17" y2="282.31" fill="none" stroke="#a8268d" stroke-miterlimit="10"/></g></svg>