<?xml version="1.0" encoding="UTF-8"?><svg id="a" xmlns="http://www.w3.org/2000/svg" width="500" height="338" viewBox="0 0 500 338"><g id="b"><path d="M165.87,193.68s-10.3-12.76,9.01-38.44c0,0,21.71-27.55,42.12-7.81,0,0-6.67-18.06,24.08-20.79,0,0,23.88-2.48,30.13,16.97,0,0,15.15-12.18,33.7,3.75,0,0,19.94,13.4,8.94,32.82,0,0,12.19.29,22.52,21.69,0,0,7.6,26.1-13.07,39.4,0,0,17.93,15.13-3.06,42.77,0,0-16.37,19.21-34.07,5.2,0,0,.69,23.81-30.61,23.95,0,0-31.79-1.72-28.13-22.85,0,0-6.03,25.86-45.87-1.28,0,0-16.95-11.41-10.49-28.96,0,0-20.77,2.28-20.64-34.09,0,0,1.47-26.85,15.45-32.34v.03-.02Z" fill="#cfadd2" stroke="#a8268d" stroke-miterlimit="10"/><path d="M217,147.42s19.11,33.07,18.44,49.34" fill="none" stroke="#a8268d" stroke-miterlimit="10"/><path d="M271.2,143.61s-11.89,48.86-18.61,55.25" fill="none" stroke="#a8268d" stroke-miterlimit="10"/><path d="M313.84,180.18s-22.68-.84-54.03,23.39" fill="none" stroke="#a8268d" stroke-miterlimit="10"/><path d="M323.28,241.28s-23.91-16.17-60.48-19.93" fill="none" stroke="#a8268d" stroke-miterlimit="10"/><path d="M286.16,289.24s-9.81-45-30.27-68.74" fill="none" stroke="#a8268d" stroke-miterlimit="10"/><path d="M227.42,290.34s16.63-44.34,16.82-71.29" fill="none" stroke="#a8268d" stroke-miterlimit="10"/><path d="M171.08,260.1s23.55-32.36,61.43-39.25" fill="none" stroke="#a8268d" stroke-miterlimit="10"/><path d="M165.87,193.68s31.58-8.38,62.96,20.25" fill="none" stroke="#a8268d" stroke-miterlimit="10"/><ellipse cx="246.29" cy="211.04" rx="24.62" ry="24.25" transform="translate(7 429.98) rotate(-83.05)" fill="#a8268d"/><ellipse cx="238.76" cy="210.12" rx="4.99" ry="4.92" transform="translate(1.29 421.7) rotate(-83.05)" fill="#cfadd2" stroke="#a8268d" stroke-miterlimit="10" stroke-width="1"/><ellipse cx="253.83" cy="211.95" rx="4.99" ry="4.92" transform="translate(12.72 438.27) rotate(-83.05)" fill="#cfadd2" stroke="#a8268d" stroke-miterlimit="10" stroke-width="1"/><ellipse cx="267.37" cy="92.87" rx="6.64" ry="6.05" fill="#a8268d"/><line x1="254.47" y1="154.13" x2="266.66" y2="95.19" fill="none" stroke="#a8268d" stroke-miterlimit="10"/><ellipse cx="241.87" cy="101.78" rx="6.64" ry="6.05" transform="translate(-19.55 79.04) rotate(-17.85)" fill="#a8268d"/><line x1="248.38" y1="164.05" x2="241.92" y2="104.2" fill="none" stroke="#a8268d" stroke-miterlimit="10"/><ellipse cx="295.06" cy="118.54" rx="6.05" ry="6.64" transform="translate(103.57 372.4) rotate(-74.86)" fill="#a8268d"/><line x1="276.18" y1="159.65" x2="293.78" y2="120.59" fill="none" stroke="#a8268d" stroke-miterlimit="10"/><ellipse cx="166.41" cy="226.34" rx="6.64" ry="6.05" transform="translate(-112.88 196.02) rotate(-47.48)" fill="#a8268d"/><line x1="179.28" y1="221.44" x2="167.64" y2="228.42" fill="none" stroke="#a8268d" stroke-miterlimit="10"/><ellipse cx="342.92" cy="267.17" rx="6.64" ry="6.05" transform="translate(-1.72 2.22) rotate(-.37)" fill="#a8268d"/><line x1="311.7" y1="250.75" x2="341.95" y2="267.21" fill="none" stroke="#a8268d" stroke-miterlimit="10"/></g></svg>