<?xml version="1.0" encoding="UTF-8"?><svg id="a" xmlns="http://www.w3.org/2000/svg" width="500" height="314" viewBox="0 0 500 314"><g id="b"><rect x="203.27" y="-44.28" width="93.45" height="491.42" transform="translate(11.79 416.67) rotate(-80.96)" fill="#cfadd2" stroke="#a8268d" stroke-miterlimit="10" stroke-width="1"/><line x1="58.48" y1="123.64" x2="43.8" y2="215.92" fill="none" stroke="#a8268d" stroke-miterlimit="10"/><line x1="102.9" y1="130.7" x2="88.21" y2="222.99" fill="none" stroke="#a8268d" stroke-miterlimit="10"/><line x1="147.24" y1="137.76" x2="132.55" y2="230.04" fill="none" stroke="#a8268d" stroke-miterlimit="10"/><line x1="191.71" y1="144.84" x2="177.02" y2="237.12" fill="none" stroke="#a8268d" stroke-miterlimit="10"/><line x1="235.48" y1="151.8" x2="220.8" y2="244.09" fill="none" stroke="#a8268d" stroke-miterlimit="10"/><line x1="279.54" y1="158.81" x2="264.85" y2="251.11" fill="none" stroke="#a8268d" stroke-miterlimit="10"/><line x1="323.86" y1="165.87" x2="309.17" y2="258.16" fill="none" stroke="#a8268d" stroke-miterlimit="10"/><line x1="367.82" y1="172.87" x2="353.14" y2="265.16" fill="none" stroke="#a8268d" stroke-miterlimit="10"/><line x1="411.87" y1="179.87" x2="397.17" y2="272.16" fill="none" stroke="#a8268d" stroke-miterlimit="10"/><line x1="456.13" y1="186.92" x2="441.45" y2="279.21" fill="none" stroke="#a8268d" stroke-miterlimit="10"/><line x1="7.34" y1="162.8" x2="492.65" y2="240.04" fill="none" stroke="#a8268d" stroke-miterlimit="10"/><line x1="10.93" y1="140.31" x2="496.23" y2="217.55" fill="none" stroke="#a8268d" stroke-miterlimit="10" stroke-width=".5"/><line x1="4.07" y1="184.56" x2="489.38" y2="261.8" fill="none" stroke="#a8268d" stroke-miterlimit="10" stroke-width=".5"/><line x1="36.96" y1="120.58" x2="22.28" y2="212.86" fill="none" stroke="#a8268d" stroke-miterlimit="10" stroke-width=".5"/><line x1="80.53" y1="127.25" x2="65.85" y2="219.54" fill="none" stroke="#a8268d" stroke-miterlimit="10" stroke-width=".5"/><line x1="125.02" y1="133.89" x2="110.33" y2="226.18" fill="none" stroke="#a8268d" stroke-miterlimit="10" stroke-width=".5"/><line x1="169.15" y1="141.54" x2="154.46" y2="233.82" fill="none" stroke="#a8268d" stroke-miterlimit="10" stroke-width=".5"/><line x1="213.35" y1="148.43" x2="198.65" y2="240.71" fill="none" stroke="#a8268d" stroke-miterlimit="10" stroke-width=".5"/><line x1="257.66" y1="155.64" x2="242.98" y2="247.92" fill="none" stroke="#a8268d" stroke-miterlimit="10" stroke-width=".5"/><line x1="301.63" y1="162.68" x2="286.94" y2="254.96" fill="none" stroke="#a8268d" stroke-miterlimit="10" stroke-width=".5"/><line x1="345.58" y1="169.35" x2="330.9" y2="261.65" fill="none" stroke="#a8268d" stroke-miterlimit="10" stroke-width=".5"/><line x1="389.75" y1="176.74" x2="375.06" y2="269.02" fill="none" stroke="#a8268d" stroke-miterlimit="10" stroke-width=".5"/><line x1="434" y1="183.91" x2="419.3" y2="276.2" fill="none" stroke="#a8268d" stroke-miterlimit="10" stroke-width=".5"/><line x1="477.73" y1="190.63" x2="463.04" y2="282.91" fill="none" stroke="#a8268d" stroke-miterlimit="10" stroke-width=".5"/></g></svg>