<?xml version="1.0" encoding="UTF-8"?><svg id="a" xmlns="http://www.w3.org/2000/svg" width="500" height="298" viewBox="0 0 500 298"><g id="b"><rect x="4.37" y="154.73" width="491.31" height="93.43" transform="translate(-18.25 25.03) rotate(-5.53)" fill="#a8268d"/><line x1="45.11" y1="174.34" x2="54.13" y2="267.33" fill="none" stroke="#cfadd2" stroke-miterlimit="10"/><line x1="89.87" y1="170" x2="98.88" y2="262.99" fill="none" stroke="#cfadd2" stroke-miterlimit="10"/><line x1="134.55" y1="165.67" x2="143.57" y2="258.66" fill="none" stroke="#cfadd2" stroke-miterlimit="10"/><line x1="179.36" y1="161.33" x2="188.37" y2="254.32" fill="none" stroke="#cfadd2" stroke-miterlimit="10"/><line x1="223.46" y1="157.06" x2="232.49" y2="250.04" fill="none" stroke="#cfadd2" stroke-miterlimit="10"/><line x1="267.86" y1="152.74" x2="276.88" y2="245.74" fill="none" stroke="#cfadd2" stroke-miterlimit="10"/><line x1="312.52" y1="148.42" x2="321.53" y2="241.41" fill="none" stroke="#cfadd2" stroke-miterlimit="10"/><line x1="356.82" y1="144.12" x2="365.83" y2="237.11" fill="none" stroke="#cfadd2" stroke-miterlimit="10"/><line x1="401.19" y1="139.81" x2="410.2" y2="232.81" fill="none" stroke="#cfadd2" stroke-miterlimit="10"/><line x1="445.79" y1="135.49" x2="454.8" y2="228.48" fill="none" stroke="#cfadd2" stroke-miterlimit="10"/><line x1="5.5" y1="225.12" x2="494.5" y2="177.71" fill="none" stroke="#cfadd2" stroke-miterlimit="10"/><line x1="3.29" y1="202.45" x2="492.3" y2="155.03" fill="none" stroke="#cfadd2" stroke-miterlimit="10" stroke-width=".5"/><line x1="7.8" y1="246.99" x2="496.81" y2="199.58" fill="none" stroke="#cfadd2" stroke-miterlimit="10" stroke-width=".5"/><line x1="23.53" y1="176.8" x2="32.54" y2="269.79" fill="none" stroke="#cfadd2" stroke-miterlimit="10" stroke-width=".5"/><line x1="67.36" y1="172.29" x2="76.38" y2="265.29" fill="none" stroke="#cfadd2" stroke-miterlimit="10" stroke-width=".5"/><line x1="112.07" y1="167.52" x2="121.09" y2="260.5" fill="none" stroke="#cfadd2" stroke-miterlimit="10" stroke-width=".5"/><line x1="156.7" y1="163.81" x2="165.71" y2="256.8" fill="none" stroke="#cfadd2" stroke-miterlimit="10" stroke-width=".5"/><line x1="201.19" y1="159.36" x2="210.21" y2="252.34" fill="none" stroke="#cfadd2" stroke-miterlimit="10" stroke-width=".5"/><line x1="245.9" y1="155.18" x2="254.91" y2="248.16" fill="none" stroke="#cfadd2" stroke-miterlimit="10" stroke-width=".5"/><line x1="290.2" y1="150.91" x2="299.21" y2="243.91" fill="none" stroke="#cfadd2" stroke-miterlimit="10" stroke-width=".5"/><line x1="334.41" y1="146.33" x2="343.42" y2="239.31" fill="none" stroke="#cfadd2" stroke-miterlimit="10" stroke-width=".5"/><line x1="379" y1="142.35" x2="388.02" y2="235.33" fill="none" stroke="#cfadd2" stroke-miterlimit="10" stroke-width=".5"/><line x1="423.62" y1="138.15" x2="432.63" y2="231.15" fill="none" stroke="#cfadd2" stroke-miterlimit="10" stroke-width=".5"/><line x1="467.63" y1="133.63" x2="476.64" y2="226.63" fill="none" stroke="#cfadd2" stroke-miterlimit="10" stroke-width=".5"/></g></svg>