<?xml version="1.0" encoding="UTF-8"?><svg id="a" xmlns="http://www.w3.org/2000/svg" width="500" height="328" viewBox="0 0 500 328"><g id="b"><rect x="4.2" y="89.2" width="211.2" height="211.2" fill="#cfadd2" stroke="#a8268d" stroke-miterlimit="10"/><polygon points="57 89.2 109.9 141.9 57 141.9 57 89.2" fill="#a8268d"/><polygon points="109.9 141.9 162.7 89.2 162.7 141.9 109.9 141.9" fill="#a8268d"/><polygon points="57 194.8 4.2 141.9 57 141.9 57 194.8" fill="#a8268d"/><polygon points="4.2 247.6 57 194.8 57 247.6 4.2 247.6" fill="#a8268d"/><polygon points="215.5 141.7 162.7 194.5 162.7 141.7 215.5 141.7" fill="#a8268d"/><polygon points="162.7 194.8 215.5 247.6 162.7 247.6 162.7 194.8" fill="#a8268d"/><polygon points="162.7 300.4 109.9 247.6 162.7 247.6 162.7 300.4" fill="#a8268d"/><polygon points="109.9 247.6 57 300.4 57 247.6 109.9 247.6" fill="#a8268d"/></g><g id="c"><rect x="269.2" y="210.5" width="91.8" height="91.8" fill="#cfadd2" stroke="#a8268d" stroke-miterlimit="10"/><polyline points="361.1 301.8 269.1 302.2 361.1 210.6" fill="#a8268d"/><rect x="246.1" y="90.3" width="183.6" height="91.8" fill="#cfadd2" stroke="#a8268d" stroke-miterlimit="10"/><polygon points="246.1 90.3 338 182.3 246.5 182.3 246.1 90.3" fill="#a8268d"/><polyline points="338 90.7 430 90.4 338 182.2" fill="#a8268d"/><polyline points="490.9 204.6 491.2 296.6 399.4 204.6" fill="#a8268d"/><polygon points="498 275.5 379.4 222.3 412.5 308.1 498 275.5" fill="#cfadd2" stroke="#a8268d" stroke-miterlimit="10"/></g></svg>