<?xml version="1.0" encoding="UTF-8"?><svg id="a" xmlns="http://www.w3.org/2000/svg" width="500" height="310" viewBox="0 0 500 310"><g id="b"><path d="M96.2,270.7c16.5,16.6,52.6,13.6,52.6,13.6,30.3-.9,52.3-20.7,52.3-20.7,14-18.1,37.8-25.6,37.8-25.6l-16.8-18.4c-4.6-5.1-121.8,27.1-121.8,27.1-17.8,12.7-4,24-4,24h-.1ZM122,253.4s27.4-3.2,38.5-7.4c0,0,23.1-15.4,28.8-13.2,0,0,11.1,1.9,11.3,11.5,0,0,2.6,11.1-6.1,15.2,0,0-40.8,20.9-65.9,16.6,0,0-14.3-1.2-17.8-14.4,0,0-.6-9.1,11.3-8.3h-.1Z" fill="#a8268d"/><path d="M125.5,177.6c0,7.2,10.3,6.5,10.3,6.5,6.1-.2,7.2-7.2,7.2-7.2,1.7-6.3,17.6-4.3,17.6-4.3,23.6-.9,62.6,17.7,62.6,17.7l9.7-20-36.8-23c-13-8.8-29-27.7-29-27.7-28.3-14.3-42.5,13.3-42.5,13.3-8,15.5.9,44.7.9,44.7h0ZM157.4,128.2s20.4,8.2,21.4,19.2c0,0-.5,13.8-9.7,16.4l-22.5-.8s-9.8-6.4-9.6-18.4c0,0,1.5-17.9,20.4-16.4h0Z" fill="#a8268d"/><path d="M226.2,184.2l24.3,35.9,152.9-6.3s7.5-1.8,5-11.8c0,0-43.8-4.6-82.6-7.8-24.6-2-47.1-3.4-55.4-2.7,0,0-14.3,0-24.4-7.7l-14.6-10.3-5.2,10.6h0v.1Z" fill="#cfadd2" stroke="#a8268d" stroke-miterlimit="10"/><polygon points="224.9 224.5 242 207.6 250.5 220.1 275.8 219.1 236.9 237.7 224.9 224.5" fill="#cfadd2" stroke="#a8268d" stroke-miterlimit="10"/><circle cx="274" cy="205.4" r="8.6" fill="#cfadd2" stroke="#a8268d" stroke-miterlimit="10"/><path d="M394,152.8s-3.2-9.9-11.8-6.8l-108.8,45.5,52.3,2.8,68.3-41.5h0Z" fill="#cfadd2" stroke="#a8268d" stroke-miterlimit="10"/></g></svg>