<?xml version="1.0" encoding="UTF-8"?><svg id="a" xmlns="http://www.w3.org/2000/svg" width="500" height="324.5" viewBox="0 0 500 324.5"><g id="b"><path d="M107.6,289.6c18.4,14.3,53.7,6.7,53.7,6.7,29.9-4.9,49-27.2,49-27.2,11.5-19.7,34.1-30.2,34.1-30.2l-19-16.1c-5.2-4.4-116.9,42.6-116.9,42.6-15.9,14.8-.9,24.2-.9,24.2h0ZM130.8,269.1s26.7-6.7,37.1-12.3c0,0,20.9-18.2,26.7-16.8,0,0,11.2.4,12.7,9.9,0,0,4,10.7-4.1,15.8,0,0-37.6,25.9-63,25,0,0-14.2.7-19.4-11.9,0,0-1.7-8.9,10.1-9.7h-.1Z" fill="#a8268d"/><path d="M124.5,193.7c.9,7.1,11.1,5.1,11.1,5.1,5.9-1,6.2-8.1,6.2-8.1.8-6.5,16.8-6.5,16.8-6.5,23.2-3.9,64.2,9.4,64.2,9.4l7-21.1-39.4-18c-13.9-7-32.3-23.6-32.3-23.6-29.8-10.5-40.3,18.7-40.3,18.7-5.9,16.4,6.7,44,6.7,44h0v.1ZM149.6,140.7s21.2,5.5,23.6,16.2c0,0,1.3,13.7-7.5,17.5l-22.4,2.1s-10.5-5.1-11.8-17c0,0-.8-17.9,18-18.9h0l.1.1Z" fill="#a8268d"/><path d="M224.9,187.3l28.7,32.4,150.3-25.9s7.2-2.7,3.4-12.4c0,0-43.9,1.1-82.7,3-24.5,1.2-47.1,2.7-55.1,4.5,0,0-14.1,1.9-25.1-4.5l-15.8-8.3-3.7,11.2h0Z" fill="#a8268d" stroke="#cfadd2" stroke-miterlimit="10"/><polygon points="228.8 227.2 243.5 208.3 253.5 219.6 278.4 215.3 242.4 238.8 228.8 227.2" fill="#a8268d" stroke="#cfadd2" stroke-miterlimit="10"/><circle cx="274.9" cy="201.9" r="8.5" fill="#a8268d" stroke="#cfadd2" stroke-miterlimit="10"/><path d="M386.7,134.4s-4.4-9.3-12.5-5.2l-101.7,59,52.1-3.9,62.2-49.9h-.1Z" fill="#a8268d" stroke="#cfadd2" stroke-miterlimit="10"/></g></svg>